G75*
%MOIN*%
%OFA0B0*%
%FSLAX25Y25*%
%IPPOS*%
%LPD*%
%AMOC8*
5,1,8,0,0,1.08239X$1,22.5*
%
%ADD10C,0.00600*%
%ADD11C,0.00500*%
%ADD12C,0.00300*%
%ADD13C,0.00200*%
%ADD14C,0.00400*%
D10*
X0009700Y0017200D02*
X0014700Y0017200D01*
X0017200Y0019700D01*
X0019700Y0017200D01*
X0024700Y0017200D01*
X0027200Y0019700D01*
X0029700Y0017200D01*
X0034700Y0017200D01*
X0037200Y0019700D01*
X0037200Y0024700D01*
X0034700Y0027200D01*
X0029700Y0027200D01*
X0027200Y0024700D01*
X0027200Y0019700D01*
X0027200Y0024700D02*
X0024700Y0027200D01*
X0019700Y0027200D01*
X0017200Y0024700D01*
X0017200Y0019700D01*
X0017200Y0024700D02*
X0014700Y0027200D01*
X0009700Y0027200D01*
X0007200Y0024700D01*
X0007200Y0019700D01*
X0009700Y0017200D01*
X0009700Y0027200D02*
X0014700Y0027200D01*
X0017200Y0029700D01*
X0019700Y0027200D01*
X0024700Y0027200D01*
X0027200Y0029700D01*
X0029700Y0027200D01*
X0034700Y0027200D01*
X0037200Y0029700D01*
X0037200Y0034700D01*
X0034700Y0037200D01*
X0029700Y0037200D01*
X0027200Y0039700D01*
X0024700Y0037200D01*
X0019700Y0037200D01*
X0017200Y0039700D01*
X0014700Y0037200D01*
X0009700Y0037200D01*
X0007200Y0039700D01*
X0007200Y0044700D01*
X0009700Y0047200D01*
X0014700Y0047200D01*
X0017200Y0044700D01*
X0019700Y0047200D01*
X0017200Y0049700D01*
X0017200Y0054700D01*
X0019700Y0057200D01*
X0017200Y0059700D01*
X0017200Y0064700D01*
X0019700Y0067200D01*
X0024700Y0067200D01*
X0027200Y0064700D01*
X0027200Y0059700D01*
X0024700Y0057200D01*
X0027200Y0054700D01*
X0027200Y0049700D01*
X0024700Y0047200D01*
X0019700Y0047200D01*
X0024700Y0047200D01*
X0027200Y0044700D01*
X0029700Y0047200D01*
X0034700Y0047200D01*
X0037200Y0044700D01*
X0037200Y0039700D01*
X0034700Y0037200D01*
X0029700Y0037200D01*
X0027200Y0034700D01*
X0027200Y0029700D01*
X0027200Y0034700D02*
X0024700Y0037200D01*
X0019700Y0037200D01*
X0017200Y0034700D01*
X0017200Y0029700D01*
X0017200Y0034700D02*
X0014700Y0037200D01*
X0009700Y0037200D01*
X0007200Y0034700D01*
X0007200Y0029700D01*
X0009700Y0027200D01*
X0017200Y0039700D02*
X0017200Y0044700D01*
X0027200Y0044700D02*
X0027200Y0039700D01*
X0024700Y0057200D02*
X0019700Y0057200D01*
X0019700Y0067200D02*
X0017200Y0069700D01*
X0017200Y0074700D01*
X0019700Y0077200D01*
X0017200Y0079700D01*
X0017200Y0084700D01*
X0019700Y0087200D01*
X0024700Y0087200D01*
X0027200Y0084700D01*
X0027200Y0079700D01*
X0024700Y0077200D01*
X0027200Y0074700D01*
X0027200Y0069700D01*
X0024700Y0067200D01*
X0024700Y0077200D02*
X0019700Y0077200D01*
X0019700Y0087200D02*
X0017200Y0089700D01*
X0014700Y0087200D01*
X0009700Y0087200D01*
X0007200Y0089700D01*
X0007200Y0094700D01*
X0009700Y0097200D01*
X0014700Y0097200D01*
X0017200Y0094700D01*
X0019700Y0097200D01*
X0024700Y0097200D01*
X0027200Y0094700D01*
X0029700Y0097200D01*
X0034700Y0097200D01*
X0037200Y0094700D01*
X0037200Y0089700D01*
X0034700Y0087200D01*
X0029700Y0087200D01*
X0027200Y0089700D01*
X0024700Y0087200D01*
X0019700Y0087200D01*
X0017200Y0089700D02*
X0017200Y0094700D01*
X0019700Y0097200D02*
X0017200Y0099700D01*
X0014700Y0097200D01*
X0009700Y0097200D01*
X0007200Y0099700D01*
X0007200Y0104700D01*
X0009700Y0107200D01*
X0014700Y0107200D01*
X0017200Y0104700D01*
X0019700Y0107200D01*
X0024700Y0107200D01*
X0027200Y0104700D01*
X0029700Y0107200D01*
X0034700Y0107200D01*
X0037200Y0104700D01*
X0037200Y0099700D01*
X0034700Y0097200D01*
X0029700Y0097200D01*
X0027200Y0099700D01*
X0024700Y0097200D01*
X0019700Y0097200D01*
X0017200Y0099700D02*
X0017200Y0104700D01*
X0014700Y0107200D02*
X0009700Y0107200D01*
X0007200Y0109700D01*
X0007200Y0114700D01*
X0009700Y0117200D01*
X0014700Y0117200D01*
X0017200Y0114700D01*
X0019700Y0117200D01*
X0024700Y0117200D01*
X0027200Y0114700D01*
X0029700Y0117200D01*
X0034700Y0117200D01*
X0037200Y0114700D01*
X0037200Y0109700D01*
X0034700Y0107200D01*
X0029700Y0107200D01*
X0027200Y0109700D01*
X0024700Y0107200D01*
X0019700Y0107200D01*
X0017200Y0109700D01*
X0014700Y0107200D01*
X0017200Y0109700D02*
X0017200Y0114700D01*
X0027200Y0114700D02*
X0027200Y0109700D01*
X0027200Y0104700D02*
X0027200Y0099700D01*
X0027200Y0094700D02*
X0027200Y0089700D01*
X0029700Y0137200D02*
X0027200Y0139700D01*
X0027200Y0144700D01*
X0029700Y0147200D01*
X0027200Y0149700D01*
X0027200Y0154700D01*
X0029700Y0157200D01*
X0034700Y0157200D01*
X0037200Y0154700D01*
X0037200Y0149700D01*
X0034700Y0147200D01*
X0037200Y0144700D01*
X0037200Y0139700D01*
X0034700Y0137200D01*
X0029700Y0137200D01*
X0029700Y0147200D02*
X0034700Y0147200D01*
X0034700Y0157200D02*
X0037200Y0159700D01*
X0037200Y0164700D01*
X0034700Y0167200D01*
X0037200Y0169700D01*
X0037200Y0174700D01*
X0034700Y0177200D01*
X0029700Y0177200D01*
X0027200Y0174700D01*
X0027200Y0169700D01*
X0029700Y0167200D01*
X0034700Y0167200D01*
X0029700Y0167200D02*
X0027200Y0164700D01*
X0027200Y0159700D01*
X0029700Y0157200D01*
X0196700Y0091200D02*
X0196700Y0086200D01*
X0199200Y0083700D01*
X0204200Y0083700D01*
X0206700Y0086200D01*
X0206700Y0091200D01*
X0204200Y0093700D01*
X0199200Y0093700D01*
X0196700Y0091200D01*
X0199200Y0083700D02*
X0196700Y0081200D01*
X0196700Y0076200D01*
X0199200Y0073700D01*
X0204200Y0073700D01*
X0206700Y0071200D01*
X0206700Y0066200D01*
X0204200Y0063700D01*
X0206700Y0061200D01*
X0206700Y0056200D01*
X0204200Y0053700D01*
X0199200Y0053700D01*
X0196700Y0056200D01*
X0196700Y0061200D01*
X0199200Y0063700D01*
X0196700Y0066200D01*
X0196700Y0071200D01*
X0199200Y0073700D01*
X0204200Y0073700D02*
X0206700Y0076200D01*
X0206700Y0081200D01*
X0204200Y0083700D01*
X0204200Y0063700D02*
X0199200Y0063700D01*
X0199700Y0050700D02*
X0197200Y0048200D01*
X0197200Y0043200D01*
X0199700Y0040700D01*
X0204700Y0040700D01*
X0207200Y0043200D01*
X0207200Y0048200D01*
X0204700Y0050700D01*
X0199700Y0050700D01*
X0199700Y0037200D02*
X0204700Y0037200D01*
X0207200Y0034700D01*
X0207200Y0029700D01*
X0204700Y0027200D01*
X0207200Y0024700D01*
X0207200Y0019700D01*
X0204700Y0017200D01*
X0207200Y0014700D01*
X0207200Y0009700D01*
X0204700Y0007200D01*
X0199700Y0007200D01*
X0197200Y0009700D01*
X0197200Y0014700D01*
X0199700Y0017200D01*
X0197200Y0019700D01*
X0197200Y0024700D01*
X0199700Y0027200D01*
X0197200Y0029700D01*
X0197200Y0034700D01*
X0199700Y0037200D01*
X0199700Y0027200D02*
X0204700Y0027200D01*
X0204700Y0017200D02*
X0199700Y0017200D01*
D11*
X0187200Y0007200D02*
X0120271Y0007200D01*
X0120271Y0093814D01*
X0187200Y0093814D01*
X0187200Y0007200D01*
X0117200Y0007200D02*
X0072200Y0007200D01*
X0072200Y0027200D01*
X0092200Y0027200D01*
X0092200Y0002200D01*
X0072200Y0002200D01*
X0072200Y0007200D01*
X0047200Y0007200D01*
X0047200Y0177200D01*
X0067200Y0177200D01*
X0067200Y0157200D01*
X0097200Y0157200D01*
X0097200Y0177200D01*
X0117200Y0177200D01*
X0117200Y0007200D01*
X0142200Y0097200D02*
X0142200Y0179700D01*
X0204700Y0179700D01*
X0204700Y0097200D01*
X0142200Y0097200D01*
X0174700Y0114700D02*
X0177200Y0117200D01*
X0179700Y0114700D01*
X0177200Y0117200D02*
X0177200Y0102200D01*
X0192200Y0102200D01*
X0189700Y0099700D01*
X0192200Y0102200D02*
X0189700Y0104700D01*
X0097200Y0177200D02*
X0067200Y0177200D01*
X0069050Y0172200D02*
X0069052Y0172312D01*
X0069058Y0172423D01*
X0069068Y0172535D01*
X0069082Y0172646D01*
X0069099Y0172756D01*
X0069121Y0172866D01*
X0069147Y0172975D01*
X0069176Y0173083D01*
X0069209Y0173189D01*
X0069246Y0173295D01*
X0069287Y0173399D01*
X0069332Y0173502D01*
X0069380Y0173603D01*
X0069431Y0173702D01*
X0069486Y0173799D01*
X0069545Y0173894D01*
X0069606Y0173988D01*
X0069671Y0174079D01*
X0069740Y0174167D01*
X0069811Y0174253D01*
X0069885Y0174337D01*
X0069963Y0174417D01*
X0070043Y0174495D01*
X0070126Y0174571D01*
X0070211Y0174643D01*
X0070299Y0174712D01*
X0070389Y0174778D01*
X0070482Y0174840D01*
X0070577Y0174900D01*
X0070674Y0174956D01*
X0070772Y0175008D01*
X0070873Y0175057D01*
X0070975Y0175102D01*
X0071079Y0175144D01*
X0071184Y0175182D01*
X0071291Y0175216D01*
X0071398Y0175246D01*
X0071507Y0175273D01*
X0071616Y0175295D01*
X0071727Y0175314D01*
X0071837Y0175329D01*
X0071949Y0175340D01*
X0072060Y0175347D01*
X0072172Y0175350D01*
X0072284Y0175349D01*
X0072396Y0175344D01*
X0072507Y0175335D01*
X0072618Y0175322D01*
X0072729Y0175305D01*
X0072839Y0175285D01*
X0072948Y0175260D01*
X0073056Y0175232D01*
X0073163Y0175199D01*
X0073269Y0175163D01*
X0073373Y0175123D01*
X0073476Y0175080D01*
X0073578Y0175033D01*
X0073677Y0174982D01*
X0073775Y0174928D01*
X0073871Y0174870D01*
X0073965Y0174809D01*
X0074056Y0174745D01*
X0074145Y0174678D01*
X0074232Y0174607D01*
X0074316Y0174533D01*
X0074398Y0174457D01*
X0074476Y0174377D01*
X0074552Y0174295D01*
X0074625Y0174210D01*
X0074695Y0174123D01*
X0074761Y0174033D01*
X0074825Y0173941D01*
X0074885Y0173847D01*
X0074942Y0173751D01*
X0074995Y0173652D01*
X0075045Y0173552D01*
X0075091Y0173451D01*
X0075134Y0173347D01*
X0075173Y0173242D01*
X0075208Y0173136D01*
X0075239Y0173029D01*
X0075267Y0172920D01*
X0075290Y0172811D01*
X0075310Y0172701D01*
X0075326Y0172590D01*
X0075338Y0172479D01*
X0075346Y0172368D01*
X0075350Y0172256D01*
X0075350Y0172144D01*
X0075346Y0172032D01*
X0075338Y0171921D01*
X0075326Y0171810D01*
X0075310Y0171699D01*
X0075290Y0171589D01*
X0075267Y0171480D01*
X0075239Y0171371D01*
X0075208Y0171264D01*
X0075173Y0171158D01*
X0075134Y0171053D01*
X0075091Y0170949D01*
X0075045Y0170848D01*
X0074995Y0170748D01*
X0074942Y0170649D01*
X0074885Y0170553D01*
X0074825Y0170459D01*
X0074761Y0170367D01*
X0074695Y0170277D01*
X0074625Y0170190D01*
X0074552Y0170105D01*
X0074476Y0170023D01*
X0074398Y0169943D01*
X0074316Y0169867D01*
X0074232Y0169793D01*
X0074145Y0169722D01*
X0074056Y0169655D01*
X0073965Y0169591D01*
X0073871Y0169530D01*
X0073775Y0169472D01*
X0073677Y0169418D01*
X0073578Y0169367D01*
X0073476Y0169320D01*
X0073373Y0169277D01*
X0073269Y0169237D01*
X0073163Y0169201D01*
X0073056Y0169168D01*
X0072948Y0169140D01*
X0072839Y0169115D01*
X0072729Y0169095D01*
X0072618Y0169078D01*
X0072507Y0169065D01*
X0072396Y0169056D01*
X0072284Y0169051D01*
X0072172Y0169050D01*
X0072060Y0169053D01*
X0071949Y0169060D01*
X0071837Y0169071D01*
X0071727Y0169086D01*
X0071616Y0169105D01*
X0071507Y0169127D01*
X0071398Y0169154D01*
X0071291Y0169184D01*
X0071184Y0169218D01*
X0071079Y0169256D01*
X0070975Y0169298D01*
X0070873Y0169343D01*
X0070772Y0169392D01*
X0070674Y0169444D01*
X0070577Y0169500D01*
X0070482Y0169560D01*
X0070389Y0169622D01*
X0070299Y0169688D01*
X0070211Y0169757D01*
X0070126Y0169829D01*
X0070043Y0169905D01*
X0069963Y0169983D01*
X0069885Y0170063D01*
X0069811Y0170147D01*
X0069740Y0170233D01*
X0069671Y0170321D01*
X0069606Y0170412D01*
X0069545Y0170506D01*
X0069486Y0170601D01*
X0069431Y0170698D01*
X0069380Y0170797D01*
X0069332Y0170898D01*
X0069287Y0171001D01*
X0069246Y0171105D01*
X0069209Y0171211D01*
X0069176Y0171317D01*
X0069147Y0171425D01*
X0069121Y0171534D01*
X0069099Y0171644D01*
X0069082Y0171754D01*
X0069068Y0171865D01*
X0069058Y0171977D01*
X0069052Y0172088D01*
X0069050Y0172200D01*
X0069050Y0162200D02*
X0069052Y0162312D01*
X0069058Y0162423D01*
X0069068Y0162535D01*
X0069082Y0162646D01*
X0069099Y0162756D01*
X0069121Y0162866D01*
X0069147Y0162975D01*
X0069176Y0163083D01*
X0069209Y0163189D01*
X0069246Y0163295D01*
X0069287Y0163399D01*
X0069332Y0163502D01*
X0069380Y0163603D01*
X0069431Y0163702D01*
X0069486Y0163799D01*
X0069545Y0163894D01*
X0069606Y0163988D01*
X0069671Y0164079D01*
X0069740Y0164167D01*
X0069811Y0164253D01*
X0069885Y0164337D01*
X0069963Y0164417D01*
X0070043Y0164495D01*
X0070126Y0164571D01*
X0070211Y0164643D01*
X0070299Y0164712D01*
X0070389Y0164778D01*
X0070482Y0164840D01*
X0070577Y0164900D01*
X0070674Y0164956D01*
X0070772Y0165008D01*
X0070873Y0165057D01*
X0070975Y0165102D01*
X0071079Y0165144D01*
X0071184Y0165182D01*
X0071291Y0165216D01*
X0071398Y0165246D01*
X0071507Y0165273D01*
X0071616Y0165295D01*
X0071727Y0165314D01*
X0071837Y0165329D01*
X0071949Y0165340D01*
X0072060Y0165347D01*
X0072172Y0165350D01*
X0072284Y0165349D01*
X0072396Y0165344D01*
X0072507Y0165335D01*
X0072618Y0165322D01*
X0072729Y0165305D01*
X0072839Y0165285D01*
X0072948Y0165260D01*
X0073056Y0165232D01*
X0073163Y0165199D01*
X0073269Y0165163D01*
X0073373Y0165123D01*
X0073476Y0165080D01*
X0073578Y0165033D01*
X0073677Y0164982D01*
X0073775Y0164928D01*
X0073871Y0164870D01*
X0073965Y0164809D01*
X0074056Y0164745D01*
X0074145Y0164678D01*
X0074232Y0164607D01*
X0074316Y0164533D01*
X0074398Y0164457D01*
X0074476Y0164377D01*
X0074552Y0164295D01*
X0074625Y0164210D01*
X0074695Y0164123D01*
X0074761Y0164033D01*
X0074825Y0163941D01*
X0074885Y0163847D01*
X0074942Y0163751D01*
X0074995Y0163652D01*
X0075045Y0163552D01*
X0075091Y0163451D01*
X0075134Y0163347D01*
X0075173Y0163242D01*
X0075208Y0163136D01*
X0075239Y0163029D01*
X0075267Y0162920D01*
X0075290Y0162811D01*
X0075310Y0162701D01*
X0075326Y0162590D01*
X0075338Y0162479D01*
X0075346Y0162368D01*
X0075350Y0162256D01*
X0075350Y0162144D01*
X0075346Y0162032D01*
X0075338Y0161921D01*
X0075326Y0161810D01*
X0075310Y0161699D01*
X0075290Y0161589D01*
X0075267Y0161480D01*
X0075239Y0161371D01*
X0075208Y0161264D01*
X0075173Y0161158D01*
X0075134Y0161053D01*
X0075091Y0160949D01*
X0075045Y0160848D01*
X0074995Y0160748D01*
X0074942Y0160649D01*
X0074885Y0160553D01*
X0074825Y0160459D01*
X0074761Y0160367D01*
X0074695Y0160277D01*
X0074625Y0160190D01*
X0074552Y0160105D01*
X0074476Y0160023D01*
X0074398Y0159943D01*
X0074316Y0159867D01*
X0074232Y0159793D01*
X0074145Y0159722D01*
X0074056Y0159655D01*
X0073965Y0159591D01*
X0073871Y0159530D01*
X0073775Y0159472D01*
X0073677Y0159418D01*
X0073578Y0159367D01*
X0073476Y0159320D01*
X0073373Y0159277D01*
X0073269Y0159237D01*
X0073163Y0159201D01*
X0073056Y0159168D01*
X0072948Y0159140D01*
X0072839Y0159115D01*
X0072729Y0159095D01*
X0072618Y0159078D01*
X0072507Y0159065D01*
X0072396Y0159056D01*
X0072284Y0159051D01*
X0072172Y0159050D01*
X0072060Y0159053D01*
X0071949Y0159060D01*
X0071837Y0159071D01*
X0071727Y0159086D01*
X0071616Y0159105D01*
X0071507Y0159127D01*
X0071398Y0159154D01*
X0071291Y0159184D01*
X0071184Y0159218D01*
X0071079Y0159256D01*
X0070975Y0159298D01*
X0070873Y0159343D01*
X0070772Y0159392D01*
X0070674Y0159444D01*
X0070577Y0159500D01*
X0070482Y0159560D01*
X0070389Y0159622D01*
X0070299Y0159688D01*
X0070211Y0159757D01*
X0070126Y0159829D01*
X0070043Y0159905D01*
X0069963Y0159983D01*
X0069885Y0160063D01*
X0069811Y0160147D01*
X0069740Y0160233D01*
X0069671Y0160321D01*
X0069606Y0160412D01*
X0069545Y0160506D01*
X0069486Y0160601D01*
X0069431Y0160698D01*
X0069380Y0160797D01*
X0069332Y0160898D01*
X0069287Y0161001D01*
X0069246Y0161105D01*
X0069209Y0161211D01*
X0069176Y0161317D01*
X0069147Y0161425D01*
X0069121Y0161534D01*
X0069099Y0161644D01*
X0069082Y0161754D01*
X0069068Y0161865D01*
X0069058Y0161977D01*
X0069052Y0162088D01*
X0069050Y0162200D01*
X0079050Y0162200D02*
X0079052Y0162312D01*
X0079058Y0162423D01*
X0079068Y0162535D01*
X0079082Y0162646D01*
X0079099Y0162756D01*
X0079121Y0162866D01*
X0079147Y0162975D01*
X0079176Y0163083D01*
X0079209Y0163189D01*
X0079246Y0163295D01*
X0079287Y0163399D01*
X0079332Y0163502D01*
X0079380Y0163603D01*
X0079431Y0163702D01*
X0079486Y0163799D01*
X0079545Y0163894D01*
X0079606Y0163988D01*
X0079671Y0164079D01*
X0079740Y0164167D01*
X0079811Y0164253D01*
X0079885Y0164337D01*
X0079963Y0164417D01*
X0080043Y0164495D01*
X0080126Y0164571D01*
X0080211Y0164643D01*
X0080299Y0164712D01*
X0080389Y0164778D01*
X0080482Y0164840D01*
X0080577Y0164900D01*
X0080674Y0164956D01*
X0080772Y0165008D01*
X0080873Y0165057D01*
X0080975Y0165102D01*
X0081079Y0165144D01*
X0081184Y0165182D01*
X0081291Y0165216D01*
X0081398Y0165246D01*
X0081507Y0165273D01*
X0081616Y0165295D01*
X0081727Y0165314D01*
X0081837Y0165329D01*
X0081949Y0165340D01*
X0082060Y0165347D01*
X0082172Y0165350D01*
X0082284Y0165349D01*
X0082396Y0165344D01*
X0082507Y0165335D01*
X0082618Y0165322D01*
X0082729Y0165305D01*
X0082839Y0165285D01*
X0082948Y0165260D01*
X0083056Y0165232D01*
X0083163Y0165199D01*
X0083269Y0165163D01*
X0083373Y0165123D01*
X0083476Y0165080D01*
X0083578Y0165033D01*
X0083677Y0164982D01*
X0083775Y0164928D01*
X0083871Y0164870D01*
X0083965Y0164809D01*
X0084056Y0164745D01*
X0084145Y0164678D01*
X0084232Y0164607D01*
X0084316Y0164533D01*
X0084398Y0164457D01*
X0084476Y0164377D01*
X0084552Y0164295D01*
X0084625Y0164210D01*
X0084695Y0164123D01*
X0084761Y0164033D01*
X0084825Y0163941D01*
X0084885Y0163847D01*
X0084942Y0163751D01*
X0084995Y0163652D01*
X0085045Y0163552D01*
X0085091Y0163451D01*
X0085134Y0163347D01*
X0085173Y0163242D01*
X0085208Y0163136D01*
X0085239Y0163029D01*
X0085267Y0162920D01*
X0085290Y0162811D01*
X0085310Y0162701D01*
X0085326Y0162590D01*
X0085338Y0162479D01*
X0085346Y0162368D01*
X0085350Y0162256D01*
X0085350Y0162144D01*
X0085346Y0162032D01*
X0085338Y0161921D01*
X0085326Y0161810D01*
X0085310Y0161699D01*
X0085290Y0161589D01*
X0085267Y0161480D01*
X0085239Y0161371D01*
X0085208Y0161264D01*
X0085173Y0161158D01*
X0085134Y0161053D01*
X0085091Y0160949D01*
X0085045Y0160848D01*
X0084995Y0160748D01*
X0084942Y0160649D01*
X0084885Y0160553D01*
X0084825Y0160459D01*
X0084761Y0160367D01*
X0084695Y0160277D01*
X0084625Y0160190D01*
X0084552Y0160105D01*
X0084476Y0160023D01*
X0084398Y0159943D01*
X0084316Y0159867D01*
X0084232Y0159793D01*
X0084145Y0159722D01*
X0084056Y0159655D01*
X0083965Y0159591D01*
X0083871Y0159530D01*
X0083775Y0159472D01*
X0083677Y0159418D01*
X0083578Y0159367D01*
X0083476Y0159320D01*
X0083373Y0159277D01*
X0083269Y0159237D01*
X0083163Y0159201D01*
X0083056Y0159168D01*
X0082948Y0159140D01*
X0082839Y0159115D01*
X0082729Y0159095D01*
X0082618Y0159078D01*
X0082507Y0159065D01*
X0082396Y0159056D01*
X0082284Y0159051D01*
X0082172Y0159050D01*
X0082060Y0159053D01*
X0081949Y0159060D01*
X0081837Y0159071D01*
X0081727Y0159086D01*
X0081616Y0159105D01*
X0081507Y0159127D01*
X0081398Y0159154D01*
X0081291Y0159184D01*
X0081184Y0159218D01*
X0081079Y0159256D01*
X0080975Y0159298D01*
X0080873Y0159343D01*
X0080772Y0159392D01*
X0080674Y0159444D01*
X0080577Y0159500D01*
X0080482Y0159560D01*
X0080389Y0159622D01*
X0080299Y0159688D01*
X0080211Y0159757D01*
X0080126Y0159829D01*
X0080043Y0159905D01*
X0079963Y0159983D01*
X0079885Y0160063D01*
X0079811Y0160147D01*
X0079740Y0160233D01*
X0079671Y0160321D01*
X0079606Y0160412D01*
X0079545Y0160506D01*
X0079486Y0160601D01*
X0079431Y0160698D01*
X0079380Y0160797D01*
X0079332Y0160898D01*
X0079287Y0161001D01*
X0079246Y0161105D01*
X0079209Y0161211D01*
X0079176Y0161317D01*
X0079147Y0161425D01*
X0079121Y0161534D01*
X0079099Y0161644D01*
X0079082Y0161754D01*
X0079068Y0161865D01*
X0079058Y0161977D01*
X0079052Y0162088D01*
X0079050Y0162200D01*
X0079050Y0172200D02*
X0079052Y0172312D01*
X0079058Y0172423D01*
X0079068Y0172535D01*
X0079082Y0172646D01*
X0079099Y0172756D01*
X0079121Y0172866D01*
X0079147Y0172975D01*
X0079176Y0173083D01*
X0079209Y0173189D01*
X0079246Y0173295D01*
X0079287Y0173399D01*
X0079332Y0173502D01*
X0079380Y0173603D01*
X0079431Y0173702D01*
X0079486Y0173799D01*
X0079545Y0173894D01*
X0079606Y0173988D01*
X0079671Y0174079D01*
X0079740Y0174167D01*
X0079811Y0174253D01*
X0079885Y0174337D01*
X0079963Y0174417D01*
X0080043Y0174495D01*
X0080126Y0174571D01*
X0080211Y0174643D01*
X0080299Y0174712D01*
X0080389Y0174778D01*
X0080482Y0174840D01*
X0080577Y0174900D01*
X0080674Y0174956D01*
X0080772Y0175008D01*
X0080873Y0175057D01*
X0080975Y0175102D01*
X0081079Y0175144D01*
X0081184Y0175182D01*
X0081291Y0175216D01*
X0081398Y0175246D01*
X0081507Y0175273D01*
X0081616Y0175295D01*
X0081727Y0175314D01*
X0081837Y0175329D01*
X0081949Y0175340D01*
X0082060Y0175347D01*
X0082172Y0175350D01*
X0082284Y0175349D01*
X0082396Y0175344D01*
X0082507Y0175335D01*
X0082618Y0175322D01*
X0082729Y0175305D01*
X0082839Y0175285D01*
X0082948Y0175260D01*
X0083056Y0175232D01*
X0083163Y0175199D01*
X0083269Y0175163D01*
X0083373Y0175123D01*
X0083476Y0175080D01*
X0083578Y0175033D01*
X0083677Y0174982D01*
X0083775Y0174928D01*
X0083871Y0174870D01*
X0083965Y0174809D01*
X0084056Y0174745D01*
X0084145Y0174678D01*
X0084232Y0174607D01*
X0084316Y0174533D01*
X0084398Y0174457D01*
X0084476Y0174377D01*
X0084552Y0174295D01*
X0084625Y0174210D01*
X0084695Y0174123D01*
X0084761Y0174033D01*
X0084825Y0173941D01*
X0084885Y0173847D01*
X0084942Y0173751D01*
X0084995Y0173652D01*
X0085045Y0173552D01*
X0085091Y0173451D01*
X0085134Y0173347D01*
X0085173Y0173242D01*
X0085208Y0173136D01*
X0085239Y0173029D01*
X0085267Y0172920D01*
X0085290Y0172811D01*
X0085310Y0172701D01*
X0085326Y0172590D01*
X0085338Y0172479D01*
X0085346Y0172368D01*
X0085350Y0172256D01*
X0085350Y0172144D01*
X0085346Y0172032D01*
X0085338Y0171921D01*
X0085326Y0171810D01*
X0085310Y0171699D01*
X0085290Y0171589D01*
X0085267Y0171480D01*
X0085239Y0171371D01*
X0085208Y0171264D01*
X0085173Y0171158D01*
X0085134Y0171053D01*
X0085091Y0170949D01*
X0085045Y0170848D01*
X0084995Y0170748D01*
X0084942Y0170649D01*
X0084885Y0170553D01*
X0084825Y0170459D01*
X0084761Y0170367D01*
X0084695Y0170277D01*
X0084625Y0170190D01*
X0084552Y0170105D01*
X0084476Y0170023D01*
X0084398Y0169943D01*
X0084316Y0169867D01*
X0084232Y0169793D01*
X0084145Y0169722D01*
X0084056Y0169655D01*
X0083965Y0169591D01*
X0083871Y0169530D01*
X0083775Y0169472D01*
X0083677Y0169418D01*
X0083578Y0169367D01*
X0083476Y0169320D01*
X0083373Y0169277D01*
X0083269Y0169237D01*
X0083163Y0169201D01*
X0083056Y0169168D01*
X0082948Y0169140D01*
X0082839Y0169115D01*
X0082729Y0169095D01*
X0082618Y0169078D01*
X0082507Y0169065D01*
X0082396Y0169056D01*
X0082284Y0169051D01*
X0082172Y0169050D01*
X0082060Y0169053D01*
X0081949Y0169060D01*
X0081837Y0169071D01*
X0081727Y0169086D01*
X0081616Y0169105D01*
X0081507Y0169127D01*
X0081398Y0169154D01*
X0081291Y0169184D01*
X0081184Y0169218D01*
X0081079Y0169256D01*
X0080975Y0169298D01*
X0080873Y0169343D01*
X0080772Y0169392D01*
X0080674Y0169444D01*
X0080577Y0169500D01*
X0080482Y0169560D01*
X0080389Y0169622D01*
X0080299Y0169688D01*
X0080211Y0169757D01*
X0080126Y0169829D01*
X0080043Y0169905D01*
X0079963Y0169983D01*
X0079885Y0170063D01*
X0079811Y0170147D01*
X0079740Y0170233D01*
X0079671Y0170321D01*
X0079606Y0170412D01*
X0079545Y0170506D01*
X0079486Y0170601D01*
X0079431Y0170698D01*
X0079380Y0170797D01*
X0079332Y0170898D01*
X0079287Y0171001D01*
X0079246Y0171105D01*
X0079209Y0171211D01*
X0079176Y0171317D01*
X0079147Y0171425D01*
X0079121Y0171534D01*
X0079099Y0171644D01*
X0079082Y0171754D01*
X0079068Y0171865D01*
X0079058Y0171977D01*
X0079052Y0172088D01*
X0079050Y0172200D01*
X0079052Y0172312D01*
X0079058Y0172423D01*
X0079068Y0172535D01*
X0079082Y0172646D01*
X0079099Y0172756D01*
X0079121Y0172866D01*
X0079147Y0172975D01*
X0079176Y0173083D01*
X0079209Y0173189D01*
X0079246Y0173295D01*
X0079287Y0173399D01*
X0079332Y0173502D01*
X0079380Y0173603D01*
X0079431Y0173702D01*
X0079486Y0173799D01*
X0079545Y0173894D01*
X0079606Y0173988D01*
X0079671Y0174079D01*
X0079740Y0174167D01*
X0079811Y0174253D01*
X0079885Y0174337D01*
X0079963Y0174417D01*
X0080043Y0174495D01*
X0080126Y0174571D01*
X0080211Y0174643D01*
X0080299Y0174712D01*
X0080389Y0174778D01*
X0080482Y0174840D01*
X0080577Y0174900D01*
X0080674Y0174956D01*
X0080772Y0175008D01*
X0080873Y0175057D01*
X0080975Y0175102D01*
X0081079Y0175144D01*
X0081184Y0175182D01*
X0081291Y0175216D01*
X0081398Y0175246D01*
X0081507Y0175273D01*
X0081616Y0175295D01*
X0081727Y0175314D01*
X0081837Y0175329D01*
X0081949Y0175340D01*
X0082060Y0175347D01*
X0082172Y0175350D01*
X0082284Y0175349D01*
X0082396Y0175344D01*
X0082507Y0175335D01*
X0082618Y0175322D01*
X0082729Y0175305D01*
X0082839Y0175285D01*
X0082948Y0175260D01*
X0083056Y0175232D01*
X0083163Y0175199D01*
X0083269Y0175163D01*
X0083373Y0175123D01*
X0083476Y0175080D01*
X0083578Y0175033D01*
X0083677Y0174982D01*
X0083775Y0174928D01*
X0083871Y0174870D01*
X0083965Y0174809D01*
X0084056Y0174745D01*
X0084145Y0174678D01*
X0084232Y0174607D01*
X0084316Y0174533D01*
X0084398Y0174457D01*
X0084476Y0174377D01*
X0084552Y0174295D01*
X0084625Y0174210D01*
X0084695Y0174123D01*
X0084761Y0174033D01*
X0084825Y0173941D01*
X0084885Y0173847D01*
X0084942Y0173751D01*
X0084995Y0173652D01*
X0085045Y0173552D01*
X0085091Y0173451D01*
X0085134Y0173347D01*
X0085173Y0173242D01*
X0085208Y0173136D01*
X0085239Y0173029D01*
X0085267Y0172920D01*
X0085290Y0172811D01*
X0085310Y0172701D01*
X0085326Y0172590D01*
X0085338Y0172479D01*
X0085346Y0172368D01*
X0085350Y0172256D01*
X0085350Y0172144D01*
X0085346Y0172032D01*
X0085338Y0171921D01*
X0085326Y0171810D01*
X0085310Y0171699D01*
X0085290Y0171589D01*
X0085267Y0171480D01*
X0085239Y0171371D01*
X0085208Y0171264D01*
X0085173Y0171158D01*
X0085134Y0171053D01*
X0085091Y0170949D01*
X0085045Y0170848D01*
X0084995Y0170748D01*
X0084942Y0170649D01*
X0084885Y0170553D01*
X0084825Y0170459D01*
X0084761Y0170367D01*
X0084695Y0170277D01*
X0084625Y0170190D01*
X0084552Y0170105D01*
X0084476Y0170023D01*
X0084398Y0169943D01*
X0084316Y0169867D01*
X0084232Y0169793D01*
X0084145Y0169722D01*
X0084056Y0169655D01*
X0083965Y0169591D01*
X0083871Y0169530D01*
X0083775Y0169472D01*
X0083677Y0169418D01*
X0083578Y0169367D01*
X0083476Y0169320D01*
X0083373Y0169277D01*
X0083269Y0169237D01*
X0083163Y0169201D01*
X0083056Y0169168D01*
X0082948Y0169140D01*
X0082839Y0169115D01*
X0082729Y0169095D01*
X0082618Y0169078D01*
X0082507Y0169065D01*
X0082396Y0169056D01*
X0082284Y0169051D01*
X0082172Y0169050D01*
X0082060Y0169053D01*
X0081949Y0169060D01*
X0081837Y0169071D01*
X0081727Y0169086D01*
X0081616Y0169105D01*
X0081507Y0169127D01*
X0081398Y0169154D01*
X0081291Y0169184D01*
X0081184Y0169218D01*
X0081079Y0169256D01*
X0080975Y0169298D01*
X0080873Y0169343D01*
X0080772Y0169392D01*
X0080674Y0169444D01*
X0080577Y0169500D01*
X0080482Y0169560D01*
X0080389Y0169622D01*
X0080299Y0169688D01*
X0080211Y0169757D01*
X0080126Y0169829D01*
X0080043Y0169905D01*
X0079963Y0169983D01*
X0079885Y0170063D01*
X0079811Y0170147D01*
X0079740Y0170233D01*
X0079671Y0170321D01*
X0079606Y0170412D01*
X0079545Y0170506D01*
X0079486Y0170601D01*
X0079431Y0170698D01*
X0079380Y0170797D01*
X0079332Y0170898D01*
X0079287Y0171001D01*
X0079246Y0171105D01*
X0079209Y0171211D01*
X0079176Y0171317D01*
X0079147Y0171425D01*
X0079121Y0171534D01*
X0079099Y0171644D01*
X0079082Y0171754D01*
X0079068Y0171865D01*
X0079058Y0171977D01*
X0079052Y0172088D01*
X0079050Y0172200D01*
X0089050Y0172200D02*
X0089052Y0172312D01*
X0089058Y0172423D01*
X0089068Y0172535D01*
X0089082Y0172646D01*
X0089099Y0172756D01*
X0089121Y0172866D01*
X0089147Y0172975D01*
X0089176Y0173083D01*
X0089209Y0173189D01*
X0089246Y0173295D01*
X0089287Y0173399D01*
X0089332Y0173502D01*
X0089380Y0173603D01*
X0089431Y0173702D01*
X0089486Y0173799D01*
X0089545Y0173894D01*
X0089606Y0173988D01*
X0089671Y0174079D01*
X0089740Y0174167D01*
X0089811Y0174253D01*
X0089885Y0174337D01*
X0089963Y0174417D01*
X0090043Y0174495D01*
X0090126Y0174571D01*
X0090211Y0174643D01*
X0090299Y0174712D01*
X0090389Y0174778D01*
X0090482Y0174840D01*
X0090577Y0174900D01*
X0090674Y0174956D01*
X0090772Y0175008D01*
X0090873Y0175057D01*
X0090975Y0175102D01*
X0091079Y0175144D01*
X0091184Y0175182D01*
X0091291Y0175216D01*
X0091398Y0175246D01*
X0091507Y0175273D01*
X0091616Y0175295D01*
X0091727Y0175314D01*
X0091837Y0175329D01*
X0091949Y0175340D01*
X0092060Y0175347D01*
X0092172Y0175350D01*
X0092284Y0175349D01*
X0092396Y0175344D01*
X0092507Y0175335D01*
X0092618Y0175322D01*
X0092729Y0175305D01*
X0092839Y0175285D01*
X0092948Y0175260D01*
X0093056Y0175232D01*
X0093163Y0175199D01*
X0093269Y0175163D01*
X0093373Y0175123D01*
X0093476Y0175080D01*
X0093578Y0175033D01*
X0093677Y0174982D01*
X0093775Y0174928D01*
X0093871Y0174870D01*
X0093965Y0174809D01*
X0094056Y0174745D01*
X0094145Y0174678D01*
X0094232Y0174607D01*
X0094316Y0174533D01*
X0094398Y0174457D01*
X0094476Y0174377D01*
X0094552Y0174295D01*
X0094625Y0174210D01*
X0094695Y0174123D01*
X0094761Y0174033D01*
X0094825Y0173941D01*
X0094885Y0173847D01*
X0094942Y0173751D01*
X0094995Y0173652D01*
X0095045Y0173552D01*
X0095091Y0173451D01*
X0095134Y0173347D01*
X0095173Y0173242D01*
X0095208Y0173136D01*
X0095239Y0173029D01*
X0095267Y0172920D01*
X0095290Y0172811D01*
X0095310Y0172701D01*
X0095326Y0172590D01*
X0095338Y0172479D01*
X0095346Y0172368D01*
X0095350Y0172256D01*
X0095350Y0172144D01*
X0095346Y0172032D01*
X0095338Y0171921D01*
X0095326Y0171810D01*
X0095310Y0171699D01*
X0095290Y0171589D01*
X0095267Y0171480D01*
X0095239Y0171371D01*
X0095208Y0171264D01*
X0095173Y0171158D01*
X0095134Y0171053D01*
X0095091Y0170949D01*
X0095045Y0170848D01*
X0094995Y0170748D01*
X0094942Y0170649D01*
X0094885Y0170553D01*
X0094825Y0170459D01*
X0094761Y0170367D01*
X0094695Y0170277D01*
X0094625Y0170190D01*
X0094552Y0170105D01*
X0094476Y0170023D01*
X0094398Y0169943D01*
X0094316Y0169867D01*
X0094232Y0169793D01*
X0094145Y0169722D01*
X0094056Y0169655D01*
X0093965Y0169591D01*
X0093871Y0169530D01*
X0093775Y0169472D01*
X0093677Y0169418D01*
X0093578Y0169367D01*
X0093476Y0169320D01*
X0093373Y0169277D01*
X0093269Y0169237D01*
X0093163Y0169201D01*
X0093056Y0169168D01*
X0092948Y0169140D01*
X0092839Y0169115D01*
X0092729Y0169095D01*
X0092618Y0169078D01*
X0092507Y0169065D01*
X0092396Y0169056D01*
X0092284Y0169051D01*
X0092172Y0169050D01*
X0092060Y0169053D01*
X0091949Y0169060D01*
X0091837Y0169071D01*
X0091727Y0169086D01*
X0091616Y0169105D01*
X0091507Y0169127D01*
X0091398Y0169154D01*
X0091291Y0169184D01*
X0091184Y0169218D01*
X0091079Y0169256D01*
X0090975Y0169298D01*
X0090873Y0169343D01*
X0090772Y0169392D01*
X0090674Y0169444D01*
X0090577Y0169500D01*
X0090482Y0169560D01*
X0090389Y0169622D01*
X0090299Y0169688D01*
X0090211Y0169757D01*
X0090126Y0169829D01*
X0090043Y0169905D01*
X0089963Y0169983D01*
X0089885Y0170063D01*
X0089811Y0170147D01*
X0089740Y0170233D01*
X0089671Y0170321D01*
X0089606Y0170412D01*
X0089545Y0170506D01*
X0089486Y0170601D01*
X0089431Y0170698D01*
X0089380Y0170797D01*
X0089332Y0170898D01*
X0089287Y0171001D01*
X0089246Y0171105D01*
X0089209Y0171211D01*
X0089176Y0171317D01*
X0089147Y0171425D01*
X0089121Y0171534D01*
X0089099Y0171644D01*
X0089082Y0171754D01*
X0089068Y0171865D01*
X0089058Y0171977D01*
X0089052Y0172088D01*
X0089050Y0172200D01*
X0089050Y0162200D02*
X0089052Y0162312D01*
X0089058Y0162423D01*
X0089068Y0162535D01*
X0089082Y0162646D01*
X0089099Y0162756D01*
X0089121Y0162866D01*
X0089147Y0162975D01*
X0089176Y0163083D01*
X0089209Y0163189D01*
X0089246Y0163295D01*
X0089287Y0163399D01*
X0089332Y0163502D01*
X0089380Y0163603D01*
X0089431Y0163702D01*
X0089486Y0163799D01*
X0089545Y0163894D01*
X0089606Y0163988D01*
X0089671Y0164079D01*
X0089740Y0164167D01*
X0089811Y0164253D01*
X0089885Y0164337D01*
X0089963Y0164417D01*
X0090043Y0164495D01*
X0090126Y0164571D01*
X0090211Y0164643D01*
X0090299Y0164712D01*
X0090389Y0164778D01*
X0090482Y0164840D01*
X0090577Y0164900D01*
X0090674Y0164956D01*
X0090772Y0165008D01*
X0090873Y0165057D01*
X0090975Y0165102D01*
X0091079Y0165144D01*
X0091184Y0165182D01*
X0091291Y0165216D01*
X0091398Y0165246D01*
X0091507Y0165273D01*
X0091616Y0165295D01*
X0091727Y0165314D01*
X0091837Y0165329D01*
X0091949Y0165340D01*
X0092060Y0165347D01*
X0092172Y0165350D01*
X0092284Y0165349D01*
X0092396Y0165344D01*
X0092507Y0165335D01*
X0092618Y0165322D01*
X0092729Y0165305D01*
X0092839Y0165285D01*
X0092948Y0165260D01*
X0093056Y0165232D01*
X0093163Y0165199D01*
X0093269Y0165163D01*
X0093373Y0165123D01*
X0093476Y0165080D01*
X0093578Y0165033D01*
X0093677Y0164982D01*
X0093775Y0164928D01*
X0093871Y0164870D01*
X0093965Y0164809D01*
X0094056Y0164745D01*
X0094145Y0164678D01*
X0094232Y0164607D01*
X0094316Y0164533D01*
X0094398Y0164457D01*
X0094476Y0164377D01*
X0094552Y0164295D01*
X0094625Y0164210D01*
X0094695Y0164123D01*
X0094761Y0164033D01*
X0094825Y0163941D01*
X0094885Y0163847D01*
X0094942Y0163751D01*
X0094995Y0163652D01*
X0095045Y0163552D01*
X0095091Y0163451D01*
X0095134Y0163347D01*
X0095173Y0163242D01*
X0095208Y0163136D01*
X0095239Y0163029D01*
X0095267Y0162920D01*
X0095290Y0162811D01*
X0095310Y0162701D01*
X0095326Y0162590D01*
X0095338Y0162479D01*
X0095346Y0162368D01*
X0095350Y0162256D01*
X0095350Y0162144D01*
X0095346Y0162032D01*
X0095338Y0161921D01*
X0095326Y0161810D01*
X0095310Y0161699D01*
X0095290Y0161589D01*
X0095267Y0161480D01*
X0095239Y0161371D01*
X0095208Y0161264D01*
X0095173Y0161158D01*
X0095134Y0161053D01*
X0095091Y0160949D01*
X0095045Y0160848D01*
X0094995Y0160748D01*
X0094942Y0160649D01*
X0094885Y0160553D01*
X0094825Y0160459D01*
X0094761Y0160367D01*
X0094695Y0160277D01*
X0094625Y0160190D01*
X0094552Y0160105D01*
X0094476Y0160023D01*
X0094398Y0159943D01*
X0094316Y0159867D01*
X0094232Y0159793D01*
X0094145Y0159722D01*
X0094056Y0159655D01*
X0093965Y0159591D01*
X0093871Y0159530D01*
X0093775Y0159472D01*
X0093677Y0159418D01*
X0093578Y0159367D01*
X0093476Y0159320D01*
X0093373Y0159277D01*
X0093269Y0159237D01*
X0093163Y0159201D01*
X0093056Y0159168D01*
X0092948Y0159140D01*
X0092839Y0159115D01*
X0092729Y0159095D01*
X0092618Y0159078D01*
X0092507Y0159065D01*
X0092396Y0159056D01*
X0092284Y0159051D01*
X0092172Y0159050D01*
X0092060Y0159053D01*
X0091949Y0159060D01*
X0091837Y0159071D01*
X0091727Y0159086D01*
X0091616Y0159105D01*
X0091507Y0159127D01*
X0091398Y0159154D01*
X0091291Y0159184D01*
X0091184Y0159218D01*
X0091079Y0159256D01*
X0090975Y0159298D01*
X0090873Y0159343D01*
X0090772Y0159392D01*
X0090674Y0159444D01*
X0090577Y0159500D01*
X0090482Y0159560D01*
X0090389Y0159622D01*
X0090299Y0159688D01*
X0090211Y0159757D01*
X0090126Y0159829D01*
X0090043Y0159905D01*
X0089963Y0159983D01*
X0089885Y0160063D01*
X0089811Y0160147D01*
X0089740Y0160233D01*
X0089671Y0160321D01*
X0089606Y0160412D01*
X0089545Y0160506D01*
X0089486Y0160601D01*
X0089431Y0160698D01*
X0089380Y0160797D01*
X0089332Y0160898D01*
X0089287Y0161001D01*
X0089246Y0161105D01*
X0089209Y0161211D01*
X0089176Y0161317D01*
X0089147Y0161425D01*
X0089121Y0161534D01*
X0089099Y0161644D01*
X0089082Y0161754D01*
X0089068Y0161865D01*
X0089058Y0161977D01*
X0089052Y0162088D01*
X0089050Y0162200D01*
X0075129Y0102200D02*
X0075131Y0102374D01*
X0075138Y0102547D01*
X0075148Y0102720D01*
X0075163Y0102893D01*
X0075182Y0103066D01*
X0075206Y0103238D01*
X0075233Y0103409D01*
X0075265Y0103579D01*
X0075301Y0103749D01*
X0075341Y0103918D01*
X0075385Y0104086D01*
X0075433Y0104253D01*
X0075486Y0104418D01*
X0075542Y0104582D01*
X0075603Y0104745D01*
X0075667Y0104906D01*
X0075736Y0105065D01*
X0075808Y0105223D01*
X0075884Y0105379D01*
X0075964Y0105533D01*
X0076048Y0105685D01*
X0076135Y0105835D01*
X0076226Y0105983D01*
X0076321Y0106128D01*
X0076419Y0106272D01*
X0076521Y0106412D01*
X0076626Y0106550D01*
X0076734Y0106686D01*
X0076846Y0106819D01*
X0076961Y0106949D01*
X0077079Y0107076D01*
X0077200Y0107200D01*
X0077324Y0107321D01*
X0077451Y0107439D01*
X0077581Y0107554D01*
X0077714Y0107666D01*
X0077850Y0107774D01*
X0077988Y0107879D01*
X0078128Y0107981D01*
X0078272Y0108079D01*
X0078417Y0108174D01*
X0078565Y0108265D01*
X0078715Y0108352D01*
X0078867Y0108436D01*
X0079021Y0108516D01*
X0079177Y0108592D01*
X0079335Y0108664D01*
X0079494Y0108733D01*
X0079655Y0108797D01*
X0079818Y0108858D01*
X0079982Y0108914D01*
X0080147Y0108967D01*
X0080314Y0109015D01*
X0080482Y0109059D01*
X0080651Y0109099D01*
X0080821Y0109135D01*
X0080991Y0109167D01*
X0081162Y0109194D01*
X0081334Y0109218D01*
X0081507Y0109237D01*
X0081680Y0109252D01*
X0081853Y0109262D01*
X0082026Y0109269D01*
X0082200Y0109271D01*
X0082374Y0109269D01*
X0082547Y0109262D01*
X0082720Y0109252D01*
X0082893Y0109237D01*
X0083066Y0109218D01*
X0083238Y0109194D01*
X0083409Y0109167D01*
X0083579Y0109135D01*
X0083749Y0109099D01*
X0083918Y0109059D01*
X0084086Y0109015D01*
X0084253Y0108967D01*
X0084418Y0108914D01*
X0084582Y0108858D01*
X0084745Y0108797D01*
X0084906Y0108733D01*
X0085065Y0108664D01*
X0085223Y0108592D01*
X0085379Y0108516D01*
X0085533Y0108436D01*
X0085685Y0108352D01*
X0085835Y0108265D01*
X0085983Y0108174D01*
X0086128Y0108079D01*
X0086272Y0107981D01*
X0086412Y0107879D01*
X0086550Y0107774D01*
X0086686Y0107666D01*
X0086819Y0107554D01*
X0086949Y0107439D01*
X0087076Y0107321D01*
X0087200Y0107200D01*
X0087321Y0107076D01*
X0087439Y0106949D01*
X0087554Y0106819D01*
X0087666Y0106686D01*
X0087774Y0106550D01*
X0087879Y0106412D01*
X0087981Y0106272D01*
X0088079Y0106128D01*
X0088174Y0105983D01*
X0088265Y0105835D01*
X0088352Y0105685D01*
X0088436Y0105533D01*
X0088516Y0105379D01*
X0088592Y0105223D01*
X0088664Y0105065D01*
X0088733Y0104906D01*
X0088797Y0104745D01*
X0088858Y0104582D01*
X0088914Y0104418D01*
X0088967Y0104253D01*
X0089015Y0104086D01*
X0089059Y0103918D01*
X0089099Y0103749D01*
X0089135Y0103579D01*
X0089167Y0103409D01*
X0089194Y0103238D01*
X0089218Y0103066D01*
X0089237Y0102893D01*
X0089252Y0102720D01*
X0089262Y0102547D01*
X0089269Y0102374D01*
X0089271Y0102200D01*
X0089269Y0102026D01*
X0089262Y0101853D01*
X0089252Y0101680D01*
X0089237Y0101507D01*
X0089218Y0101334D01*
X0089194Y0101162D01*
X0089167Y0100991D01*
X0089135Y0100821D01*
X0089099Y0100651D01*
X0089059Y0100482D01*
X0089015Y0100314D01*
X0088967Y0100147D01*
X0088914Y0099982D01*
X0088858Y0099818D01*
X0088797Y0099655D01*
X0088733Y0099494D01*
X0088664Y0099335D01*
X0088592Y0099177D01*
X0088516Y0099021D01*
X0088436Y0098867D01*
X0088352Y0098715D01*
X0088265Y0098565D01*
X0088174Y0098417D01*
X0088079Y0098272D01*
X0087981Y0098128D01*
X0087879Y0097988D01*
X0087774Y0097850D01*
X0087666Y0097714D01*
X0087554Y0097581D01*
X0087439Y0097451D01*
X0087321Y0097324D01*
X0087200Y0097200D01*
X0087076Y0097079D01*
X0086949Y0096961D01*
X0086819Y0096846D01*
X0086686Y0096734D01*
X0086550Y0096626D01*
X0086412Y0096521D01*
X0086272Y0096419D01*
X0086128Y0096321D01*
X0085983Y0096226D01*
X0085835Y0096135D01*
X0085685Y0096048D01*
X0085533Y0095964D01*
X0085379Y0095884D01*
X0085223Y0095808D01*
X0085065Y0095736D01*
X0084906Y0095667D01*
X0084745Y0095603D01*
X0084582Y0095542D01*
X0084418Y0095486D01*
X0084253Y0095433D01*
X0084086Y0095385D01*
X0083918Y0095341D01*
X0083749Y0095301D01*
X0083579Y0095265D01*
X0083409Y0095233D01*
X0083238Y0095206D01*
X0083066Y0095182D01*
X0082893Y0095163D01*
X0082720Y0095148D01*
X0082547Y0095138D01*
X0082374Y0095131D01*
X0082200Y0095129D01*
X0082026Y0095131D01*
X0081853Y0095138D01*
X0081680Y0095148D01*
X0081507Y0095163D01*
X0081334Y0095182D01*
X0081162Y0095206D01*
X0080991Y0095233D01*
X0080821Y0095265D01*
X0080651Y0095301D01*
X0080482Y0095341D01*
X0080314Y0095385D01*
X0080147Y0095433D01*
X0079982Y0095486D01*
X0079818Y0095542D01*
X0079655Y0095603D01*
X0079494Y0095667D01*
X0079335Y0095736D01*
X0079177Y0095808D01*
X0079021Y0095884D01*
X0078867Y0095964D01*
X0078715Y0096048D01*
X0078565Y0096135D01*
X0078417Y0096226D01*
X0078272Y0096321D01*
X0078128Y0096419D01*
X0077988Y0096521D01*
X0077850Y0096626D01*
X0077714Y0096734D01*
X0077581Y0096846D01*
X0077451Y0096961D01*
X0077324Y0097079D01*
X0077200Y0097200D01*
X0077079Y0097324D01*
X0076961Y0097451D01*
X0076846Y0097581D01*
X0076734Y0097714D01*
X0076626Y0097850D01*
X0076521Y0097988D01*
X0076419Y0098128D01*
X0076321Y0098272D01*
X0076226Y0098417D01*
X0076135Y0098565D01*
X0076048Y0098715D01*
X0075964Y0098867D01*
X0075884Y0099021D01*
X0075808Y0099177D01*
X0075736Y0099335D01*
X0075667Y0099494D01*
X0075603Y0099655D01*
X0075542Y0099818D01*
X0075486Y0099982D01*
X0075433Y0100147D01*
X0075385Y0100314D01*
X0075341Y0100482D01*
X0075301Y0100651D01*
X0075265Y0100821D01*
X0075233Y0100991D01*
X0075206Y0101162D01*
X0075182Y0101334D01*
X0075163Y0101507D01*
X0075148Y0101680D01*
X0075138Y0101853D01*
X0075131Y0102026D01*
X0075129Y0102200D01*
D12*
X0076015Y0114150D02*
X0076015Y0117050D01*
X0076820Y0117050D01*
X0076875Y0117048D01*
X0076930Y0117042D01*
X0076984Y0117033D01*
X0077037Y0117020D01*
X0077090Y0117003D01*
X0077141Y0116983D01*
X0077191Y0116960D01*
X0077239Y0116933D01*
X0077285Y0116902D01*
X0077329Y0116869D01*
X0077370Y0116833D01*
X0077409Y0116794D01*
X0077445Y0116753D01*
X0077478Y0116709D01*
X0077509Y0116663D01*
X0077536Y0116615D01*
X0077559Y0116565D01*
X0077579Y0116514D01*
X0077596Y0116461D01*
X0077609Y0116408D01*
X0077618Y0116354D01*
X0077624Y0116299D01*
X0077626Y0116244D01*
X0077624Y0116189D01*
X0077618Y0116134D01*
X0077609Y0116080D01*
X0077596Y0116027D01*
X0077579Y0115974D01*
X0077559Y0115923D01*
X0077536Y0115873D01*
X0077509Y0115825D01*
X0077478Y0115779D01*
X0077445Y0115735D01*
X0077409Y0115694D01*
X0077370Y0115655D01*
X0077329Y0115619D01*
X0077285Y0115586D01*
X0077239Y0115555D01*
X0077191Y0115528D01*
X0077141Y0115505D01*
X0077090Y0115485D01*
X0077037Y0115468D01*
X0076984Y0115455D01*
X0076930Y0115446D01*
X0076875Y0115440D01*
X0076820Y0115438D01*
X0076820Y0115439D02*
X0076015Y0115439D01*
X0076981Y0115439D02*
X0077626Y0114150D01*
X0078844Y0114633D02*
X0078844Y0115439D01*
X0078844Y0115117D02*
X0080132Y0115117D01*
X0080132Y0115439D01*
X0080130Y0115488D01*
X0080124Y0115537D01*
X0080115Y0115586D01*
X0080102Y0115633D01*
X0080085Y0115680D01*
X0080065Y0115725D01*
X0080042Y0115768D01*
X0080015Y0115810D01*
X0079985Y0115849D01*
X0079952Y0115886D01*
X0079916Y0115920D01*
X0079878Y0115951D01*
X0079838Y0115980D01*
X0079796Y0116005D01*
X0079751Y0116027D01*
X0079706Y0116045D01*
X0079659Y0116060D01*
X0079611Y0116071D01*
X0079562Y0116079D01*
X0079513Y0116083D01*
X0079463Y0116083D01*
X0079414Y0116079D01*
X0079365Y0116071D01*
X0079317Y0116060D01*
X0079270Y0116045D01*
X0079225Y0116027D01*
X0079180Y0116005D01*
X0079138Y0115980D01*
X0079098Y0115951D01*
X0079060Y0115920D01*
X0079024Y0115886D01*
X0078991Y0115849D01*
X0078961Y0115810D01*
X0078934Y0115768D01*
X0078911Y0115725D01*
X0078891Y0115680D01*
X0078874Y0115633D01*
X0078861Y0115586D01*
X0078852Y0115537D01*
X0078846Y0115488D01*
X0078844Y0115439D01*
X0078844Y0114633D02*
X0078846Y0114591D01*
X0078851Y0114549D01*
X0078860Y0114508D01*
X0078873Y0114468D01*
X0078889Y0114429D01*
X0078909Y0114392D01*
X0078931Y0114356D01*
X0078957Y0114323D01*
X0078985Y0114291D01*
X0079017Y0114263D01*
X0079050Y0114237D01*
X0079086Y0114215D01*
X0079123Y0114195D01*
X0079162Y0114179D01*
X0079202Y0114166D01*
X0079243Y0114157D01*
X0079285Y0114152D01*
X0079327Y0114150D01*
X0080132Y0114150D01*
X0081742Y0116084D02*
X0081825Y0116081D01*
X0081908Y0116074D01*
X0081990Y0116063D01*
X0082072Y0116049D01*
X0082153Y0116031D01*
X0082234Y0116009D01*
X0082313Y0115984D01*
X0082391Y0115955D01*
X0082467Y0115923D01*
X0081742Y0116084D02*
X0081702Y0116083D01*
X0081662Y0116077D01*
X0081623Y0116069D01*
X0081585Y0116056D01*
X0081549Y0116040D01*
X0081514Y0116020D01*
X0081481Y0115997D01*
X0081451Y0115971D01*
X0081423Y0115943D01*
X0081398Y0115912D01*
X0081376Y0115878D01*
X0081357Y0115843D01*
X0081342Y0115806D01*
X0081331Y0115767D01*
X0081323Y0115728D01*
X0081319Y0115688D01*
X0081318Y0115649D01*
X0081322Y0115609D01*
X0081329Y0115569D01*
X0081340Y0115531D01*
X0081355Y0115494D01*
X0081373Y0115458D01*
X0081395Y0115424D01*
X0081419Y0115393D01*
X0081447Y0115364D01*
X0081477Y0115338D01*
X0081510Y0115315D01*
X0081544Y0115295D01*
X0081581Y0115278D01*
X0082387Y0114956D01*
X0082424Y0114939D01*
X0082458Y0114919D01*
X0082491Y0114896D01*
X0082521Y0114870D01*
X0082549Y0114841D01*
X0082573Y0114810D01*
X0082595Y0114776D01*
X0082613Y0114740D01*
X0082628Y0114703D01*
X0082639Y0114665D01*
X0082646Y0114625D01*
X0082650Y0114585D01*
X0082649Y0114546D01*
X0082645Y0114506D01*
X0082637Y0114467D01*
X0082626Y0114428D01*
X0082611Y0114391D01*
X0082592Y0114356D01*
X0082570Y0114322D01*
X0082545Y0114291D01*
X0082517Y0114263D01*
X0082487Y0114237D01*
X0082454Y0114214D01*
X0082419Y0114194D01*
X0082383Y0114178D01*
X0082345Y0114165D01*
X0082306Y0114157D01*
X0082266Y0114151D01*
X0082226Y0114150D01*
X0083836Y0114633D02*
X0083836Y0115439D01*
X0083836Y0115117D02*
X0085124Y0115117D01*
X0085124Y0115439D01*
X0085122Y0115488D01*
X0085116Y0115537D01*
X0085107Y0115586D01*
X0085094Y0115633D01*
X0085077Y0115680D01*
X0085057Y0115725D01*
X0085034Y0115768D01*
X0085007Y0115810D01*
X0084977Y0115849D01*
X0084944Y0115886D01*
X0084908Y0115920D01*
X0084870Y0115951D01*
X0084830Y0115980D01*
X0084788Y0116005D01*
X0084743Y0116027D01*
X0084698Y0116045D01*
X0084651Y0116060D01*
X0084603Y0116071D01*
X0084554Y0116079D01*
X0084505Y0116083D01*
X0084455Y0116083D01*
X0084406Y0116079D01*
X0084357Y0116071D01*
X0084309Y0116060D01*
X0084262Y0116045D01*
X0084217Y0116027D01*
X0084172Y0116005D01*
X0084130Y0115980D01*
X0084090Y0115951D01*
X0084052Y0115920D01*
X0084016Y0115886D01*
X0083983Y0115849D01*
X0083953Y0115810D01*
X0083926Y0115768D01*
X0083903Y0115725D01*
X0083883Y0115680D01*
X0083866Y0115633D01*
X0083853Y0115586D01*
X0083844Y0115537D01*
X0083838Y0115488D01*
X0083836Y0115439D01*
X0083836Y0114633D02*
X0083838Y0114591D01*
X0083843Y0114549D01*
X0083852Y0114508D01*
X0083865Y0114468D01*
X0083881Y0114429D01*
X0083901Y0114392D01*
X0083923Y0114356D01*
X0083949Y0114323D01*
X0083977Y0114291D01*
X0084009Y0114263D01*
X0084042Y0114237D01*
X0084078Y0114215D01*
X0084115Y0114195D01*
X0084154Y0114179D01*
X0084194Y0114166D01*
X0084235Y0114157D01*
X0084277Y0114152D01*
X0084319Y0114150D01*
X0085124Y0114150D01*
X0086406Y0114633D02*
X0086406Y0117050D01*
X0086083Y0116083D02*
X0087050Y0116083D01*
X0086406Y0114633D02*
X0086408Y0114591D01*
X0086413Y0114549D01*
X0086422Y0114508D01*
X0086435Y0114468D01*
X0086451Y0114429D01*
X0086471Y0114392D01*
X0086493Y0114356D01*
X0086519Y0114323D01*
X0086547Y0114291D01*
X0086579Y0114263D01*
X0086612Y0114237D01*
X0086648Y0114215D01*
X0086685Y0114195D01*
X0086724Y0114179D01*
X0086764Y0114166D01*
X0086805Y0114157D01*
X0086847Y0114152D01*
X0086889Y0114150D01*
X0087050Y0114150D01*
X0082226Y0114150D02*
X0082126Y0114154D01*
X0082025Y0114161D01*
X0081925Y0114171D01*
X0081826Y0114186D01*
X0081727Y0114204D01*
X0081629Y0114225D01*
X0081531Y0114250D01*
X0081435Y0114279D01*
X0081340Y0114311D01*
X0080450Y0152350D02*
X0079806Y0152350D01*
X0079758Y0152352D01*
X0079710Y0152357D01*
X0079663Y0152366D01*
X0079616Y0152379D01*
X0079571Y0152395D01*
X0079527Y0152414D01*
X0079484Y0152436D01*
X0079443Y0152462D01*
X0079404Y0152491D01*
X0079368Y0152522D01*
X0079334Y0152556D01*
X0079303Y0152592D01*
X0079274Y0152631D01*
X0079248Y0152672D01*
X0079226Y0152715D01*
X0079207Y0152759D01*
X0079191Y0152804D01*
X0079178Y0152851D01*
X0079169Y0152898D01*
X0079164Y0152946D01*
X0079162Y0152994D01*
X0079162Y0154606D01*
X0079164Y0154657D01*
X0079170Y0154707D01*
X0079180Y0154756D01*
X0079194Y0154805D01*
X0079211Y0154852D01*
X0079232Y0154898D01*
X0079257Y0154942D01*
X0079285Y0154985D01*
X0079316Y0155024D01*
X0079351Y0155061D01*
X0079388Y0155096D01*
X0079427Y0155127D01*
X0079470Y0155155D01*
X0079514Y0155180D01*
X0079560Y0155201D01*
X0079607Y0155218D01*
X0079656Y0155232D01*
X0079705Y0155242D01*
X0079755Y0155248D01*
X0079806Y0155250D01*
X0080450Y0155250D01*
X0081556Y0154606D02*
X0081558Y0154654D01*
X0081563Y0154702D01*
X0081572Y0154749D01*
X0081585Y0154796D01*
X0081601Y0154841D01*
X0081620Y0154885D01*
X0081642Y0154928D01*
X0081668Y0154969D01*
X0081697Y0155008D01*
X0081728Y0155044D01*
X0081762Y0155078D01*
X0081798Y0155110D01*
X0081837Y0155138D01*
X0081878Y0155164D01*
X0081921Y0155186D01*
X0081965Y0155205D01*
X0082010Y0155221D01*
X0082057Y0155234D01*
X0082104Y0155243D01*
X0082152Y0155248D01*
X0082200Y0155250D01*
X0081555Y0154606D02*
X0081557Y0154557D01*
X0081562Y0154509D01*
X0081571Y0154461D01*
X0081584Y0154415D01*
X0081600Y0154369D01*
X0081619Y0154324D01*
X0081641Y0154281D01*
X0081667Y0154240D01*
X0081696Y0154201D01*
X0081727Y0154164D01*
X0081761Y0154129D01*
X0081798Y0154097D01*
X0081837Y0154068D01*
X0081877Y0154042D01*
X0082764Y0153558D01*
X0082441Y0152350D02*
X0082369Y0152352D01*
X0082298Y0152358D01*
X0082227Y0152367D01*
X0082157Y0152380D01*
X0082087Y0152397D01*
X0082018Y0152417D01*
X0081951Y0152441D01*
X0081885Y0152469D01*
X0081820Y0152500D01*
X0081757Y0152534D01*
X0081696Y0152572D01*
X0081637Y0152613D01*
X0081581Y0152656D01*
X0081526Y0152703D01*
X0081475Y0152753D01*
X0082764Y0153558D02*
X0082804Y0153532D01*
X0082843Y0153503D01*
X0082880Y0153471D01*
X0082914Y0153436D01*
X0082945Y0153399D01*
X0082974Y0153360D01*
X0083000Y0153319D01*
X0083022Y0153276D01*
X0083041Y0153231D01*
X0083057Y0153185D01*
X0083070Y0153139D01*
X0083079Y0153091D01*
X0083084Y0153043D01*
X0083086Y0152994D01*
X0083085Y0152994D02*
X0083083Y0152946D01*
X0083078Y0152898D01*
X0083069Y0152851D01*
X0083056Y0152804D01*
X0083040Y0152759D01*
X0083021Y0152715D01*
X0082999Y0152672D01*
X0082973Y0152631D01*
X0082944Y0152592D01*
X0082913Y0152556D01*
X0082879Y0152522D01*
X0082843Y0152491D01*
X0082804Y0152462D01*
X0082763Y0152436D01*
X0082720Y0152414D01*
X0082676Y0152395D01*
X0082631Y0152379D01*
X0082584Y0152366D01*
X0082537Y0152357D01*
X0082489Y0152352D01*
X0082441Y0152350D01*
X0082925Y0155008D02*
X0082872Y0155046D01*
X0082817Y0155080D01*
X0082761Y0155112D01*
X0082702Y0155141D01*
X0082643Y0155166D01*
X0082582Y0155188D01*
X0082520Y0155207D01*
X0082457Y0155222D01*
X0082394Y0155234D01*
X0082329Y0155243D01*
X0082265Y0155248D01*
X0082200Y0155250D01*
X0084401Y0155250D02*
X0085207Y0155250D01*
X0085262Y0155248D01*
X0085317Y0155242D01*
X0085371Y0155233D01*
X0085424Y0155220D01*
X0085477Y0155203D01*
X0085528Y0155183D01*
X0085578Y0155160D01*
X0085626Y0155133D01*
X0085672Y0155102D01*
X0085716Y0155069D01*
X0085757Y0155033D01*
X0085796Y0154994D01*
X0085832Y0154953D01*
X0085865Y0154909D01*
X0085896Y0154863D01*
X0085923Y0154815D01*
X0085946Y0154765D01*
X0085966Y0154714D01*
X0085983Y0154661D01*
X0085996Y0154608D01*
X0086005Y0154554D01*
X0086011Y0154499D01*
X0086013Y0154444D01*
X0086011Y0154389D01*
X0086005Y0154334D01*
X0085996Y0154280D01*
X0085983Y0154227D01*
X0085966Y0154174D01*
X0085946Y0154123D01*
X0085923Y0154073D01*
X0085896Y0154025D01*
X0085865Y0153979D01*
X0085832Y0153935D01*
X0085796Y0153894D01*
X0085757Y0153855D01*
X0085716Y0153819D01*
X0085672Y0153786D01*
X0085626Y0153755D01*
X0085578Y0153728D01*
X0085528Y0153705D01*
X0085477Y0153685D01*
X0085424Y0153668D01*
X0085371Y0153655D01*
X0085317Y0153646D01*
X0085262Y0153640D01*
X0085207Y0153638D01*
X0085207Y0153639D02*
X0084401Y0153639D01*
X0084401Y0152350D02*
X0084401Y0155250D01*
X0077994Y0155250D02*
X0077350Y0155250D01*
X0077672Y0155250D02*
X0077672Y0152350D01*
X0077350Y0152350D02*
X0077994Y0152350D01*
X0107050Y0024406D02*
X0107050Y0022350D01*
X0107050Y0023378D02*
X0103350Y0023378D01*
X0104172Y0022350D01*
X0192650Y0019806D02*
X0194850Y0019806D01*
X0192650Y0018583D01*
X0194850Y0018583D01*
X0194850Y0017564D02*
X0194850Y0017075D01*
X0194850Y0017319D02*
X0192650Y0017319D01*
X0192650Y0017075D02*
X0192650Y0017564D01*
X0195094Y0016233D02*
X0195094Y0015256D01*
X0194850Y0014349D02*
X0193872Y0013860D01*
X0193872Y0013738D02*
X0193872Y0013126D01*
X0193872Y0013738D02*
X0193870Y0013786D01*
X0193864Y0013834D01*
X0193855Y0013881D01*
X0193842Y0013927D01*
X0193825Y0013972D01*
X0193805Y0014015D01*
X0193782Y0014057D01*
X0193755Y0014097D01*
X0193726Y0014135D01*
X0193693Y0014170D01*
X0193658Y0014203D01*
X0193620Y0014232D01*
X0193580Y0014259D01*
X0193538Y0014282D01*
X0193495Y0014302D01*
X0193450Y0014319D01*
X0193404Y0014332D01*
X0193357Y0014341D01*
X0193309Y0014347D01*
X0193261Y0014349D01*
X0193213Y0014347D01*
X0193165Y0014341D01*
X0193118Y0014332D01*
X0193072Y0014319D01*
X0193027Y0014302D01*
X0192984Y0014282D01*
X0192942Y0014259D01*
X0192902Y0014232D01*
X0192864Y0014203D01*
X0192829Y0014170D01*
X0192796Y0014135D01*
X0192767Y0014097D01*
X0192740Y0014057D01*
X0192717Y0014015D01*
X0192697Y0013972D01*
X0192680Y0013927D01*
X0192667Y0013881D01*
X0192658Y0013834D01*
X0192652Y0013786D01*
X0192650Y0013738D01*
X0192650Y0013126D01*
X0194850Y0013126D01*
X0194850Y0011583D02*
X0192650Y0012072D01*
X0193383Y0011094D02*
X0194850Y0010606D01*
X0192650Y0010117D01*
X0193383Y0011094D02*
X0194850Y0011583D01*
X0193872Y0008661D02*
X0193872Y0008050D01*
X0193872Y0008661D02*
X0193870Y0008709D01*
X0193864Y0008757D01*
X0193855Y0008804D01*
X0193842Y0008850D01*
X0193825Y0008895D01*
X0193805Y0008938D01*
X0193782Y0008980D01*
X0193755Y0009020D01*
X0193726Y0009058D01*
X0193693Y0009093D01*
X0193658Y0009126D01*
X0193620Y0009155D01*
X0193580Y0009182D01*
X0193538Y0009205D01*
X0193495Y0009225D01*
X0193450Y0009242D01*
X0193404Y0009255D01*
X0193357Y0009264D01*
X0193309Y0009270D01*
X0193261Y0009272D01*
X0193213Y0009270D01*
X0193165Y0009264D01*
X0193118Y0009255D01*
X0193072Y0009242D01*
X0193027Y0009225D01*
X0192984Y0009205D01*
X0192942Y0009182D01*
X0192902Y0009155D01*
X0192864Y0009126D01*
X0192829Y0009093D01*
X0192796Y0009058D01*
X0192767Y0009020D01*
X0192740Y0008980D01*
X0192717Y0008938D01*
X0192697Y0008895D01*
X0192680Y0008850D01*
X0192667Y0008804D01*
X0192658Y0008757D01*
X0192652Y0008709D01*
X0192650Y0008661D01*
X0192650Y0008050D01*
X0194850Y0008050D01*
D13*
X0069500Y0014451D02*
X0067300Y0014451D01*
X0068522Y0015184D01*
X0067300Y0015918D01*
X0069500Y0015918D01*
X0069500Y0016912D02*
X0068033Y0016912D01*
X0067422Y0016973D02*
X0067422Y0016851D01*
X0067300Y0016851D01*
X0067300Y0016973D01*
X0067422Y0016973D01*
X0068033Y0017863D02*
X0068033Y0018475D01*
X0068035Y0018511D01*
X0068040Y0018547D01*
X0068049Y0018582D01*
X0068061Y0018615D01*
X0068076Y0018648D01*
X0068095Y0018679D01*
X0068116Y0018708D01*
X0068140Y0018735D01*
X0068167Y0018759D01*
X0068196Y0018780D01*
X0068227Y0018799D01*
X0068260Y0018814D01*
X0068293Y0018826D01*
X0068328Y0018835D01*
X0068364Y0018840D01*
X0068400Y0018842D01*
X0068400Y0018841D02*
X0069500Y0018841D01*
X0069500Y0019792D02*
X0068033Y0019792D01*
X0067422Y0019853D02*
X0067422Y0019731D01*
X0067300Y0019731D01*
X0067300Y0019853D01*
X0067422Y0019853D01*
X0068644Y0020715D02*
X0068644Y0022182D01*
X0068278Y0023246D02*
X0068278Y0023857D01*
X0068276Y0023900D01*
X0068271Y0023942D01*
X0068261Y0023984D01*
X0068249Y0024024D01*
X0068232Y0024064D01*
X0068212Y0024102D01*
X0068190Y0024137D01*
X0068164Y0024171D01*
X0068135Y0024203D01*
X0068103Y0024232D01*
X0068069Y0024258D01*
X0068034Y0024280D01*
X0067996Y0024300D01*
X0067956Y0024317D01*
X0067916Y0024329D01*
X0067874Y0024339D01*
X0067832Y0024344D01*
X0067789Y0024346D01*
X0067746Y0024344D01*
X0067704Y0024339D01*
X0067662Y0024329D01*
X0067622Y0024317D01*
X0067582Y0024300D01*
X0067545Y0024280D01*
X0067509Y0024258D01*
X0067475Y0024232D01*
X0067443Y0024203D01*
X0067414Y0024171D01*
X0067388Y0024137D01*
X0067366Y0024102D01*
X0067346Y0024064D01*
X0067329Y0024024D01*
X0067317Y0023984D01*
X0067307Y0023942D01*
X0067302Y0023900D01*
X0067300Y0023857D01*
X0067300Y0023246D01*
X0069500Y0023246D01*
X0069500Y0023857D01*
X0069498Y0023905D01*
X0069492Y0023953D01*
X0069483Y0024000D01*
X0069470Y0024046D01*
X0069453Y0024091D01*
X0069433Y0024134D01*
X0069410Y0024176D01*
X0069383Y0024216D01*
X0069354Y0024254D01*
X0069321Y0024289D01*
X0069286Y0024322D01*
X0069248Y0024351D01*
X0069208Y0024378D01*
X0069166Y0024401D01*
X0069123Y0024421D01*
X0069078Y0024438D01*
X0069032Y0024451D01*
X0068985Y0024460D01*
X0068937Y0024466D01*
X0068889Y0024468D01*
X0068841Y0024466D01*
X0068793Y0024460D01*
X0068746Y0024451D01*
X0068700Y0024438D01*
X0068655Y0024421D01*
X0068612Y0024401D01*
X0068570Y0024378D01*
X0068530Y0024351D01*
X0068492Y0024322D01*
X0068457Y0024289D01*
X0068424Y0024254D01*
X0068395Y0024216D01*
X0068368Y0024176D01*
X0068345Y0024134D01*
X0068325Y0024091D01*
X0068308Y0024046D01*
X0068295Y0024000D01*
X0068286Y0023953D01*
X0068280Y0023905D01*
X0068278Y0023857D01*
X0068889Y0026525D02*
X0067300Y0026525D01*
X0067300Y0027747D02*
X0068889Y0027747D01*
X0068937Y0027745D01*
X0068985Y0027739D01*
X0069032Y0027730D01*
X0069078Y0027717D01*
X0069123Y0027700D01*
X0069166Y0027680D01*
X0069208Y0027657D01*
X0069248Y0027630D01*
X0069286Y0027601D01*
X0069321Y0027568D01*
X0069354Y0027533D01*
X0069383Y0027495D01*
X0069410Y0027455D01*
X0069433Y0027413D01*
X0069453Y0027370D01*
X0069470Y0027325D01*
X0069483Y0027279D01*
X0069492Y0027232D01*
X0069498Y0027184D01*
X0069500Y0027136D01*
X0069498Y0027088D01*
X0069492Y0027040D01*
X0069483Y0026993D01*
X0069470Y0026947D01*
X0069453Y0026902D01*
X0069433Y0026859D01*
X0069410Y0026817D01*
X0069383Y0026777D01*
X0069354Y0026739D01*
X0069321Y0026704D01*
X0069286Y0026671D01*
X0069248Y0026642D01*
X0069208Y0026615D01*
X0069166Y0026592D01*
X0069123Y0026572D01*
X0069078Y0026555D01*
X0069032Y0026542D01*
X0068985Y0026533D01*
X0068937Y0026527D01*
X0068889Y0026525D01*
X0068217Y0028991D02*
X0068583Y0029663D01*
X0069500Y0029418D02*
X0069498Y0029355D01*
X0069492Y0029293D01*
X0069483Y0029231D01*
X0069470Y0029170D01*
X0069453Y0029109D01*
X0069432Y0029050D01*
X0069408Y0028992D01*
X0069380Y0028936D01*
X0069349Y0028881D01*
X0069315Y0028828D01*
X0069278Y0028778D01*
X0069238Y0028730D01*
X0069194Y0028685D01*
X0068583Y0029663D02*
X0068606Y0029699D01*
X0068633Y0029733D01*
X0068662Y0029765D01*
X0068694Y0029794D01*
X0068728Y0029820D01*
X0068764Y0029843D01*
X0068803Y0029862D01*
X0068842Y0029879D01*
X0068883Y0029891D01*
X0068925Y0029901D01*
X0068968Y0029906D01*
X0069011Y0029908D01*
X0069011Y0029907D02*
X0069054Y0029905D01*
X0069096Y0029900D01*
X0069138Y0029890D01*
X0069178Y0029878D01*
X0069218Y0029861D01*
X0069256Y0029841D01*
X0069291Y0029819D01*
X0069325Y0029793D01*
X0069357Y0029764D01*
X0069386Y0029732D01*
X0069412Y0029698D01*
X0069434Y0029663D01*
X0069454Y0029625D01*
X0069471Y0029585D01*
X0069483Y0029545D01*
X0069493Y0029503D01*
X0069498Y0029461D01*
X0069500Y0029418D01*
X0067483Y0029785D02*
X0067450Y0029737D01*
X0067419Y0029687D01*
X0067391Y0029634D01*
X0067368Y0029580D01*
X0067347Y0029525D01*
X0067330Y0029468D01*
X0067317Y0029411D01*
X0067308Y0029353D01*
X0067302Y0029294D01*
X0067300Y0029235D01*
X0067302Y0029192D01*
X0067307Y0029150D01*
X0067317Y0029108D01*
X0067329Y0029068D01*
X0067346Y0029028D01*
X0067366Y0028991D01*
X0067388Y0028955D01*
X0067414Y0028921D01*
X0067443Y0028889D01*
X0067475Y0028860D01*
X0067509Y0028834D01*
X0067545Y0028812D01*
X0067582Y0028792D01*
X0067622Y0028775D01*
X0067662Y0028763D01*
X0067704Y0028753D01*
X0067746Y0028748D01*
X0067789Y0028746D01*
X0067832Y0028748D01*
X0067875Y0028753D01*
X0067917Y0028763D01*
X0067958Y0028775D01*
X0067997Y0028792D01*
X0068036Y0028811D01*
X0068072Y0028834D01*
X0068106Y0028860D01*
X0068138Y0028889D01*
X0068167Y0028921D01*
X0068194Y0028955D01*
X0068217Y0028991D01*
X0068278Y0030878D02*
X0068278Y0031489D01*
X0068276Y0031532D01*
X0068271Y0031574D01*
X0068261Y0031616D01*
X0068249Y0031656D01*
X0068232Y0031696D01*
X0068212Y0031734D01*
X0068190Y0031769D01*
X0068164Y0031803D01*
X0068135Y0031835D01*
X0068103Y0031864D01*
X0068069Y0031890D01*
X0068034Y0031912D01*
X0067996Y0031932D01*
X0067956Y0031949D01*
X0067916Y0031961D01*
X0067874Y0031971D01*
X0067832Y0031976D01*
X0067789Y0031978D01*
X0067746Y0031976D01*
X0067704Y0031971D01*
X0067662Y0031961D01*
X0067622Y0031949D01*
X0067582Y0031932D01*
X0067545Y0031912D01*
X0067509Y0031890D01*
X0067475Y0031864D01*
X0067443Y0031835D01*
X0067414Y0031803D01*
X0067388Y0031769D01*
X0067366Y0031734D01*
X0067346Y0031696D01*
X0067329Y0031656D01*
X0067317Y0031616D01*
X0067307Y0031574D01*
X0067302Y0031532D01*
X0067300Y0031489D01*
X0067300Y0030878D01*
X0069500Y0030878D01*
X0069500Y0031489D01*
X0069498Y0031537D01*
X0069492Y0031585D01*
X0069483Y0031632D01*
X0069470Y0031678D01*
X0069453Y0031723D01*
X0069433Y0031766D01*
X0069410Y0031808D01*
X0069383Y0031848D01*
X0069354Y0031886D01*
X0069321Y0031921D01*
X0069286Y0031954D01*
X0069248Y0031983D01*
X0069208Y0032010D01*
X0069166Y0032033D01*
X0069123Y0032053D01*
X0069078Y0032070D01*
X0069032Y0032083D01*
X0068985Y0032092D01*
X0068937Y0032098D01*
X0068889Y0032100D01*
X0068841Y0032098D01*
X0068793Y0032092D01*
X0068746Y0032083D01*
X0068700Y0032070D01*
X0068655Y0032053D01*
X0068612Y0032033D01*
X0068570Y0032010D01*
X0068530Y0031983D01*
X0068492Y0031954D01*
X0068457Y0031921D01*
X0068424Y0031886D01*
X0068395Y0031848D01*
X0068368Y0031808D01*
X0068345Y0031766D01*
X0068325Y0031723D01*
X0068308Y0031678D01*
X0068295Y0031632D01*
X0068286Y0031585D01*
X0068280Y0031537D01*
X0068278Y0031489D01*
X0068033Y0017863D02*
X0069500Y0017863D01*
D14*
X0077400Y0033933D02*
X0082000Y0032400D01*
X0080850Y0032783D02*
X0080850Y0035083D01*
X0082000Y0035467D02*
X0077400Y0033933D01*
X0077400Y0037335D02*
X0077400Y0038612D01*
X0077400Y0037335D02*
X0082000Y0037335D01*
X0079956Y0037335D02*
X0079956Y0038612D01*
X0079956Y0038868D02*
X0082000Y0039890D01*
X0082000Y0041956D02*
X0082000Y0043233D01*
X0082000Y0041956D02*
X0077400Y0041956D01*
X0077400Y0043233D01*
X0077402Y0043302D01*
X0077407Y0043371D01*
X0077417Y0043440D01*
X0077430Y0043508D01*
X0077447Y0043575D01*
X0077467Y0043641D01*
X0077491Y0043706D01*
X0077518Y0043770D01*
X0077549Y0043832D01*
X0077583Y0043892D01*
X0077620Y0043950D01*
X0077661Y0044006D01*
X0077704Y0044060D01*
X0077750Y0044112D01*
X0077799Y0044161D01*
X0077851Y0044207D01*
X0077905Y0044250D01*
X0077961Y0044291D01*
X0078019Y0044328D01*
X0078079Y0044362D01*
X0078141Y0044393D01*
X0078205Y0044420D01*
X0078270Y0044444D01*
X0078336Y0044464D01*
X0078403Y0044481D01*
X0078471Y0044494D01*
X0078540Y0044504D01*
X0078609Y0044509D01*
X0078678Y0044511D01*
X0080722Y0044511D01*
X0080791Y0044509D01*
X0080860Y0044504D01*
X0080929Y0044494D01*
X0080997Y0044481D01*
X0081064Y0044464D01*
X0081130Y0044444D01*
X0081195Y0044420D01*
X0081259Y0044393D01*
X0081321Y0044362D01*
X0081381Y0044328D01*
X0081439Y0044291D01*
X0081495Y0044250D01*
X0081549Y0044207D01*
X0081601Y0044161D01*
X0081650Y0044112D01*
X0081696Y0044060D01*
X0081739Y0044006D01*
X0081780Y0043950D01*
X0081817Y0043892D01*
X0081851Y0043832D01*
X0081882Y0043770D01*
X0081909Y0043706D01*
X0081933Y0043641D01*
X0081953Y0043575D01*
X0081970Y0043508D01*
X0081983Y0043440D01*
X0081993Y0043371D01*
X0081998Y0043302D01*
X0082000Y0043233D01*
X0080722Y0046756D02*
X0077400Y0046756D01*
X0077400Y0049311D02*
X0080722Y0049311D01*
X0080792Y0049309D01*
X0080863Y0049303D01*
X0080932Y0049294D01*
X0081001Y0049280D01*
X0081070Y0049263D01*
X0081137Y0049242D01*
X0081203Y0049217D01*
X0081267Y0049189D01*
X0081330Y0049157D01*
X0081391Y0049122D01*
X0081450Y0049083D01*
X0081507Y0049042D01*
X0081561Y0048997D01*
X0081613Y0048949D01*
X0081662Y0048899D01*
X0081709Y0048845D01*
X0081752Y0048790D01*
X0081792Y0048732D01*
X0081829Y0048672D01*
X0081862Y0048610D01*
X0081892Y0048546D01*
X0081919Y0048481D01*
X0081942Y0048415D01*
X0081961Y0048347D01*
X0081976Y0048278D01*
X0081988Y0048209D01*
X0081996Y0048139D01*
X0082000Y0048068D01*
X0082000Y0047998D01*
X0081996Y0047927D01*
X0081988Y0047857D01*
X0081976Y0047788D01*
X0081961Y0047719D01*
X0081942Y0047651D01*
X0081919Y0047585D01*
X0081892Y0047520D01*
X0081862Y0047456D01*
X0081829Y0047394D01*
X0081792Y0047334D01*
X0081752Y0047276D01*
X0081709Y0047221D01*
X0081662Y0047167D01*
X0081613Y0047117D01*
X0081561Y0047069D01*
X0081507Y0047024D01*
X0081450Y0046983D01*
X0081391Y0046944D01*
X0081330Y0046909D01*
X0081267Y0046877D01*
X0081203Y0046849D01*
X0081137Y0046824D01*
X0081070Y0046803D01*
X0081001Y0046786D01*
X0080932Y0046772D01*
X0080863Y0046763D01*
X0080792Y0046757D01*
X0080722Y0046755D01*
X0082000Y0051272D02*
X0082000Y0052294D01*
X0082000Y0051783D02*
X0077400Y0051783D01*
X0077400Y0051272D02*
X0077400Y0052294D01*
X0077400Y0054256D02*
X0082000Y0056811D01*
X0077400Y0056811D01*
X0078678Y0058905D02*
X0080722Y0058905D01*
X0080792Y0058907D01*
X0080863Y0058913D01*
X0080932Y0058922D01*
X0081001Y0058936D01*
X0081070Y0058953D01*
X0081137Y0058974D01*
X0081203Y0058999D01*
X0081267Y0059027D01*
X0081330Y0059059D01*
X0081391Y0059094D01*
X0081450Y0059133D01*
X0081507Y0059174D01*
X0081561Y0059219D01*
X0081613Y0059267D01*
X0081662Y0059317D01*
X0081709Y0059371D01*
X0081752Y0059426D01*
X0081792Y0059484D01*
X0081829Y0059544D01*
X0081862Y0059606D01*
X0081892Y0059670D01*
X0081919Y0059735D01*
X0081942Y0059801D01*
X0081961Y0059869D01*
X0081976Y0059938D01*
X0081988Y0060007D01*
X0081996Y0060077D01*
X0082000Y0060148D01*
X0082000Y0060218D01*
X0081996Y0060289D01*
X0081988Y0060359D01*
X0081976Y0060428D01*
X0081961Y0060497D01*
X0081942Y0060565D01*
X0081919Y0060631D01*
X0081892Y0060696D01*
X0081862Y0060760D01*
X0081829Y0060822D01*
X0081792Y0060882D01*
X0081752Y0060940D01*
X0081709Y0060995D01*
X0081662Y0061049D01*
X0081613Y0061099D01*
X0081561Y0061147D01*
X0081507Y0061192D01*
X0081450Y0061233D01*
X0081391Y0061272D01*
X0081330Y0061307D01*
X0081267Y0061339D01*
X0081203Y0061367D01*
X0081137Y0061392D01*
X0081070Y0061413D01*
X0081001Y0061430D01*
X0080932Y0061444D01*
X0080863Y0061453D01*
X0080792Y0061459D01*
X0080722Y0061461D01*
X0078678Y0061461D01*
X0078608Y0061459D01*
X0078537Y0061453D01*
X0078468Y0061444D01*
X0078399Y0061430D01*
X0078330Y0061413D01*
X0078263Y0061392D01*
X0078197Y0061367D01*
X0078133Y0061339D01*
X0078070Y0061307D01*
X0078009Y0061272D01*
X0077950Y0061233D01*
X0077893Y0061192D01*
X0077839Y0061147D01*
X0077787Y0061099D01*
X0077738Y0061049D01*
X0077691Y0060995D01*
X0077648Y0060940D01*
X0077608Y0060882D01*
X0077571Y0060822D01*
X0077538Y0060760D01*
X0077508Y0060696D01*
X0077481Y0060631D01*
X0077458Y0060565D01*
X0077439Y0060497D01*
X0077424Y0060428D01*
X0077412Y0060359D01*
X0077404Y0060289D01*
X0077400Y0060218D01*
X0077400Y0060148D01*
X0077404Y0060077D01*
X0077412Y0060007D01*
X0077424Y0059938D01*
X0077439Y0059869D01*
X0077458Y0059801D01*
X0077481Y0059735D01*
X0077508Y0059670D01*
X0077538Y0059606D01*
X0077571Y0059544D01*
X0077608Y0059484D01*
X0077648Y0059426D01*
X0077691Y0059371D01*
X0077738Y0059317D01*
X0077787Y0059267D01*
X0077839Y0059219D01*
X0077893Y0059174D01*
X0077950Y0059133D01*
X0078009Y0059094D01*
X0078070Y0059059D01*
X0078133Y0059027D01*
X0078197Y0058999D01*
X0078263Y0058974D01*
X0078330Y0058953D01*
X0078399Y0058936D01*
X0078468Y0058922D01*
X0078537Y0058913D01*
X0078608Y0058907D01*
X0078678Y0058905D01*
X0077400Y0054256D02*
X0082000Y0054256D01*
X0082511Y0063211D02*
X0082511Y0065255D01*
X0082000Y0067155D02*
X0077400Y0067155D01*
X0082000Y0069711D01*
X0077400Y0069711D01*
X0077400Y0073083D02*
X0082000Y0074617D01*
X0080850Y0074233D02*
X0080850Y0071933D01*
X0082000Y0071550D02*
X0077400Y0073083D01*
X0077400Y0076455D02*
X0082000Y0079011D01*
X0077400Y0079011D01*
X0078678Y0081105D02*
X0080722Y0081105D01*
X0080792Y0081107D01*
X0080863Y0081113D01*
X0080932Y0081122D01*
X0081001Y0081136D01*
X0081070Y0081153D01*
X0081137Y0081174D01*
X0081203Y0081199D01*
X0081267Y0081227D01*
X0081330Y0081259D01*
X0081391Y0081294D01*
X0081450Y0081333D01*
X0081507Y0081374D01*
X0081561Y0081419D01*
X0081613Y0081467D01*
X0081662Y0081517D01*
X0081709Y0081571D01*
X0081752Y0081626D01*
X0081792Y0081684D01*
X0081829Y0081744D01*
X0081862Y0081806D01*
X0081892Y0081870D01*
X0081919Y0081935D01*
X0081942Y0082001D01*
X0081961Y0082069D01*
X0081976Y0082138D01*
X0081988Y0082207D01*
X0081996Y0082277D01*
X0082000Y0082348D01*
X0082000Y0082418D01*
X0081996Y0082489D01*
X0081988Y0082559D01*
X0081976Y0082628D01*
X0081961Y0082697D01*
X0081942Y0082765D01*
X0081919Y0082831D01*
X0081892Y0082896D01*
X0081862Y0082960D01*
X0081829Y0083022D01*
X0081792Y0083082D01*
X0081752Y0083140D01*
X0081709Y0083195D01*
X0081662Y0083249D01*
X0081613Y0083299D01*
X0081561Y0083347D01*
X0081507Y0083392D01*
X0081450Y0083433D01*
X0081391Y0083472D01*
X0081330Y0083507D01*
X0081267Y0083539D01*
X0081203Y0083567D01*
X0081137Y0083592D01*
X0081070Y0083613D01*
X0081001Y0083630D01*
X0080932Y0083644D01*
X0080863Y0083653D01*
X0080792Y0083659D01*
X0080722Y0083661D01*
X0078678Y0083661D01*
X0078608Y0083659D01*
X0078537Y0083653D01*
X0078468Y0083644D01*
X0078399Y0083630D01*
X0078330Y0083613D01*
X0078263Y0083592D01*
X0078197Y0083567D01*
X0078133Y0083539D01*
X0078070Y0083507D01*
X0078009Y0083472D01*
X0077950Y0083433D01*
X0077893Y0083392D01*
X0077839Y0083347D01*
X0077787Y0083299D01*
X0077738Y0083249D01*
X0077691Y0083195D01*
X0077648Y0083140D01*
X0077608Y0083082D01*
X0077571Y0083022D01*
X0077538Y0082960D01*
X0077508Y0082896D01*
X0077481Y0082831D01*
X0077458Y0082765D01*
X0077439Y0082697D01*
X0077424Y0082628D01*
X0077412Y0082559D01*
X0077404Y0082489D01*
X0077400Y0082418D01*
X0077400Y0082348D01*
X0077404Y0082277D01*
X0077412Y0082207D01*
X0077424Y0082138D01*
X0077439Y0082069D01*
X0077458Y0082001D01*
X0077481Y0081935D01*
X0077508Y0081870D01*
X0077538Y0081806D01*
X0077571Y0081744D01*
X0077608Y0081684D01*
X0077648Y0081626D01*
X0077691Y0081571D01*
X0077738Y0081517D01*
X0077787Y0081467D01*
X0077839Y0081419D01*
X0077893Y0081374D01*
X0077950Y0081333D01*
X0078009Y0081294D01*
X0078070Y0081259D01*
X0078133Y0081227D01*
X0078197Y0081199D01*
X0078263Y0081174D01*
X0078330Y0081153D01*
X0078399Y0081136D01*
X0078468Y0081122D01*
X0078537Y0081113D01*
X0078608Y0081107D01*
X0078678Y0081105D01*
X0077400Y0076455D02*
X0082000Y0076455D01*
X0082000Y0085605D02*
X0082000Y0088161D01*
X0082000Y0086883D02*
X0077400Y0086883D01*
X0078422Y0085605D01*
X0117400Y0128950D02*
X0120978Y0127928D01*
X0120978Y0130483D01*
X0119956Y0129717D02*
X0122000Y0129717D01*
X0122000Y0132228D02*
X0122000Y0132483D01*
X0121744Y0132483D01*
X0121744Y0132228D01*
X0122000Y0132228D01*
X0122000Y0135506D02*
X0117400Y0136783D01*
X0117400Y0134228D01*
X0117911Y0134228D01*
X0117400Y0138944D02*
X0122000Y0138944D01*
X0120211Y0138944D02*
X0117400Y0141500D01*
X0119189Y0139967D02*
X0122000Y0141500D01*
X0132400Y0121972D02*
X0135211Y0119417D01*
X0134189Y0120439D02*
X0137000Y0121972D01*
X0137000Y0119417D02*
X0132400Y0119417D01*
X0132400Y0117256D02*
X0137000Y0115978D01*
X0137000Y0112956D02*
X0137000Y0112700D01*
X0136744Y0112700D01*
X0136744Y0112956D01*
X0137000Y0112956D01*
X0135978Y0110956D02*
X0135978Y0108400D01*
X0132400Y0109422D01*
X0134956Y0110189D02*
X0137000Y0110189D01*
X0132911Y0114700D02*
X0132400Y0114700D01*
X0132400Y0117256D01*
X0173264Y0082236D02*
X0173264Y0079681D01*
X0173264Y0080958D02*
X0177864Y0080958D01*
X0176586Y0077886D02*
X0173264Y0077886D01*
X0173264Y0075331D02*
X0176586Y0075331D01*
X0176586Y0075330D02*
X0176656Y0075332D01*
X0176727Y0075338D01*
X0176796Y0075347D01*
X0176865Y0075361D01*
X0176934Y0075378D01*
X0177001Y0075399D01*
X0177067Y0075424D01*
X0177131Y0075452D01*
X0177194Y0075484D01*
X0177255Y0075519D01*
X0177314Y0075558D01*
X0177371Y0075599D01*
X0177425Y0075644D01*
X0177477Y0075692D01*
X0177526Y0075742D01*
X0177573Y0075796D01*
X0177616Y0075851D01*
X0177656Y0075909D01*
X0177693Y0075969D01*
X0177726Y0076031D01*
X0177756Y0076095D01*
X0177783Y0076160D01*
X0177806Y0076226D01*
X0177825Y0076294D01*
X0177840Y0076363D01*
X0177852Y0076432D01*
X0177860Y0076502D01*
X0177864Y0076573D01*
X0177864Y0076643D01*
X0177860Y0076714D01*
X0177852Y0076784D01*
X0177840Y0076853D01*
X0177825Y0076922D01*
X0177806Y0076990D01*
X0177783Y0077056D01*
X0177756Y0077121D01*
X0177726Y0077185D01*
X0177693Y0077247D01*
X0177656Y0077307D01*
X0177616Y0077365D01*
X0177573Y0077420D01*
X0177526Y0077474D01*
X0177477Y0077524D01*
X0177425Y0077572D01*
X0177371Y0077617D01*
X0177314Y0077658D01*
X0177255Y0077697D01*
X0177194Y0077732D01*
X0177131Y0077764D01*
X0177067Y0077792D01*
X0177001Y0077817D01*
X0176934Y0077838D01*
X0176865Y0077855D01*
X0176796Y0077869D01*
X0176727Y0077878D01*
X0176656Y0077884D01*
X0176586Y0077886D01*
X0176586Y0073236D02*
X0174542Y0073236D01*
X0174472Y0073234D01*
X0174401Y0073228D01*
X0174332Y0073219D01*
X0174263Y0073205D01*
X0174194Y0073188D01*
X0174127Y0073167D01*
X0174061Y0073142D01*
X0173997Y0073114D01*
X0173934Y0073082D01*
X0173873Y0073047D01*
X0173814Y0073008D01*
X0173757Y0072967D01*
X0173703Y0072922D01*
X0173651Y0072874D01*
X0173602Y0072824D01*
X0173555Y0072770D01*
X0173512Y0072715D01*
X0173472Y0072657D01*
X0173435Y0072597D01*
X0173402Y0072535D01*
X0173372Y0072471D01*
X0173345Y0072406D01*
X0173322Y0072340D01*
X0173303Y0072272D01*
X0173288Y0072203D01*
X0173276Y0072134D01*
X0173268Y0072064D01*
X0173264Y0071993D01*
X0173264Y0071923D01*
X0173268Y0071852D01*
X0173276Y0071782D01*
X0173288Y0071713D01*
X0173303Y0071644D01*
X0173322Y0071576D01*
X0173345Y0071510D01*
X0173372Y0071445D01*
X0173402Y0071381D01*
X0173435Y0071319D01*
X0173472Y0071259D01*
X0173512Y0071201D01*
X0173555Y0071146D01*
X0173602Y0071092D01*
X0173651Y0071042D01*
X0173703Y0070994D01*
X0173757Y0070949D01*
X0173814Y0070908D01*
X0173873Y0070869D01*
X0173934Y0070834D01*
X0173997Y0070802D01*
X0174061Y0070774D01*
X0174127Y0070749D01*
X0174194Y0070728D01*
X0174263Y0070711D01*
X0174332Y0070697D01*
X0174401Y0070688D01*
X0174472Y0070682D01*
X0174542Y0070680D01*
X0174542Y0070681D02*
X0176586Y0070681D01*
X0176586Y0070680D02*
X0176656Y0070682D01*
X0176727Y0070688D01*
X0176796Y0070697D01*
X0176865Y0070711D01*
X0176934Y0070728D01*
X0177001Y0070749D01*
X0177067Y0070774D01*
X0177131Y0070802D01*
X0177194Y0070834D01*
X0177255Y0070869D01*
X0177314Y0070908D01*
X0177371Y0070949D01*
X0177425Y0070994D01*
X0177477Y0071042D01*
X0177526Y0071092D01*
X0177573Y0071146D01*
X0177616Y0071201D01*
X0177656Y0071259D01*
X0177693Y0071319D01*
X0177726Y0071381D01*
X0177756Y0071445D01*
X0177783Y0071510D01*
X0177806Y0071576D01*
X0177825Y0071644D01*
X0177840Y0071713D01*
X0177852Y0071782D01*
X0177860Y0071852D01*
X0177864Y0071923D01*
X0177864Y0071993D01*
X0177860Y0072064D01*
X0177852Y0072134D01*
X0177840Y0072203D01*
X0177825Y0072272D01*
X0177806Y0072340D01*
X0177783Y0072406D01*
X0177756Y0072471D01*
X0177726Y0072535D01*
X0177693Y0072597D01*
X0177656Y0072657D01*
X0177616Y0072715D01*
X0177573Y0072770D01*
X0177526Y0072824D01*
X0177477Y0072874D01*
X0177425Y0072922D01*
X0177371Y0072967D01*
X0177314Y0073008D01*
X0177255Y0073047D01*
X0177194Y0073082D01*
X0177131Y0073114D01*
X0177067Y0073142D01*
X0177001Y0073167D01*
X0176934Y0073188D01*
X0176865Y0073205D01*
X0176796Y0073219D01*
X0176727Y0073228D01*
X0176656Y0073234D01*
X0176586Y0073236D01*
X0176075Y0068692D02*
X0176075Y0065625D01*
X0155080Y0064255D02*
X0153036Y0064255D01*
X0154058Y0065022D02*
X0154058Y0062466D01*
X0150480Y0063489D01*
X0151502Y0060266D02*
X0151565Y0060264D01*
X0151628Y0060258D01*
X0151690Y0060249D01*
X0151751Y0060235D01*
X0151812Y0060218D01*
X0151871Y0060197D01*
X0151929Y0060172D01*
X0151986Y0060144D01*
X0152040Y0060113D01*
X0152092Y0060078D01*
X0152143Y0060040D01*
X0152191Y0059999D01*
X0152236Y0059955D01*
X0152278Y0059909D01*
X0152318Y0059860D01*
X0152354Y0059809D01*
X0152387Y0059755D01*
X0152417Y0059700D01*
X0152443Y0059642D01*
X0152466Y0059584D01*
X0152485Y0059524D01*
X0152500Y0059463D01*
X0152512Y0059401D01*
X0152520Y0059338D01*
X0152524Y0059275D01*
X0152524Y0059213D01*
X0152520Y0059150D01*
X0152512Y0059087D01*
X0152500Y0059025D01*
X0152485Y0058964D01*
X0152466Y0058904D01*
X0152443Y0058846D01*
X0152417Y0058788D01*
X0152387Y0058733D01*
X0152354Y0058679D01*
X0152318Y0058628D01*
X0152278Y0058579D01*
X0152236Y0058533D01*
X0152191Y0058489D01*
X0152143Y0058448D01*
X0152092Y0058410D01*
X0152040Y0058375D01*
X0151986Y0058344D01*
X0151929Y0058316D01*
X0151871Y0058291D01*
X0151812Y0058270D01*
X0151751Y0058253D01*
X0151690Y0058239D01*
X0151628Y0058230D01*
X0151565Y0058224D01*
X0151502Y0058222D01*
X0151439Y0058224D01*
X0151376Y0058230D01*
X0151314Y0058239D01*
X0151253Y0058253D01*
X0151192Y0058270D01*
X0151133Y0058291D01*
X0151075Y0058316D01*
X0151018Y0058344D01*
X0150964Y0058375D01*
X0150912Y0058410D01*
X0150861Y0058448D01*
X0150813Y0058489D01*
X0150768Y0058533D01*
X0150726Y0058579D01*
X0150686Y0058628D01*
X0150650Y0058679D01*
X0150617Y0058733D01*
X0150587Y0058788D01*
X0150561Y0058846D01*
X0150538Y0058904D01*
X0150519Y0058964D01*
X0150504Y0059025D01*
X0150492Y0059087D01*
X0150484Y0059150D01*
X0150480Y0059213D01*
X0150480Y0059275D01*
X0150484Y0059338D01*
X0150492Y0059401D01*
X0150504Y0059463D01*
X0150519Y0059524D01*
X0150538Y0059584D01*
X0150561Y0059642D01*
X0150587Y0059700D01*
X0150617Y0059755D01*
X0150650Y0059809D01*
X0150686Y0059860D01*
X0150726Y0059909D01*
X0150768Y0059955D01*
X0150813Y0059999D01*
X0150861Y0060040D01*
X0150912Y0060078D01*
X0150964Y0060113D01*
X0151018Y0060144D01*
X0151075Y0060172D01*
X0151133Y0060197D01*
X0151192Y0060218D01*
X0151253Y0060235D01*
X0151314Y0060249D01*
X0151376Y0060258D01*
X0151439Y0060264D01*
X0151502Y0060266D01*
X0153802Y0060522D02*
X0153872Y0060520D01*
X0153943Y0060514D01*
X0154012Y0060505D01*
X0154081Y0060491D01*
X0154150Y0060474D01*
X0154217Y0060453D01*
X0154283Y0060428D01*
X0154347Y0060400D01*
X0154410Y0060368D01*
X0154471Y0060333D01*
X0154530Y0060294D01*
X0154587Y0060253D01*
X0154641Y0060208D01*
X0154693Y0060160D01*
X0154742Y0060110D01*
X0154789Y0060056D01*
X0154832Y0060001D01*
X0154872Y0059943D01*
X0154909Y0059883D01*
X0154942Y0059821D01*
X0154972Y0059757D01*
X0154999Y0059692D01*
X0155022Y0059626D01*
X0155041Y0059558D01*
X0155056Y0059489D01*
X0155068Y0059420D01*
X0155076Y0059350D01*
X0155080Y0059279D01*
X0155080Y0059209D01*
X0155076Y0059138D01*
X0155068Y0059068D01*
X0155056Y0058999D01*
X0155041Y0058930D01*
X0155022Y0058862D01*
X0154999Y0058796D01*
X0154972Y0058731D01*
X0154942Y0058667D01*
X0154909Y0058605D01*
X0154872Y0058545D01*
X0154832Y0058487D01*
X0154789Y0058432D01*
X0154742Y0058378D01*
X0154693Y0058328D01*
X0154641Y0058280D01*
X0154587Y0058235D01*
X0154530Y0058194D01*
X0154471Y0058155D01*
X0154410Y0058120D01*
X0154347Y0058088D01*
X0154283Y0058060D01*
X0154217Y0058035D01*
X0154150Y0058014D01*
X0154081Y0057997D01*
X0154012Y0057983D01*
X0153943Y0057974D01*
X0153872Y0057968D01*
X0153802Y0057966D01*
X0153732Y0057968D01*
X0153661Y0057974D01*
X0153592Y0057983D01*
X0153523Y0057997D01*
X0153454Y0058014D01*
X0153387Y0058035D01*
X0153321Y0058060D01*
X0153257Y0058088D01*
X0153194Y0058120D01*
X0153133Y0058155D01*
X0153074Y0058194D01*
X0153017Y0058235D01*
X0152963Y0058280D01*
X0152911Y0058328D01*
X0152862Y0058378D01*
X0152815Y0058432D01*
X0152772Y0058487D01*
X0152732Y0058545D01*
X0152695Y0058605D01*
X0152662Y0058667D01*
X0152632Y0058731D01*
X0152605Y0058796D01*
X0152582Y0058862D01*
X0152563Y0058930D01*
X0152548Y0058999D01*
X0152536Y0059068D01*
X0152528Y0059138D01*
X0152524Y0059209D01*
X0152524Y0059279D01*
X0152528Y0059350D01*
X0152536Y0059420D01*
X0152548Y0059489D01*
X0152563Y0059558D01*
X0152582Y0059626D01*
X0152605Y0059692D01*
X0152632Y0059757D01*
X0152662Y0059821D01*
X0152695Y0059883D01*
X0152732Y0059943D01*
X0152772Y0060001D01*
X0152815Y0060056D01*
X0152862Y0060110D01*
X0152911Y0060160D01*
X0152963Y0060208D01*
X0153017Y0060253D01*
X0153074Y0060294D01*
X0153133Y0060333D01*
X0153194Y0060368D01*
X0153257Y0060400D01*
X0153321Y0060428D01*
X0153387Y0060453D01*
X0153454Y0060474D01*
X0153523Y0060491D01*
X0153592Y0060505D01*
X0153661Y0060514D01*
X0153732Y0060520D01*
X0153802Y0060522D01*
X0154058Y0056022D02*
X0153547Y0056022D01*
X0153485Y0056020D01*
X0153424Y0056015D01*
X0153363Y0056005D01*
X0153302Y0055992D01*
X0153243Y0055976D01*
X0153185Y0055956D01*
X0153128Y0055932D01*
X0153072Y0055905D01*
X0153018Y0055875D01*
X0152966Y0055841D01*
X0152917Y0055805D01*
X0152869Y0055765D01*
X0152824Y0055723D01*
X0152782Y0055678D01*
X0152742Y0055630D01*
X0152706Y0055581D01*
X0152672Y0055529D01*
X0152642Y0055475D01*
X0152615Y0055419D01*
X0152591Y0055362D01*
X0152571Y0055304D01*
X0152555Y0055245D01*
X0152542Y0055184D01*
X0152532Y0055123D01*
X0152527Y0055062D01*
X0152525Y0055000D01*
X0152524Y0055000D02*
X0152524Y0053467D01*
X0150480Y0053467D01*
X0150480Y0056022D01*
X0154058Y0056022D02*
X0154120Y0056020D01*
X0154181Y0056015D01*
X0154242Y0056005D01*
X0154303Y0055992D01*
X0154362Y0055976D01*
X0154420Y0055956D01*
X0154477Y0055932D01*
X0154533Y0055905D01*
X0154587Y0055875D01*
X0154639Y0055841D01*
X0154688Y0055805D01*
X0154736Y0055765D01*
X0154781Y0055723D01*
X0154823Y0055678D01*
X0154863Y0055630D01*
X0154899Y0055581D01*
X0154933Y0055529D01*
X0154963Y0055475D01*
X0154990Y0055419D01*
X0155014Y0055362D01*
X0155034Y0055304D01*
X0155050Y0055245D01*
X0155063Y0055184D01*
X0155073Y0055123D01*
X0155078Y0055062D01*
X0155080Y0055000D01*
X0155080Y0053467D01*
X0155080Y0051522D02*
X0155080Y0048967D01*
X0155080Y0050244D02*
X0150480Y0050244D01*
X0151502Y0048967D01*
X0150480Y0045961D02*
X0150482Y0046031D01*
X0150488Y0046102D01*
X0150497Y0046171D01*
X0150511Y0046240D01*
X0150528Y0046309D01*
X0150549Y0046376D01*
X0150574Y0046442D01*
X0150602Y0046506D01*
X0150634Y0046569D01*
X0150669Y0046630D01*
X0150708Y0046689D01*
X0150749Y0046746D01*
X0150794Y0046800D01*
X0150842Y0046852D01*
X0150892Y0046901D01*
X0150946Y0046948D01*
X0151001Y0046991D01*
X0151059Y0047031D01*
X0151119Y0047068D01*
X0151181Y0047101D01*
X0151245Y0047131D01*
X0151310Y0047158D01*
X0151376Y0047181D01*
X0151444Y0047200D01*
X0151513Y0047215D01*
X0151582Y0047227D01*
X0151652Y0047235D01*
X0151723Y0047239D01*
X0151793Y0047239D01*
X0151864Y0047235D01*
X0151934Y0047227D01*
X0152003Y0047215D01*
X0152072Y0047200D01*
X0152140Y0047181D01*
X0152206Y0047158D01*
X0152271Y0047131D01*
X0152335Y0047101D01*
X0152397Y0047068D01*
X0152457Y0047031D01*
X0152515Y0046991D01*
X0152570Y0046948D01*
X0152624Y0046901D01*
X0152674Y0046852D01*
X0152722Y0046800D01*
X0152767Y0046746D01*
X0152808Y0046689D01*
X0152847Y0046630D01*
X0152882Y0046569D01*
X0152914Y0046506D01*
X0152942Y0046442D01*
X0152967Y0046376D01*
X0152988Y0046309D01*
X0153005Y0046240D01*
X0153019Y0046171D01*
X0153028Y0046102D01*
X0153034Y0046031D01*
X0153036Y0045961D01*
X0153036Y0044683D01*
X0155080Y0044683D02*
X0150480Y0044683D01*
X0150480Y0045961D01*
X0150480Y0042328D02*
X0155080Y0042328D01*
X0153036Y0040794D02*
X0150480Y0042328D01*
X0153036Y0040794D02*
X0150480Y0039261D01*
X0155080Y0039261D01*
X0174005Y0030205D02*
X0178605Y0030205D01*
X0174005Y0027650D01*
X0178605Y0027650D01*
X0178605Y0025688D02*
X0178605Y0024666D01*
X0178605Y0025177D02*
X0174005Y0025177D01*
X0174005Y0024666D02*
X0174005Y0025688D01*
X0176816Y0022811D02*
X0176816Y0019744D01*
X0133741Y0024549D02*
X0133741Y0025571D01*
X0133741Y0025060D02*
X0129141Y0025060D01*
X0129141Y0024549D02*
X0129141Y0025571D01*
X0129141Y0027533D02*
X0133741Y0030088D01*
X0129141Y0030088D01*
X0129141Y0027533D02*
X0133741Y0027533D01*
X0131952Y0022694D02*
X0131952Y0019627D01*
X0133485Y0021160D02*
X0130419Y0021160D01*
X0132341Y0063102D02*
X0132341Y0066169D01*
X0132852Y0068158D02*
X0130808Y0068158D01*
X0130808Y0068157D02*
X0130738Y0068159D01*
X0130667Y0068165D01*
X0130598Y0068174D01*
X0130529Y0068188D01*
X0130460Y0068205D01*
X0130393Y0068226D01*
X0130327Y0068251D01*
X0130263Y0068279D01*
X0130200Y0068311D01*
X0130139Y0068346D01*
X0130080Y0068385D01*
X0130023Y0068426D01*
X0129969Y0068471D01*
X0129917Y0068519D01*
X0129868Y0068569D01*
X0129821Y0068623D01*
X0129778Y0068678D01*
X0129738Y0068736D01*
X0129701Y0068796D01*
X0129668Y0068858D01*
X0129638Y0068922D01*
X0129611Y0068987D01*
X0129588Y0069053D01*
X0129569Y0069121D01*
X0129554Y0069190D01*
X0129542Y0069259D01*
X0129534Y0069329D01*
X0129530Y0069400D01*
X0129530Y0069470D01*
X0129534Y0069541D01*
X0129542Y0069611D01*
X0129554Y0069680D01*
X0129569Y0069749D01*
X0129588Y0069817D01*
X0129611Y0069883D01*
X0129638Y0069948D01*
X0129668Y0070012D01*
X0129701Y0070074D01*
X0129738Y0070134D01*
X0129778Y0070192D01*
X0129821Y0070247D01*
X0129868Y0070301D01*
X0129917Y0070351D01*
X0129969Y0070399D01*
X0130023Y0070444D01*
X0130080Y0070485D01*
X0130139Y0070524D01*
X0130200Y0070559D01*
X0130263Y0070591D01*
X0130327Y0070619D01*
X0130393Y0070644D01*
X0130460Y0070665D01*
X0130529Y0070682D01*
X0130598Y0070696D01*
X0130667Y0070705D01*
X0130738Y0070711D01*
X0130808Y0070713D01*
X0132852Y0070713D01*
X0132922Y0070711D01*
X0132993Y0070705D01*
X0133062Y0070696D01*
X0133131Y0070682D01*
X0133200Y0070665D01*
X0133267Y0070644D01*
X0133333Y0070619D01*
X0133397Y0070591D01*
X0133460Y0070559D01*
X0133521Y0070524D01*
X0133580Y0070485D01*
X0133637Y0070444D01*
X0133691Y0070399D01*
X0133743Y0070351D01*
X0133792Y0070301D01*
X0133839Y0070247D01*
X0133882Y0070192D01*
X0133922Y0070134D01*
X0133959Y0070074D01*
X0133992Y0070012D01*
X0134022Y0069948D01*
X0134049Y0069883D01*
X0134072Y0069817D01*
X0134091Y0069749D01*
X0134106Y0069680D01*
X0134118Y0069611D01*
X0134126Y0069541D01*
X0134130Y0069470D01*
X0134130Y0069400D01*
X0134126Y0069329D01*
X0134118Y0069259D01*
X0134106Y0069190D01*
X0134091Y0069121D01*
X0134072Y0069053D01*
X0134049Y0068987D01*
X0134022Y0068922D01*
X0133992Y0068858D01*
X0133959Y0068796D01*
X0133922Y0068736D01*
X0133882Y0068678D01*
X0133839Y0068623D01*
X0133792Y0068569D01*
X0133743Y0068519D01*
X0133691Y0068471D01*
X0133637Y0068426D01*
X0133580Y0068385D01*
X0133521Y0068346D01*
X0133460Y0068311D01*
X0133397Y0068279D01*
X0133333Y0068251D01*
X0133267Y0068226D01*
X0133200Y0068205D01*
X0133131Y0068188D01*
X0133062Y0068174D01*
X0132993Y0068165D01*
X0132922Y0068159D01*
X0132852Y0068157D01*
X0133874Y0064635D02*
X0130808Y0064635D01*
X0129530Y0072808D02*
X0132852Y0072808D01*
X0132852Y0072807D02*
X0132922Y0072809D01*
X0132993Y0072815D01*
X0133062Y0072824D01*
X0133131Y0072838D01*
X0133200Y0072855D01*
X0133267Y0072876D01*
X0133333Y0072901D01*
X0133397Y0072929D01*
X0133460Y0072961D01*
X0133521Y0072996D01*
X0133580Y0073035D01*
X0133637Y0073076D01*
X0133691Y0073121D01*
X0133743Y0073169D01*
X0133792Y0073219D01*
X0133839Y0073273D01*
X0133882Y0073328D01*
X0133922Y0073386D01*
X0133959Y0073446D01*
X0133992Y0073508D01*
X0134022Y0073572D01*
X0134049Y0073637D01*
X0134072Y0073703D01*
X0134091Y0073771D01*
X0134106Y0073840D01*
X0134118Y0073909D01*
X0134126Y0073979D01*
X0134130Y0074050D01*
X0134130Y0074120D01*
X0134126Y0074191D01*
X0134118Y0074261D01*
X0134106Y0074330D01*
X0134091Y0074399D01*
X0134072Y0074467D01*
X0134049Y0074533D01*
X0134022Y0074598D01*
X0133992Y0074662D01*
X0133959Y0074724D01*
X0133922Y0074784D01*
X0133882Y0074842D01*
X0133839Y0074897D01*
X0133792Y0074951D01*
X0133743Y0075001D01*
X0133691Y0075049D01*
X0133637Y0075094D01*
X0133580Y0075135D01*
X0133521Y0075174D01*
X0133460Y0075209D01*
X0133397Y0075241D01*
X0133333Y0075269D01*
X0133267Y0075294D01*
X0133200Y0075315D01*
X0133131Y0075332D01*
X0133062Y0075346D01*
X0132993Y0075355D01*
X0132922Y0075361D01*
X0132852Y0075363D01*
X0129530Y0075363D01*
X0129530Y0077158D02*
X0129530Y0079713D01*
X0129530Y0078435D02*
X0134130Y0078435D01*
X0182400Y0115867D02*
X0182911Y0115867D01*
X0184444Y0120467D01*
X0182400Y0120467D02*
X0183422Y0117400D01*
X0194900Y0105467D02*
X0196944Y0102400D01*
X0194900Y0102400D02*
X0196944Y0105467D01*
X0197400Y0132400D02*
X0197400Y0133422D01*
X0197400Y0132911D02*
X0202000Y0132911D01*
X0202000Y0132400D02*
X0202000Y0133422D01*
X0202000Y0136211D02*
X0197400Y0136211D01*
X0197400Y0134933D02*
X0197400Y0137489D01*
X0198422Y0139283D02*
X0200978Y0139283D01*
X0200978Y0139284D02*
X0201040Y0139286D01*
X0201101Y0139291D01*
X0201162Y0139301D01*
X0201223Y0139314D01*
X0201282Y0139330D01*
X0201340Y0139350D01*
X0201397Y0139374D01*
X0201453Y0139401D01*
X0201507Y0139431D01*
X0201559Y0139465D01*
X0201608Y0139501D01*
X0201656Y0139541D01*
X0201701Y0139583D01*
X0201743Y0139628D01*
X0201783Y0139676D01*
X0201819Y0139725D01*
X0201853Y0139777D01*
X0201883Y0139831D01*
X0201910Y0139887D01*
X0201934Y0139944D01*
X0201954Y0140002D01*
X0201970Y0140061D01*
X0201983Y0140122D01*
X0201993Y0140183D01*
X0201998Y0140244D01*
X0202000Y0140306D01*
X0202000Y0141839D01*
X0199444Y0141839D01*
X0199444Y0141072D01*
X0198422Y0139284D02*
X0198360Y0139286D01*
X0198299Y0139291D01*
X0198238Y0139301D01*
X0198177Y0139314D01*
X0198118Y0139330D01*
X0198060Y0139350D01*
X0198003Y0139374D01*
X0197947Y0139401D01*
X0197893Y0139431D01*
X0197841Y0139465D01*
X0197792Y0139501D01*
X0197744Y0139541D01*
X0197699Y0139583D01*
X0197657Y0139628D01*
X0197618Y0139676D01*
X0197581Y0139725D01*
X0197547Y0139777D01*
X0197517Y0139831D01*
X0197490Y0139887D01*
X0197466Y0139944D01*
X0197446Y0140002D01*
X0197430Y0140061D01*
X0197417Y0140122D01*
X0197407Y0140183D01*
X0197402Y0140244D01*
X0197400Y0140306D01*
X0197400Y0141839D01*
X0196889Y0145783D02*
X0202511Y0143739D01*
X0202000Y0147728D02*
X0197400Y0147728D01*
X0199956Y0149261D01*
X0197400Y0150794D01*
X0202000Y0150794D01*
X0202000Y0153150D02*
X0197400Y0153150D01*
X0197400Y0154428D01*
X0197402Y0154498D01*
X0197408Y0154569D01*
X0197417Y0154638D01*
X0197431Y0154707D01*
X0197448Y0154776D01*
X0197469Y0154843D01*
X0197494Y0154909D01*
X0197522Y0154973D01*
X0197554Y0155036D01*
X0197589Y0155097D01*
X0197628Y0155156D01*
X0197669Y0155213D01*
X0197714Y0155267D01*
X0197762Y0155319D01*
X0197812Y0155368D01*
X0197866Y0155415D01*
X0197921Y0155458D01*
X0197979Y0155498D01*
X0198039Y0155535D01*
X0198101Y0155568D01*
X0198165Y0155598D01*
X0198230Y0155625D01*
X0198296Y0155648D01*
X0198364Y0155667D01*
X0198433Y0155682D01*
X0198502Y0155694D01*
X0198572Y0155702D01*
X0198643Y0155706D01*
X0198713Y0155706D01*
X0198784Y0155702D01*
X0198854Y0155694D01*
X0198923Y0155682D01*
X0198992Y0155667D01*
X0199060Y0155648D01*
X0199126Y0155625D01*
X0199191Y0155598D01*
X0199255Y0155568D01*
X0199317Y0155535D01*
X0199377Y0155498D01*
X0199435Y0155458D01*
X0199490Y0155415D01*
X0199544Y0155368D01*
X0199594Y0155319D01*
X0199642Y0155267D01*
X0199687Y0155213D01*
X0199728Y0155156D01*
X0199767Y0155097D01*
X0199802Y0155036D01*
X0199834Y0154973D01*
X0199862Y0154909D01*
X0199887Y0154843D01*
X0199908Y0154776D01*
X0199925Y0154707D01*
X0199939Y0154638D01*
X0199948Y0154569D01*
X0199954Y0154498D01*
X0199956Y0154428D01*
X0199956Y0153150D01*
X0200722Y0157583D02*
X0197400Y0157583D01*
X0197400Y0160139D02*
X0200722Y0160139D01*
X0200792Y0160137D01*
X0200863Y0160131D01*
X0200932Y0160122D01*
X0201001Y0160108D01*
X0201070Y0160091D01*
X0201137Y0160070D01*
X0201203Y0160045D01*
X0201267Y0160017D01*
X0201330Y0159985D01*
X0201391Y0159950D01*
X0201450Y0159911D01*
X0201507Y0159870D01*
X0201561Y0159825D01*
X0201613Y0159777D01*
X0201662Y0159727D01*
X0201709Y0159673D01*
X0201752Y0159618D01*
X0201792Y0159560D01*
X0201829Y0159500D01*
X0201862Y0159438D01*
X0201892Y0159374D01*
X0201919Y0159309D01*
X0201942Y0159243D01*
X0201961Y0159175D01*
X0201976Y0159106D01*
X0201988Y0159037D01*
X0201996Y0158967D01*
X0202000Y0158896D01*
X0202000Y0158826D01*
X0201996Y0158755D01*
X0201988Y0158685D01*
X0201976Y0158616D01*
X0201961Y0158547D01*
X0201942Y0158479D01*
X0201919Y0158413D01*
X0201892Y0158348D01*
X0201862Y0158284D01*
X0201829Y0158222D01*
X0201792Y0158162D01*
X0201752Y0158104D01*
X0201709Y0158049D01*
X0201662Y0157995D01*
X0201613Y0157945D01*
X0201561Y0157897D01*
X0201507Y0157852D01*
X0201450Y0157811D01*
X0201391Y0157772D01*
X0201330Y0157737D01*
X0201267Y0157705D01*
X0201203Y0157677D01*
X0201137Y0157652D01*
X0201070Y0157631D01*
X0201001Y0157614D01*
X0200932Y0157600D01*
X0200863Y0157591D01*
X0200792Y0157585D01*
X0200722Y0157583D01*
X0079956Y0038612D02*
X0079954Y0038682D01*
X0079948Y0038753D01*
X0079939Y0038822D01*
X0079925Y0038891D01*
X0079908Y0038960D01*
X0079887Y0039027D01*
X0079862Y0039093D01*
X0079834Y0039157D01*
X0079802Y0039220D01*
X0079767Y0039281D01*
X0079728Y0039340D01*
X0079687Y0039397D01*
X0079642Y0039451D01*
X0079594Y0039503D01*
X0079544Y0039552D01*
X0079490Y0039599D01*
X0079435Y0039642D01*
X0079377Y0039682D01*
X0079317Y0039719D01*
X0079255Y0039752D01*
X0079191Y0039782D01*
X0079126Y0039809D01*
X0079060Y0039832D01*
X0078992Y0039851D01*
X0078923Y0039866D01*
X0078854Y0039878D01*
X0078784Y0039886D01*
X0078713Y0039890D01*
X0078643Y0039890D01*
X0078572Y0039886D01*
X0078502Y0039878D01*
X0078433Y0039866D01*
X0078364Y0039851D01*
X0078296Y0039832D01*
X0078230Y0039809D01*
X0078165Y0039782D01*
X0078101Y0039752D01*
X0078039Y0039719D01*
X0077979Y0039682D01*
X0077921Y0039642D01*
X0077866Y0039599D01*
X0077812Y0039552D01*
X0077762Y0039503D01*
X0077714Y0039451D01*
X0077669Y0039397D01*
X0077628Y0039340D01*
X0077589Y0039281D01*
X0077554Y0039220D01*
X0077522Y0039157D01*
X0077494Y0039093D01*
X0077469Y0039027D01*
X0077448Y0038960D01*
X0077431Y0038891D01*
X0077417Y0038822D01*
X0077408Y0038753D01*
X0077402Y0038682D01*
X0077400Y0038612D01*
M02*
