%
M48
M72
T01C0.03150
T02C0.03937
T03C0.04000
T04C0.07000
%
T01
X52200Y22200
X52200Y32200
X52200Y42200
X52200Y52200
X52200Y62200
X52200Y72200
X52200Y82200
X52200Y92200
X52200Y102200
X52200Y112200
X52200Y122200
X52200Y132200
X52200Y142200
X52200Y152200
X52200Y162200
X112200Y162200
X112200Y152200
X112200Y142200
X112200Y132200
X112200Y122200
X112200Y112200
X112200Y102200
X112200Y92200
X112200Y82200
X112200Y72200
X112200Y62200
X112200Y52200
X112200Y42200
X112200Y32200
X112200Y22200
X152200Y102200
X152200Y112200
X152200Y122200
X152200Y132200
X152200Y142200
X152200Y152200
X152200Y162200
X152200Y172200
T02
X136609Y87476
X126609Y87476
X170822Y87476
X180861Y87476
X180861Y13539
X170984Y13539
X136609Y13539
X126609Y13539
T03
X12200Y22200
X12200Y32200
X12200Y42200
X22200Y42200
X22200Y32200
X22200Y22200
X32200Y22200
X32200Y32200
X32200Y42200
X22200Y52200
X22200Y62200
X22200Y72200
X22200Y82200
X22200Y92200
X22200Y102200
X22200Y112200
X12200Y112200
X12200Y102200
X12200Y92200
X32200Y92200
X32200Y102200
X32200Y112200
X32200Y142200
X32200Y152200
X32200Y162200
X32200Y172200
X201700Y88700
X201700Y78700
X201700Y68700
X201700Y58700
X202200Y45700
X202200Y32200
X202200Y22200
X202200Y12200
T04
X112200Y12200
X52200Y12200
X52200Y172200
X112200Y172200
M30
