G75*
%MOIN*%
%OFA0B0*%
%FSLAX25Y25*%
%IPPOS*%
%LPD*%
%AMOC8*
5,1,8,0,0,1.08239X$1,22.5*
%
%ADD10C,0.00000*%
%ADD11C,0.00300*%
%ADD12OC8,0.07600*%
%ADD13R,0.05150X0.05150*%
%ADD14C,0.05150*%
%ADD15C,0.06000*%
%ADD16R,0.07098X0.06299*%
%ADD17C,0.06000*%
%ADD18R,0.10000X0.10000*%
%ADD19C,0.07000*%
%ADD20C,0.00600*%
%ADD21C,0.01200*%
D10*
X0005700Y0004700D02*
X0005700Y0180161D01*
X0208901Y0180161D01*
X0208901Y0004700D01*
X0005700Y0004700D01*
X0048700Y0012200D02*
X0048702Y0012318D01*
X0048708Y0012436D01*
X0048718Y0012554D01*
X0048732Y0012671D01*
X0048750Y0012788D01*
X0048772Y0012905D01*
X0048797Y0013020D01*
X0048827Y0013134D01*
X0048861Y0013248D01*
X0048898Y0013360D01*
X0048939Y0013471D01*
X0048984Y0013580D01*
X0049032Y0013688D01*
X0049084Y0013794D01*
X0049140Y0013899D01*
X0049199Y0014001D01*
X0049261Y0014101D01*
X0049327Y0014199D01*
X0049396Y0014295D01*
X0049469Y0014389D01*
X0049544Y0014480D01*
X0049623Y0014568D01*
X0049704Y0014654D01*
X0049789Y0014737D01*
X0049876Y0014817D01*
X0049965Y0014894D01*
X0050058Y0014968D01*
X0050152Y0015038D01*
X0050249Y0015106D01*
X0050349Y0015170D01*
X0050450Y0015231D01*
X0050553Y0015288D01*
X0050659Y0015342D01*
X0050766Y0015393D01*
X0050874Y0015439D01*
X0050984Y0015482D01*
X0051096Y0015521D01*
X0051209Y0015557D01*
X0051323Y0015588D01*
X0051438Y0015616D01*
X0051553Y0015640D01*
X0051670Y0015660D01*
X0051787Y0015676D01*
X0051905Y0015688D01*
X0052023Y0015696D01*
X0052141Y0015700D01*
X0052259Y0015700D01*
X0052377Y0015696D01*
X0052495Y0015688D01*
X0052613Y0015676D01*
X0052730Y0015660D01*
X0052847Y0015640D01*
X0052962Y0015616D01*
X0053077Y0015588D01*
X0053191Y0015557D01*
X0053304Y0015521D01*
X0053416Y0015482D01*
X0053526Y0015439D01*
X0053634Y0015393D01*
X0053741Y0015342D01*
X0053847Y0015288D01*
X0053950Y0015231D01*
X0054051Y0015170D01*
X0054151Y0015106D01*
X0054248Y0015038D01*
X0054342Y0014968D01*
X0054435Y0014894D01*
X0054524Y0014817D01*
X0054611Y0014737D01*
X0054696Y0014654D01*
X0054777Y0014568D01*
X0054856Y0014480D01*
X0054931Y0014389D01*
X0055004Y0014295D01*
X0055073Y0014199D01*
X0055139Y0014101D01*
X0055201Y0014001D01*
X0055260Y0013899D01*
X0055316Y0013794D01*
X0055368Y0013688D01*
X0055416Y0013580D01*
X0055461Y0013471D01*
X0055502Y0013360D01*
X0055539Y0013248D01*
X0055573Y0013134D01*
X0055603Y0013020D01*
X0055628Y0012905D01*
X0055650Y0012788D01*
X0055668Y0012671D01*
X0055682Y0012554D01*
X0055692Y0012436D01*
X0055698Y0012318D01*
X0055700Y0012200D01*
X0055698Y0012082D01*
X0055692Y0011964D01*
X0055682Y0011846D01*
X0055668Y0011729D01*
X0055650Y0011612D01*
X0055628Y0011495D01*
X0055603Y0011380D01*
X0055573Y0011266D01*
X0055539Y0011152D01*
X0055502Y0011040D01*
X0055461Y0010929D01*
X0055416Y0010820D01*
X0055368Y0010712D01*
X0055316Y0010606D01*
X0055260Y0010501D01*
X0055201Y0010399D01*
X0055139Y0010299D01*
X0055073Y0010201D01*
X0055004Y0010105D01*
X0054931Y0010011D01*
X0054856Y0009920D01*
X0054777Y0009832D01*
X0054696Y0009746D01*
X0054611Y0009663D01*
X0054524Y0009583D01*
X0054435Y0009506D01*
X0054342Y0009432D01*
X0054248Y0009362D01*
X0054151Y0009294D01*
X0054051Y0009230D01*
X0053950Y0009169D01*
X0053847Y0009112D01*
X0053741Y0009058D01*
X0053634Y0009007D01*
X0053526Y0008961D01*
X0053416Y0008918D01*
X0053304Y0008879D01*
X0053191Y0008843D01*
X0053077Y0008812D01*
X0052962Y0008784D01*
X0052847Y0008760D01*
X0052730Y0008740D01*
X0052613Y0008724D01*
X0052495Y0008712D01*
X0052377Y0008704D01*
X0052259Y0008700D01*
X0052141Y0008700D01*
X0052023Y0008704D01*
X0051905Y0008712D01*
X0051787Y0008724D01*
X0051670Y0008740D01*
X0051553Y0008760D01*
X0051438Y0008784D01*
X0051323Y0008812D01*
X0051209Y0008843D01*
X0051096Y0008879D01*
X0050984Y0008918D01*
X0050874Y0008961D01*
X0050766Y0009007D01*
X0050659Y0009058D01*
X0050553Y0009112D01*
X0050450Y0009169D01*
X0050349Y0009230D01*
X0050249Y0009294D01*
X0050152Y0009362D01*
X0050058Y0009432D01*
X0049965Y0009506D01*
X0049876Y0009583D01*
X0049789Y0009663D01*
X0049704Y0009746D01*
X0049623Y0009832D01*
X0049544Y0009920D01*
X0049469Y0010011D01*
X0049396Y0010105D01*
X0049327Y0010201D01*
X0049261Y0010299D01*
X0049199Y0010399D01*
X0049140Y0010501D01*
X0049084Y0010606D01*
X0049032Y0010712D01*
X0048984Y0010820D01*
X0048939Y0010929D01*
X0048898Y0011040D01*
X0048861Y0011152D01*
X0048827Y0011266D01*
X0048797Y0011380D01*
X0048772Y0011495D01*
X0048750Y0011612D01*
X0048732Y0011729D01*
X0048718Y0011846D01*
X0048708Y0011964D01*
X0048702Y0012082D01*
X0048700Y0012200D01*
X0108700Y0012200D02*
X0108702Y0012318D01*
X0108708Y0012436D01*
X0108718Y0012554D01*
X0108732Y0012671D01*
X0108750Y0012788D01*
X0108772Y0012905D01*
X0108797Y0013020D01*
X0108827Y0013134D01*
X0108861Y0013248D01*
X0108898Y0013360D01*
X0108939Y0013471D01*
X0108984Y0013580D01*
X0109032Y0013688D01*
X0109084Y0013794D01*
X0109140Y0013899D01*
X0109199Y0014001D01*
X0109261Y0014101D01*
X0109327Y0014199D01*
X0109396Y0014295D01*
X0109469Y0014389D01*
X0109544Y0014480D01*
X0109623Y0014568D01*
X0109704Y0014654D01*
X0109789Y0014737D01*
X0109876Y0014817D01*
X0109965Y0014894D01*
X0110058Y0014968D01*
X0110152Y0015038D01*
X0110249Y0015106D01*
X0110349Y0015170D01*
X0110450Y0015231D01*
X0110553Y0015288D01*
X0110659Y0015342D01*
X0110766Y0015393D01*
X0110874Y0015439D01*
X0110984Y0015482D01*
X0111096Y0015521D01*
X0111209Y0015557D01*
X0111323Y0015588D01*
X0111438Y0015616D01*
X0111553Y0015640D01*
X0111670Y0015660D01*
X0111787Y0015676D01*
X0111905Y0015688D01*
X0112023Y0015696D01*
X0112141Y0015700D01*
X0112259Y0015700D01*
X0112377Y0015696D01*
X0112495Y0015688D01*
X0112613Y0015676D01*
X0112730Y0015660D01*
X0112847Y0015640D01*
X0112962Y0015616D01*
X0113077Y0015588D01*
X0113191Y0015557D01*
X0113304Y0015521D01*
X0113416Y0015482D01*
X0113526Y0015439D01*
X0113634Y0015393D01*
X0113741Y0015342D01*
X0113847Y0015288D01*
X0113950Y0015231D01*
X0114051Y0015170D01*
X0114151Y0015106D01*
X0114248Y0015038D01*
X0114342Y0014968D01*
X0114435Y0014894D01*
X0114524Y0014817D01*
X0114611Y0014737D01*
X0114696Y0014654D01*
X0114777Y0014568D01*
X0114856Y0014480D01*
X0114931Y0014389D01*
X0115004Y0014295D01*
X0115073Y0014199D01*
X0115139Y0014101D01*
X0115201Y0014001D01*
X0115260Y0013899D01*
X0115316Y0013794D01*
X0115368Y0013688D01*
X0115416Y0013580D01*
X0115461Y0013471D01*
X0115502Y0013360D01*
X0115539Y0013248D01*
X0115573Y0013134D01*
X0115603Y0013020D01*
X0115628Y0012905D01*
X0115650Y0012788D01*
X0115668Y0012671D01*
X0115682Y0012554D01*
X0115692Y0012436D01*
X0115698Y0012318D01*
X0115700Y0012200D01*
X0115698Y0012082D01*
X0115692Y0011964D01*
X0115682Y0011846D01*
X0115668Y0011729D01*
X0115650Y0011612D01*
X0115628Y0011495D01*
X0115603Y0011380D01*
X0115573Y0011266D01*
X0115539Y0011152D01*
X0115502Y0011040D01*
X0115461Y0010929D01*
X0115416Y0010820D01*
X0115368Y0010712D01*
X0115316Y0010606D01*
X0115260Y0010501D01*
X0115201Y0010399D01*
X0115139Y0010299D01*
X0115073Y0010201D01*
X0115004Y0010105D01*
X0114931Y0010011D01*
X0114856Y0009920D01*
X0114777Y0009832D01*
X0114696Y0009746D01*
X0114611Y0009663D01*
X0114524Y0009583D01*
X0114435Y0009506D01*
X0114342Y0009432D01*
X0114248Y0009362D01*
X0114151Y0009294D01*
X0114051Y0009230D01*
X0113950Y0009169D01*
X0113847Y0009112D01*
X0113741Y0009058D01*
X0113634Y0009007D01*
X0113526Y0008961D01*
X0113416Y0008918D01*
X0113304Y0008879D01*
X0113191Y0008843D01*
X0113077Y0008812D01*
X0112962Y0008784D01*
X0112847Y0008760D01*
X0112730Y0008740D01*
X0112613Y0008724D01*
X0112495Y0008712D01*
X0112377Y0008704D01*
X0112259Y0008700D01*
X0112141Y0008700D01*
X0112023Y0008704D01*
X0111905Y0008712D01*
X0111787Y0008724D01*
X0111670Y0008740D01*
X0111553Y0008760D01*
X0111438Y0008784D01*
X0111323Y0008812D01*
X0111209Y0008843D01*
X0111096Y0008879D01*
X0110984Y0008918D01*
X0110874Y0008961D01*
X0110766Y0009007D01*
X0110659Y0009058D01*
X0110553Y0009112D01*
X0110450Y0009169D01*
X0110349Y0009230D01*
X0110249Y0009294D01*
X0110152Y0009362D01*
X0110058Y0009432D01*
X0109965Y0009506D01*
X0109876Y0009583D01*
X0109789Y0009663D01*
X0109704Y0009746D01*
X0109623Y0009832D01*
X0109544Y0009920D01*
X0109469Y0010011D01*
X0109396Y0010105D01*
X0109327Y0010201D01*
X0109261Y0010299D01*
X0109199Y0010399D01*
X0109140Y0010501D01*
X0109084Y0010606D01*
X0109032Y0010712D01*
X0108984Y0010820D01*
X0108939Y0010929D01*
X0108898Y0011040D01*
X0108861Y0011152D01*
X0108827Y0011266D01*
X0108797Y0011380D01*
X0108772Y0011495D01*
X0108750Y0011612D01*
X0108732Y0011729D01*
X0108718Y0011846D01*
X0108708Y0011964D01*
X0108702Y0012082D01*
X0108700Y0012200D01*
X0108700Y0172200D02*
X0108702Y0172318D01*
X0108708Y0172436D01*
X0108718Y0172554D01*
X0108732Y0172671D01*
X0108750Y0172788D01*
X0108772Y0172905D01*
X0108797Y0173020D01*
X0108827Y0173134D01*
X0108861Y0173248D01*
X0108898Y0173360D01*
X0108939Y0173471D01*
X0108984Y0173580D01*
X0109032Y0173688D01*
X0109084Y0173794D01*
X0109140Y0173899D01*
X0109199Y0174001D01*
X0109261Y0174101D01*
X0109327Y0174199D01*
X0109396Y0174295D01*
X0109469Y0174389D01*
X0109544Y0174480D01*
X0109623Y0174568D01*
X0109704Y0174654D01*
X0109789Y0174737D01*
X0109876Y0174817D01*
X0109965Y0174894D01*
X0110058Y0174968D01*
X0110152Y0175038D01*
X0110249Y0175106D01*
X0110349Y0175170D01*
X0110450Y0175231D01*
X0110553Y0175288D01*
X0110659Y0175342D01*
X0110766Y0175393D01*
X0110874Y0175439D01*
X0110984Y0175482D01*
X0111096Y0175521D01*
X0111209Y0175557D01*
X0111323Y0175588D01*
X0111438Y0175616D01*
X0111553Y0175640D01*
X0111670Y0175660D01*
X0111787Y0175676D01*
X0111905Y0175688D01*
X0112023Y0175696D01*
X0112141Y0175700D01*
X0112259Y0175700D01*
X0112377Y0175696D01*
X0112495Y0175688D01*
X0112613Y0175676D01*
X0112730Y0175660D01*
X0112847Y0175640D01*
X0112962Y0175616D01*
X0113077Y0175588D01*
X0113191Y0175557D01*
X0113304Y0175521D01*
X0113416Y0175482D01*
X0113526Y0175439D01*
X0113634Y0175393D01*
X0113741Y0175342D01*
X0113847Y0175288D01*
X0113950Y0175231D01*
X0114051Y0175170D01*
X0114151Y0175106D01*
X0114248Y0175038D01*
X0114342Y0174968D01*
X0114435Y0174894D01*
X0114524Y0174817D01*
X0114611Y0174737D01*
X0114696Y0174654D01*
X0114777Y0174568D01*
X0114856Y0174480D01*
X0114931Y0174389D01*
X0115004Y0174295D01*
X0115073Y0174199D01*
X0115139Y0174101D01*
X0115201Y0174001D01*
X0115260Y0173899D01*
X0115316Y0173794D01*
X0115368Y0173688D01*
X0115416Y0173580D01*
X0115461Y0173471D01*
X0115502Y0173360D01*
X0115539Y0173248D01*
X0115573Y0173134D01*
X0115603Y0173020D01*
X0115628Y0172905D01*
X0115650Y0172788D01*
X0115668Y0172671D01*
X0115682Y0172554D01*
X0115692Y0172436D01*
X0115698Y0172318D01*
X0115700Y0172200D01*
X0115698Y0172082D01*
X0115692Y0171964D01*
X0115682Y0171846D01*
X0115668Y0171729D01*
X0115650Y0171612D01*
X0115628Y0171495D01*
X0115603Y0171380D01*
X0115573Y0171266D01*
X0115539Y0171152D01*
X0115502Y0171040D01*
X0115461Y0170929D01*
X0115416Y0170820D01*
X0115368Y0170712D01*
X0115316Y0170606D01*
X0115260Y0170501D01*
X0115201Y0170399D01*
X0115139Y0170299D01*
X0115073Y0170201D01*
X0115004Y0170105D01*
X0114931Y0170011D01*
X0114856Y0169920D01*
X0114777Y0169832D01*
X0114696Y0169746D01*
X0114611Y0169663D01*
X0114524Y0169583D01*
X0114435Y0169506D01*
X0114342Y0169432D01*
X0114248Y0169362D01*
X0114151Y0169294D01*
X0114051Y0169230D01*
X0113950Y0169169D01*
X0113847Y0169112D01*
X0113741Y0169058D01*
X0113634Y0169007D01*
X0113526Y0168961D01*
X0113416Y0168918D01*
X0113304Y0168879D01*
X0113191Y0168843D01*
X0113077Y0168812D01*
X0112962Y0168784D01*
X0112847Y0168760D01*
X0112730Y0168740D01*
X0112613Y0168724D01*
X0112495Y0168712D01*
X0112377Y0168704D01*
X0112259Y0168700D01*
X0112141Y0168700D01*
X0112023Y0168704D01*
X0111905Y0168712D01*
X0111787Y0168724D01*
X0111670Y0168740D01*
X0111553Y0168760D01*
X0111438Y0168784D01*
X0111323Y0168812D01*
X0111209Y0168843D01*
X0111096Y0168879D01*
X0110984Y0168918D01*
X0110874Y0168961D01*
X0110766Y0169007D01*
X0110659Y0169058D01*
X0110553Y0169112D01*
X0110450Y0169169D01*
X0110349Y0169230D01*
X0110249Y0169294D01*
X0110152Y0169362D01*
X0110058Y0169432D01*
X0109965Y0169506D01*
X0109876Y0169583D01*
X0109789Y0169663D01*
X0109704Y0169746D01*
X0109623Y0169832D01*
X0109544Y0169920D01*
X0109469Y0170011D01*
X0109396Y0170105D01*
X0109327Y0170201D01*
X0109261Y0170299D01*
X0109199Y0170399D01*
X0109140Y0170501D01*
X0109084Y0170606D01*
X0109032Y0170712D01*
X0108984Y0170820D01*
X0108939Y0170929D01*
X0108898Y0171040D01*
X0108861Y0171152D01*
X0108827Y0171266D01*
X0108797Y0171380D01*
X0108772Y0171495D01*
X0108750Y0171612D01*
X0108732Y0171729D01*
X0108718Y0171846D01*
X0108708Y0171964D01*
X0108702Y0172082D01*
X0108700Y0172200D01*
X0048700Y0172200D02*
X0048702Y0172318D01*
X0048708Y0172436D01*
X0048718Y0172554D01*
X0048732Y0172671D01*
X0048750Y0172788D01*
X0048772Y0172905D01*
X0048797Y0173020D01*
X0048827Y0173134D01*
X0048861Y0173248D01*
X0048898Y0173360D01*
X0048939Y0173471D01*
X0048984Y0173580D01*
X0049032Y0173688D01*
X0049084Y0173794D01*
X0049140Y0173899D01*
X0049199Y0174001D01*
X0049261Y0174101D01*
X0049327Y0174199D01*
X0049396Y0174295D01*
X0049469Y0174389D01*
X0049544Y0174480D01*
X0049623Y0174568D01*
X0049704Y0174654D01*
X0049789Y0174737D01*
X0049876Y0174817D01*
X0049965Y0174894D01*
X0050058Y0174968D01*
X0050152Y0175038D01*
X0050249Y0175106D01*
X0050349Y0175170D01*
X0050450Y0175231D01*
X0050553Y0175288D01*
X0050659Y0175342D01*
X0050766Y0175393D01*
X0050874Y0175439D01*
X0050984Y0175482D01*
X0051096Y0175521D01*
X0051209Y0175557D01*
X0051323Y0175588D01*
X0051438Y0175616D01*
X0051553Y0175640D01*
X0051670Y0175660D01*
X0051787Y0175676D01*
X0051905Y0175688D01*
X0052023Y0175696D01*
X0052141Y0175700D01*
X0052259Y0175700D01*
X0052377Y0175696D01*
X0052495Y0175688D01*
X0052613Y0175676D01*
X0052730Y0175660D01*
X0052847Y0175640D01*
X0052962Y0175616D01*
X0053077Y0175588D01*
X0053191Y0175557D01*
X0053304Y0175521D01*
X0053416Y0175482D01*
X0053526Y0175439D01*
X0053634Y0175393D01*
X0053741Y0175342D01*
X0053847Y0175288D01*
X0053950Y0175231D01*
X0054051Y0175170D01*
X0054151Y0175106D01*
X0054248Y0175038D01*
X0054342Y0174968D01*
X0054435Y0174894D01*
X0054524Y0174817D01*
X0054611Y0174737D01*
X0054696Y0174654D01*
X0054777Y0174568D01*
X0054856Y0174480D01*
X0054931Y0174389D01*
X0055004Y0174295D01*
X0055073Y0174199D01*
X0055139Y0174101D01*
X0055201Y0174001D01*
X0055260Y0173899D01*
X0055316Y0173794D01*
X0055368Y0173688D01*
X0055416Y0173580D01*
X0055461Y0173471D01*
X0055502Y0173360D01*
X0055539Y0173248D01*
X0055573Y0173134D01*
X0055603Y0173020D01*
X0055628Y0172905D01*
X0055650Y0172788D01*
X0055668Y0172671D01*
X0055682Y0172554D01*
X0055692Y0172436D01*
X0055698Y0172318D01*
X0055700Y0172200D01*
X0055698Y0172082D01*
X0055692Y0171964D01*
X0055682Y0171846D01*
X0055668Y0171729D01*
X0055650Y0171612D01*
X0055628Y0171495D01*
X0055603Y0171380D01*
X0055573Y0171266D01*
X0055539Y0171152D01*
X0055502Y0171040D01*
X0055461Y0170929D01*
X0055416Y0170820D01*
X0055368Y0170712D01*
X0055316Y0170606D01*
X0055260Y0170501D01*
X0055201Y0170399D01*
X0055139Y0170299D01*
X0055073Y0170201D01*
X0055004Y0170105D01*
X0054931Y0170011D01*
X0054856Y0169920D01*
X0054777Y0169832D01*
X0054696Y0169746D01*
X0054611Y0169663D01*
X0054524Y0169583D01*
X0054435Y0169506D01*
X0054342Y0169432D01*
X0054248Y0169362D01*
X0054151Y0169294D01*
X0054051Y0169230D01*
X0053950Y0169169D01*
X0053847Y0169112D01*
X0053741Y0169058D01*
X0053634Y0169007D01*
X0053526Y0168961D01*
X0053416Y0168918D01*
X0053304Y0168879D01*
X0053191Y0168843D01*
X0053077Y0168812D01*
X0052962Y0168784D01*
X0052847Y0168760D01*
X0052730Y0168740D01*
X0052613Y0168724D01*
X0052495Y0168712D01*
X0052377Y0168704D01*
X0052259Y0168700D01*
X0052141Y0168700D01*
X0052023Y0168704D01*
X0051905Y0168712D01*
X0051787Y0168724D01*
X0051670Y0168740D01*
X0051553Y0168760D01*
X0051438Y0168784D01*
X0051323Y0168812D01*
X0051209Y0168843D01*
X0051096Y0168879D01*
X0050984Y0168918D01*
X0050874Y0168961D01*
X0050766Y0169007D01*
X0050659Y0169058D01*
X0050553Y0169112D01*
X0050450Y0169169D01*
X0050349Y0169230D01*
X0050249Y0169294D01*
X0050152Y0169362D01*
X0050058Y0169432D01*
X0049965Y0169506D01*
X0049876Y0169583D01*
X0049789Y0169663D01*
X0049704Y0169746D01*
X0049623Y0169832D01*
X0049544Y0169920D01*
X0049469Y0170011D01*
X0049396Y0170105D01*
X0049327Y0170201D01*
X0049261Y0170299D01*
X0049199Y0170399D01*
X0049140Y0170501D01*
X0049084Y0170606D01*
X0049032Y0170712D01*
X0048984Y0170820D01*
X0048939Y0170929D01*
X0048898Y0171040D01*
X0048861Y0171152D01*
X0048827Y0171266D01*
X0048797Y0171380D01*
X0048772Y0171495D01*
X0048750Y0171612D01*
X0048732Y0171729D01*
X0048718Y0171846D01*
X0048708Y0171964D01*
X0048702Y0172082D01*
X0048700Y0172200D01*
D11*
X0035383Y0074050D02*
X0033605Y0074050D01*
X0033605Y0073694D01*
X0032128Y0073161D02*
X0032128Y0071739D01*
X0032126Y0071681D01*
X0032120Y0071623D01*
X0032111Y0071566D01*
X0032098Y0071509D01*
X0032081Y0071453D01*
X0032060Y0071399D01*
X0032036Y0071346D01*
X0032009Y0071295D01*
X0031978Y0071245D01*
X0031944Y0071198D01*
X0031907Y0071153D01*
X0031868Y0071110D01*
X0031825Y0071071D01*
X0031780Y0071034D01*
X0031733Y0071000D01*
X0031684Y0070969D01*
X0031632Y0070942D01*
X0031579Y0070918D01*
X0031525Y0070897D01*
X0031469Y0070880D01*
X0031412Y0070867D01*
X0031355Y0070858D01*
X0031297Y0070852D01*
X0031239Y0070850D01*
X0030350Y0070850D01*
X0030350Y0074050D01*
X0031239Y0074050D01*
X0031297Y0074048D01*
X0031355Y0074042D01*
X0031412Y0074033D01*
X0031469Y0074020D01*
X0031525Y0074003D01*
X0031579Y0073982D01*
X0031632Y0073958D01*
X0031684Y0073931D01*
X0031733Y0073900D01*
X0031780Y0073866D01*
X0031825Y0073829D01*
X0031868Y0073790D01*
X0031907Y0073747D01*
X0031944Y0073702D01*
X0031978Y0073655D01*
X0032009Y0073606D01*
X0032036Y0073554D01*
X0032060Y0073501D01*
X0032081Y0073447D01*
X0032098Y0073391D01*
X0032111Y0073334D01*
X0032120Y0073277D01*
X0032126Y0073219D01*
X0032128Y0073161D01*
X0034494Y0070850D02*
X0035383Y0074050D01*
X0035205Y0063339D02*
X0035203Y0063287D01*
X0035197Y0063235D01*
X0035188Y0063184D01*
X0035175Y0063134D01*
X0035158Y0063085D01*
X0035138Y0063037D01*
X0035114Y0062991D01*
X0035087Y0062947D01*
X0035057Y0062904D01*
X0035024Y0062865D01*
X0034987Y0062827D01*
X0034949Y0062792D01*
X0034908Y0062761D01*
X0034864Y0062732D01*
X0034819Y0062707D01*
X0034772Y0062685D01*
X0034724Y0062666D01*
X0034674Y0062651D01*
X0034623Y0062640D01*
X0034572Y0062632D01*
X0034520Y0062628D01*
X0034468Y0062628D01*
X0034416Y0062632D01*
X0034365Y0062640D01*
X0034314Y0062651D01*
X0034264Y0062666D01*
X0034216Y0062685D01*
X0034169Y0062707D01*
X0034124Y0062732D01*
X0034080Y0062761D01*
X0034039Y0062792D01*
X0034001Y0062827D01*
X0033964Y0062865D01*
X0033931Y0062904D01*
X0033901Y0062947D01*
X0033874Y0062991D01*
X0033850Y0063037D01*
X0033830Y0063085D01*
X0033813Y0063134D01*
X0033800Y0063184D01*
X0033791Y0063235D01*
X0033785Y0063287D01*
X0033783Y0063339D01*
X0033785Y0063391D01*
X0033791Y0063443D01*
X0033800Y0063494D01*
X0033813Y0063544D01*
X0033830Y0063593D01*
X0033850Y0063641D01*
X0033874Y0063687D01*
X0033901Y0063731D01*
X0033931Y0063774D01*
X0033964Y0063813D01*
X0034001Y0063851D01*
X0034039Y0063886D01*
X0034080Y0063917D01*
X0034124Y0063946D01*
X0034169Y0063971D01*
X0034216Y0063993D01*
X0034264Y0064012D01*
X0034314Y0064027D01*
X0034365Y0064038D01*
X0034416Y0064046D01*
X0034468Y0064050D01*
X0034520Y0064050D01*
X0034572Y0064046D01*
X0034623Y0064038D01*
X0034674Y0064027D01*
X0034724Y0064012D01*
X0034772Y0063993D01*
X0034819Y0063971D01*
X0034864Y0063946D01*
X0034908Y0063917D01*
X0034949Y0063886D01*
X0034987Y0063851D01*
X0035024Y0063813D01*
X0035057Y0063774D01*
X0035087Y0063731D01*
X0035114Y0063687D01*
X0035138Y0063641D01*
X0035158Y0063593D01*
X0035175Y0063544D01*
X0035188Y0063494D01*
X0035197Y0063443D01*
X0035203Y0063391D01*
X0035205Y0063339D01*
X0035383Y0061739D02*
X0035381Y0061681D01*
X0035375Y0061623D01*
X0035366Y0061566D01*
X0035353Y0061509D01*
X0035336Y0061453D01*
X0035315Y0061399D01*
X0035291Y0061346D01*
X0035264Y0061295D01*
X0035233Y0061245D01*
X0035199Y0061198D01*
X0035162Y0061153D01*
X0035123Y0061110D01*
X0035080Y0061071D01*
X0035035Y0061034D01*
X0034988Y0061000D01*
X0034939Y0060969D01*
X0034887Y0060942D01*
X0034834Y0060918D01*
X0034780Y0060897D01*
X0034724Y0060880D01*
X0034667Y0060867D01*
X0034610Y0060858D01*
X0034552Y0060852D01*
X0034494Y0060850D01*
X0034436Y0060852D01*
X0034378Y0060858D01*
X0034321Y0060867D01*
X0034264Y0060880D01*
X0034208Y0060897D01*
X0034154Y0060918D01*
X0034101Y0060942D01*
X0034050Y0060969D01*
X0034000Y0061000D01*
X0033953Y0061034D01*
X0033908Y0061071D01*
X0033865Y0061110D01*
X0033826Y0061153D01*
X0033789Y0061198D01*
X0033755Y0061245D01*
X0033724Y0061295D01*
X0033697Y0061346D01*
X0033673Y0061399D01*
X0033652Y0061453D01*
X0033635Y0061509D01*
X0033622Y0061566D01*
X0033613Y0061623D01*
X0033607Y0061681D01*
X0033605Y0061739D01*
X0033607Y0061797D01*
X0033613Y0061855D01*
X0033622Y0061912D01*
X0033635Y0061969D01*
X0033652Y0062025D01*
X0033673Y0062079D01*
X0033697Y0062132D01*
X0033724Y0062184D01*
X0033755Y0062233D01*
X0033789Y0062280D01*
X0033826Y0062325D01*
X0033865Y0062368D01*
X0033908Y0062407D01*
X0033953Y0062444D01*
X0034000Y0062478D01*
X0034050Y0062509D01*
X0034101Y0062536D01*
X0034154Y0062560D01*
X0034208Y0062581D01*
X0034264Y0062598D01*
X0034321Y0062611D01*
X0034378Y0062620D01*
X0034436Y0062626D01*
X0034494Y0062628D01*
X0034552Y0062626D01*
X0034610Y0062620D01*
X0034667Y0062611D01*
X0034724Y0062598D01*
X0034780Y0062581D01*
X0034834Y0062560D01*
X0034887Y0062536D01*
X0034939Y0062509D01*
X0034988Y0062478D01*
X0035035Y0062444D01*
X0035080Y0062407D01*
X0035123Y0062368D01*
X0035162Y0062325D01*
X0035199Y0062280D01*
X0035233Y0062233D01*
X0035264Y0062184D01*
X0035291Y0062132D01*
X0035315Y0062079D01*
X0035336Y0062025D01*
X0035353Y0061969D01*
X0035366Y0061912D01*
X0035375Y0061855D01*
X0035381Y0061797D01*
X0035383Y0061739D01*
X0032128Y0061739D02*
X0032128Y0063161D01*
X0032126Y0063219D01*
X0032120Y0063277D01*
X0032111Y0063334D01*
X0032098Y0063391D01*
X0032081Y0063447D01*
X0032060Y0063501D01*
X0032036Y0063554D01*
X0032009Y0063606D01*
X0031978Y0063655D01*
X0031944Y0063702D01*
X0031907Y0063747D01*
X0031868Y0063790D01*
X0031825Y0063829D01*
X0031780Y0063866D01*
X0031733Y0063900D01*
X0031684Y0063931D01*
X0031632Y0063958D01*
X0031579Y0063982D01*
X0031525Y0064003D01*
X0031469Y0064020D01*
X0031412Y0064033D01*
X0031355Y0064042D01*
X0031297Y0064048D01*
X0031239Y0064050D01*
X0030350Y0064050D01*
X0030350Y0060850D01*
X0031239Y0060850D01*
X0031297Y0060852D01*
X0031355Y0060858D01*
X0031412Y0060867D01*
X0031469Y0060880D01*
X0031525Y0060897D01*
X0031579Y0060918D01*
X0031632Y0060942D01*
X0031684Y0060969D01*
X0031733Y0061000D01*
X0031780Y0061034D01*
X0031825Y0061071D01*
X0031868Y0061110D01*
X0031907Y0061153D01*
X0031944Y0061198D01*
X0031978Y0061245D01*
X0032009Y0061295D01*
X0032036Y0061346D01*
X0032060Y0061399D01*
X0032081Y0061453D01*
X0032098Y0061509D01*
X0032111Y0061566D01*
X0032120Y0061623D01*
X0032126Y0061681D01*
X0032128Y0061739D01*
D12*
X0202200Y0045700D03*
D13*
X0112200Y0022200D03*
D14*
X0112200Y0032200D03*
X0112200Y0042200D03*
X0112200Y0052200D03*
X0112200Y0062200D03*
X0112200Y0072200D03*
X0112200Y0082200D03*
X0112200Y0092200D03*
X0112200Y0102200D03*
X0112200Y0112200D03*
X0112200Y0122200D03*
X0112200Y0132200D03*
X0112200Y0142200D03*
X0112200Y0152200D03*
X0112200Y0162200D03*
X0052200Y0162200D03*
X0052200Y0152200D03*
X0052200Y0142200D03*
X0052200Y0132200D03*
X0052200Y0122200D03*
X0052200Y0112200D03*
X0052200Y0102200D03*
X0052200Y0092200D03*
X0052200Y0082200D03*
X0052200Y0072200D03*
X0052200Y0062200D03*
X0052200Y0052200D03*
X0052200Y0042200D03*
X0052200Y0032200D03*
X0052200Y0022200D03*
D15*
X0032200Y0022200D03*
X0032200Y0032200D03*
X0032200Y0042200D03*
X0022200Y0042200D03*
X0022200Y0032200D03*
X0022200Y0022200D03*
X0012200Y0022200D03*
X0012200Y0032200D03*
X0012200Y0042200D03*
X0012200Y0092200D03*
X0012200Y0102200D03*
X0012200Y0112200D03*
X0022200Y0112200D03*
X0022200Y0102200D03*
X0022200Y0092200D03*
X0032200Y0092200D03*
X0032200Y0102200D03*
X0032200Y0112200D03*
X0202200Y0032200D03*
X0202200Y0022200D03*
X0202200Y0012200D03*
D16*
X0127200Y0107602D03*
X0127200Y0118798D03*
X0127200Y0131102D03*
X0127200Y0142298D03*
D17*
X0198700Y0088700D02*
X0204700Y0088700D01*
X0204700Y0078700D02*
X0198700Y0078700D01*
X0198700Y0068700D02*
X0204700Y0068700D01*
X0204700Y0058700D02*
X0198700Y0058700D01*
X0035200Y0142200D02*
X0029200Y0142200D01*
X0029200Y0152200D02*
X0035200Y0152200D01*
X0035200Y0162200D02*
X0029200Y0162200D01*
X0029200Y0172200D02*
X0035200Y0172200D01*
X0025200Y0082200D02*
X0019200Y0082200D01*
X0019200Y0072200D02*
X0025200Y0072200D01*
X0025200Y0062200D02*
X0019200Y0062200D01*
X0019200Y0052200D02*
X0025200Y0052200D01*
D18*
X0126609Y0087476D03*
X0136609Y0087476D03*
X0170822Y0087476D03*
X0180861Y0087476D03*
X0180861Y0013539D03*
X0170984Y0013539D03*
X0136609Y0013539D03*
X0126609Y0013539D03*
D19*
X0148700Y0102200D02*
X0155700Y0102200D01*
X0155700Y0112200D02*
X0148700Y0112200D01*
X0148700Y0122200D02*
X0155700Y0122200D01*
X0155700Y0132200D02*
X0148700Y0132200D01*
X0148700Y0142200D02*
X0155700Y0142200D01*
X0155700Y0152200D02*
X0148700Y0152200D01*
X0148700Y0162200D02*
X0155700Y0162200D01*
X0155700Y0172200D02*
X0148700Y0172200D01*
D20*
X0144265Y0174036D02*
X0116635Y0174036D01*
X0116387Y0174634D02*
X0144513Y0174634D01*
X0144631Y0174919D02*
X0143900Y0173155D01*
X0143900Y0171245D01*
X0144631Y0169481D01*
X0145981Y0168131D01*
X0147745Y0167400D01*
X0156655Y0167400D01*
X0158419Y0168131D01*
X0159769Y0169481D01*
X0160500Y0171245D01*
X0160500Y0173155D01*
X0159769Y0174919D01*
X0158419Y0176269D01*
X0156655Y0177000D01*
X0147745Y0177000D01*
X0145981Y0176269D01*
X0144631Y0174919D01*
X0144945Y0175233D02*
X0115955Y0175233D01*
X0116269Y0174919D02*
X0114919Y0176269D01*
X0113155Y0177000D01*
X0111245Y0177000D01*
X0109481Y0176269D01*
X0108131Y0174919D01*
X0107400Y0173155D01*
X0107400Y0171245D01*
X0108131Y0169481D01*
X0109481Y0168131D01*
X0111245Y0167400D01*
X0113155Y0167400D01*
X0114919Y0168131D01*
X0116269Y0169481D01*
X0117000Y0171245D01*
X0117000Y0173155D01*
X0116269Y0174919D01*
X0115357Y0175831D02*
X0145543Y0175831D01*
X0146369Y0176430D02*
X0114531Y0176430D01*
X0116883Y0173437D02*
X0144017Y0173437D01*
X0143900Y0172839D02*
X0117000Y0172839D01*
X0117000Y0172240D02*
X0143900Y0172240D01*
X0143900Y0171642D02*
X0117000Y0171642D01*
X0116916Y0171043D02*
X0143984Y0171043D01*
X0144232Y0170445D02*
X0116668Y0170445D01*
X0116420Y0169846D02*
X0144479Y0169846D01*
X0144864Y0169248D02*
X0116036Y0169248D01*
X0115437Y0168649D02*
X0145463Y0168649D01*
X0146174Y0168051D02*
X0114726Y0168051D01*
X0113281Y0167452D02*
X0147619Y0167452D01*
X0147745Y0167000D02*
X0145981Y0166269D01*
X0144631Y0164919D01*
X0143900Y0163155D01*
X0143900Y0161245D01*
X0144631Y0159481D01*
X0145981Y0158131D01*
X0147745Y0157400D01*
X0156655Y0157400D01*
X0158419Y0158131D01*
X0159769Y0159481D01*
X0160500Y0161245D01*
X0160500Y0163155D01*
X0159769Y0164919D01*
X0158419Y0166269D01*
X0156655Y0167000D01*
X0147745Y0167000D01*
X0147392Y0166854D02*
X0007000Y0166854D01*
X0007000Y0167452D02*
X0051119Y0167452D01*
X0051245Y0167400D02*
X0053155Y0167400D01*
X0054919Y0168131D01*
X0056269Y0169481D01*
X0057000Y0171245D01*
X0057000Y0173155D01*
X0056269Y0174919D01*
X0054919Y0176269D01*
X0053155Y0177000D01*
X0051245Y0177000D01*
X0049481Y0176269D01*
X0048131Y0174919D01*
X0047400Y0173155D01*
X0047400Y0171245D01*
X0048131Y0169481D01*
X0049481Y0168131D01*
X0051245Y0167400D01*
X0051429Y0166075D02*
X0050005Y0165485D01*
X0048915Y0164395D01*
X0048325Y0162971D01*
X0048325Y0161429D01*
X0048915Y0160005D01*
X0050005Y0158915D01*
X0051429Y0158325D01*
X0052971Y0158325D01*
X0054395Y0158915D01*
X0055485Y0160005D01*
X0056075Y0161429D01*
X0056075Y0162971D01*
X0055485Y0164395D01*
X0054395Y0165485D01*
X0052971Y0166075D01*
X0051429Y0166075D01*
X0050420Y0165657D02*
X0037824Y0165657D01*
X0037636Y0165845D02*
X0036055Y0166500D01*
X0028345Y0166500D01*
X0026764Y0165845D01*
X0025555Y0164636D01*
X0024900Y0163055D01*
X0024900Y0161345D01*
X0025555Y0159764D01*
X0026764Y0158555D01*
X0028345Y0157900D01*
X0036055Y0157900D01*
X0037636Y0158555D01*
X0038845Y0159764D01*
X0039500Y0161345D01*
X0039500Y0163055D01*
X0038845Y0164636D01*
X0037636Y0165845D01*
X0036646Y0166255D02*
X0145967Y0166255D01*
X0145368Y0165657D02*
X0113980Y0165657D01*
X0114395Y0165485D02*
X0112971Y0166075D01*
X0111429Y0166075D01*
X0110005Y0165485D01*
X0108915Y0164395D01*
X0108325Y0162971D01*
X0108325Y0161429D01*
X0108915Y0160005D01*
X0110005Y0158915D01*
X0111429Y0158325D01*
X0112971Y0158325D01*
X0114395Y0158915D01*
X0115485Y0160005D01*
X0116075Y0161429D01*
X0116075Y0162971D01*
X0115485Y0164395D01*
X0114395Y0165485D01*
X0114822Y0165058D02*
X0144770Y0165058D01*
X0144440Y0164460D02*
X0115420Y0164460D01*
X0115706Y0163861D02*
X0144193Y0163861D01*
X0143945Y0163263D02*
X0115954Y0163263D01*
X0116075Y0162664D02*
X0143900Y0162664D01*
X0143900Y0162066D02*
X0116075Y0162066D01*
X0116075Y0161467D02*
X0143900Y0161467D01*
X0144056Y0160869D02*
X0115843Y0160869D01*
X0115595Y0160270D02*
X0144304Y0160270D01*
X0144552Y0159672D02*
X0115151Y0159672D01*
X0114553Y0159073D02*
X0145039Y0159073D01*
X0145637Y0158474D02*
X0113331Y0158474D01*
X0111069Y0158474D02*
X0053331Y0158474D01*
X0054553Y0159073D02*
X0109847Y0159073D01*
X0109249Y0159672D02*
X0055151Y0159672D01*
X0055595Y0160270D02*
X0108805Y0160270D01*
X0108557Y0160869D02*
X0055843Y0160869D01*
X0056075Y0161467D02*
X0108325Y0161467D01*
X0108325Y0162066D02*
X0056075Y0162066D01*
X0056075Y0162664D02*
X0108325Y0162664D01*
X0108446Y0163263D02*
X0055954Y0163263D01*
X0055706Y0163861D02*
X0108694Y0163861D01*
X0108980Y0164460D02*
X0055420Y0164460D01*
X0054822Y0165058D02*
X0109578Y0165058D01*
X0110420Y0165657D02*
X0053980Y0165657D01*
X0053281Y0167452D02*
X0111119Y0167452D01*
X0109674Y0168051D02*
X0054726Y0168051D01*
X0055437Y0168649D02*
X0108963Y0168649D01*
X0108364Y0169248D02*
X0056036Y0169248D01*
X0056420Y0169846D02*
X0107979Y0169846D01*
X0107732Y0170445D02*
X0056668Y0170445D01*
X0056916Y0171043D02*
X0107484Y0171043D01*
X0107400Y0171642D02*
X0057000Y0171642D01*
X0057000Y0172240D02*
X0107400Y0172240D01*
X0107400Y0172839D02*
X0057000Y0172839D01*
X0056883Y0173437D02*
X0107517Y0173437D01*
X0107765Y0174036D02*
X0056635Y0174036D01*
X0056387Y0174634D02*
X0108013Y0174634D01*
X0108445Y0175233D02*
X0055955Y0175233D01*
X0055357Y0175831D02*
X0109043Y0175831D01*
X0109869Y0176430D02*
X0054531Y0176430D01*
X0049869Y0176430D02*
X0035981Y0176430D01*
X0036207Y0176394D02*
X0035538Y0176500D01*
X0032500Y0176500D01*
X0032500Y0172500D01*
X0031900Y0172500D01*
X0031900Y0176500D01*
X0028862Y0176500D01*
X0028193Y0176394D01*
X0027549Y0176185D01*
X0026946Y0175878D01*
X0026399Y0175480D01*
X0025920Y0175001D01*
X0025522Y0174454D01*
X0025215Y0173851D01*
X0025006Y0173207D01*
X0024900Y0172538D01*
X0024900Y0172500D01*
X0031900Y0172500D01*
X0031900Y0171900D01*
X0032500Y0171900D01*
X0032500Y0172500D01*
X0039500Y0172500D01*
X0039500Y0172538D01*
X0039394Y0173207D01*
X0039185Y0173851D01*
X0038878Y0174454D01*
X0038480Y0175001D01*
X0038001Y0175480D01*
X0037454Y0175878D01*
X0036851Y0176185D01*
X0036207Y0176394D01*
X0037517Y0175831D02*
X0049043Y0175831D01*
X0048445Y0175233D02*
X0038248Y0175233D01*
X0038746Y0174634D02*
X0048013Y0174634D01*
X0047765Y0174036D02*
X0039091Y0174036D01*
X0039319Y0173437D02*
X0047517Y0173437D01*
X0047400Y0172839D02*
X0039452Y0172839D01*
X0039500Y0171900D02*
X0032500Y0171900D01*
X0032500Y0167900D01*
X0035538Y0167900D01*
X0036207Y0168006D01*
X0036851Y0168215D01*
X0037454Y0168522D01*
X0038001Y0168920D01*
X0038480Y0169399D01*
X0038878Y0169946D01*
X0039185Y0170549D01*
X0039394Y0171193D01*
X0039500Y0171862D01*
X0039500Y0171900D01*
X0039465Y0171642D02*
X0047400Y0171642D01*
X0047400Y0172240D02*
X0032500Y0172240D01*
X0032500Y0171642D02*
X0031900Y0171642D01*
X0031900Y0171900D02*
X0031900Y0167900D01*
X0028862Y0167900D01*
X0028193Y0168006D01*
X0027549Y0168215D01*
X0026946Y0168522D01*
X0026399Y0168920D01*
X0025920Y0169399D01*
X0025522Y0169946D01*
X0025215Y0170549D01*
X0025006Y0171193D01*
X0024900Y0171862D01*
X0024900Y0171900D01*
X0031900Y0171900D01*
X0031900Y0172240D02*
X0007000Y0172240D01*
X0007000Y0171642D02*
X0024935Y0171642D01*
X0025055Y0171043D02*
X0007000Y0171043D01*
X0007000Y0170445D02*
X0025268Y0170445D01*
X0025595Y0169846D02*
X0007000Y0169846D01*
X0007000Y0169248D02*
X0026071Y0169248D01*
X0026772Y0168649D02*
X0007000Y0168649D01*
X0007000Y0168051D02*
X0028055Y0168051D01*
X0027754Y0166255D02*
X0007000Y0166255D01*
X0007000Y0165657D02*
X0026576Y0165657D01*
X0025977Y0165058D02*
X0007000Y0165058D01*
X0007000Y0164460D02*
X0025482Y0164460D01*
X0025234Y0163861D02*
X0007000Y0163861D01*
X0007000Y0163263D02*
X0024986Y0163263D01*
X0024900Y0162664D02*
X0007000Y0162664D01*
X0007000Y0162066D02*
X0024900Y0162066D01*
X0024900Y0161467D02*
X0007000Y0161467D01*
X0007000Y0160869D02*
X0025097Y0160869D01*
X0025345Y0160270D02*
X0007000Y0160270D01*
X0007000Y0159672D02*
X0025647Y0159672D01*
X0026246Y0159073D02*
X0007000Y0159073D01*
X0007000Y0158474D02*
X0026958Y0158474D01*
X0028345Y0156500D02*
X0026764Y0155845D01*
X0025555Y0154636D01*
X0024900Y0153055D01*
X0024900Y0151345D01*
X0025555Y0149764D01*
X0026764Y0148555D01*
X0028345Y0147900D01*
X0036055Y0147900D01*
X0037636Y0148555D01*
X0038845Y0149764D01*
X0039500Y0151345D01*
X0039500Y0153055D01*
X0038845Y0154636D01*
X0037636Y0155845D01*
X0036055Y0156500D01*
X0028345Y0156500D01*
X0027332Y0156080D02*
X0007000Y0156080D01*
X0007000Y0155482D02*
X0026401Y0155482D01*
X0025802Y0154883D02*
X0007000Y0154883D01*
X0007000Y0154285D02*
X0025409Y0154285D01*
X0025161Y0153686D02*
X0007000Y0153686D01*
X0007000Y0153088D02*
X0024913Y0153088D01*
X0024900Y0152489D02*
X0007000Y0152489D01*
X0007000Y0151891D02*
X0024900Y0151891D01*
X0024922Y0151292D02*
X0007000Y0151292D01*
X0007000Y0150694D02*
X0025170Y0150694D01*
X0025417Y0150095D02*
X0007000Y0150095D01*
X0007000Y0149497D02*
X0025822Y0149497D01*
X0026421Y0148898D02*
X0007000Y0148898D01*
X0007000Y0148300D02*
X0027379Y0148300D01*
X0028345Y0146500D02*
X0026764Y0145845D01*
X0025555Y0144636D01*
X0024900Y0143055D01*
X0024900Y0141345D01*
X0025555Y0139764D01*
X0026764Y0138555D01*
X0028345Y0137900D01*
X0036055Y0137900D01*
X0037636Y0138555D01*
X0038845Y0139764D01*
X0039500Y0141345D01*
X0039500Y0143055D01*
X0038845Y0144636D01*
X0037636Y0145845D01*
X0036055Y0146500D01*
X0028345Y0146500D01*
X0026910Y0145906D02*
X0007000Y0145906D01*
X0007000Y0146504D02*
X0122869Y0146504D01*
X0123112Y0146748D02*
X0122351Y0145987D01*
X0122351Y0144038D01*
X0122100Y0143787D01*
X0116613Y0138300D01*
X0106713Y0138300D01*
X0105600Y0137187D01*
X0105600Y0137187D01*
X0103400Y0134987D01*
X0103400Y0108113D01*
X0108389Y0103124D01*
X0108325Y0102971D01*
X0108325Y0101429D01*
X0108915Y0100005D01*
X0110005Y0098915D01*
X0111429Y0098325D01*
X0112971Y0098325D01*
X0114395Y0098915D01*
X0115485Y0100005D01*
X0116075Y0101429D01*
X0116075Y0102971D01*
X0115485Y0104395D01*
X0114395Y0105485D01*
X0112971Y0106075D01*
X0111429Y0106075D01*
X0110993Y0105894D01*
X0107200Y0109687D01*
X0107200Y0133413D01*
X0108287Y0134500D01*
X0109020Y0134500D01*
X0108915Y0134395D01*
X0108325Y0132971D01*
X0108325Y0131429D01*
X0108915Y0130005D01*
X0110005Y0128915D01*
X0111429Y0128325D01*
X0112971Y0128325D01*
X0114395Y0128915D01*
X0115485Y0130005D01*
X0115524Y0130100D01*
X0117087Y0130100D01*
X0118187Y0131200D01*
X0119913Y0131200D01*
X0122100Y0129013D01*
X0122351Y0128762D01*
X0122351Y0127413D01*
X0123112Y0126652D01*
X0125400Y0126652D01*
X0125400Y0123248D01*
X0123112Y0123248D01*
X0122351Y0122487D01*
X0122351Y0115110D01*
X0123112Y0114349D01*
X0131288Y0114349D01*
X0132049Y0115110D01*
X0132049Y0122487D01*
X0131288Y0123248D01*
X0129200Y0123248D01*
X0129200Y0126652D01*
X0131288Y0126652D01*
X0132049Y0127413D01*
X0132049Y0134790D01*
X0131288Y0135551D01*
X0123112Y0135551D01*
X0122351Y0134790D01*
X0122351Y0134136D01*
X0121487Y0135000D01*
X0118687Y0135000D01*
X0122351Y0138664D01*
X0122351Y0138610D01*
X0123112Y0137849D01*
X0131288Y0137849D01*
X0132049Y0138610D01*
X0132049Y0140000D01*
X0144416Y0140000D01*
X0144631Y0139481D01*
X0145981Y0138131D01*
X0147745Y0137400D01*
X0156655Y0137400D01*
X0158419Y0138131D01*
X0159769Y0139481D01*
X0160500Y0141245D01*
X0160500Y0143155D01*
X0159769Y0144919D01*
X0158419Y0146269D01*
X0156655Y0147000D01*
X0147745Y0147000D01*
X0145981Y0146269D01*
X0144631Y0144919D01*
X0144623Y0144900D01*
X0144113Y0144900D01*
X0143013Y0143800D01*
X0132049Y0143800D01*
X0132049Y0145987D01*
X0131288Y0146748D01*
X0123112Y0146748D01*
X0122351Y0145906D02*
X0113379Y0145906D01*
X0112971Y0146075D02*
X0111429Y0146075D01*
X0110005Y0145485D01*
X0108915Y0144395D01*
X0108325Y0142971D01*
X0108325Y0141429D01*
X0108915Y0140005D01*
X0110005Y0138915D01*
X0111429Y0138325D01*
X0112971Y0138325D01*
X0114395Y0138915D01*
X0115485Y0140005D01*
X0116075Y0141429D01*
X0116075Y0142971D01*
X0115485Y0144395D01*
X0114395Y0145485D01*
X0112971Y0146075D01*
X0114573Y0145307D02*
X0122351Y0145307D01*
X0122351Y0144709D02*
X0115171Y0144709D01*
X0115603Y0144110D02*
X0122351Y0144110D01*
X0121825Y0143512D02*
X0115851Y0143512D01*
X0116075Y0142913D02*
X0121226Y0142913D01*
X0120628Y0142315D02*
X0116075Y0142315D01*
X0116075Y0141716D02*
X0120029Y0141716D01*
X0119431Y0141118D02*
X0115946Y0141118D01*
X0115698Y0140519D02*
X0118832Y0140519D01*
X0118234Y0139921D02*
X0115400Y0139921D01*
X0114802Y0139322D02*
X0117635Y0139322D01*
X0117037Y0138724D02*
X0113933Y0138724D01*
X0110467Y0138724D02*
X0053933Y0138724D01*
X0054395Y0138915D02*
X0055485Y0140005D01*
X0056075Y0141429D01*
X0056075Y0142971D01*
X0055485Y0144395D01*
X0054395Y0145485D01*
X0052971Y0146075D01*
X0051429Y0146075D01*
X0050005Y0145485D01*
X0048915Y0144395D01*
X0048325Y0142971D01*
X0048325Y0141429D01*
X0048915Y0140005D01*
X0050005Y0138915D01*
X0051429Y0138325D01*
X0052971Y0138325D01*
X0054395Y0138915D01*
X0054802Y0139322D02*
X0109598Y0139322D01*
X0109000Y0139921D02*
X0055400Y0139921D01*
X0055698Y0140519D02*
X0108702Y0140519D01*
X0108454Y0141118D02*
X0055946Y0141118D01*
X0056075Y0141716D02*
X0108325Y0141716D01*
X0108325Y0142315D02*
X0056075Y0142315D01*
X0056075Y0142913D02*
X0108325Y0142913D01*
X0108549Y0143512D02*
X0055851Y0143512D01*
X0055603Y0144110D02*
X0108797Y0144110D01*
X0109229Y0144709D02*
X0055171Y0144709D01*
X0054573Y0145307D02*
X0109827Y0145307D01*
X0111021Y0145906D02*
X0053379Y0145906D01*
X0051021Y0145906D02*
X0037490Y0145906D01*
X0038174Y0145307D02*
X0049827Y0145307D01*
X0049229Y0144709D02*
X0038772Y0144709D01*
X0039063Y0144110D02*
X0048797Y0144110D01*
X0048549Y0143512D02*
X0039311Y0143512D01*
X0039500Y0142913D02*
X0048325Y0142913D01*
X0048325Y0142315D02*
X0039500Y0142315D01*
X0039500Y0141716D02*
X0048325Y0141716D01*
X0048454Y0141118D02*
X0039406Y0141118D01*
X0039158Y0140519D02*
X0048702Y0140519D01*
X0049000Y0139921D02*
X0038910Y0139921D01*
X0038403Y0139322D02*
X0049598Y0139322D01*
X0050467Y0138724D02*
X0037805Y0138724D01*
X0036599Y0138125D02*
X0106538Y0138125D01*
X0105940Y0137527D02*
X0007000Y0137527D01*
X0007000Y0138125D02*
X0027801Y0138125D01*
X0026595Y0138724D02*
X0007000Y0138724D01*
X0007000Y0139322D02*
X0025997Y0139322D01*
X0025490Y0139921D02*
X0007000Y0139921D01*
X0007000Y0140519D02*
X0025242Y0140519D01*
X0024994Y0141118D02*
X0007000Y0141118D01*
X0007000Y0141716D02*
X0024900Y0141716D01*
X0024900Y0142315D02*
X0007000Y0142315D01*
X0007000Y0142913D02*
X0024900Y0142913D01*
X0025089Y0143512D02*
X0007000Y0143512D01*
X0007000Y0144110D02*
X0025337Y0144110D01*
X0025628Y0144709D02*
X0007000Y0144709D01*
X0007000Y0145307D02*
X0026226Y0145307D01*
X0037021Y0148300D02*
X0145902Y0148300D01*
X0146184Y0148095D02*
X0146857Y0147752D01*
X0147576Y0147518D01*
X0148322Y0147400D01*
X0151900Y0147400D01*
X0151900Y0151900D01*
X0152500Y0151900D01*
X0152500Y0152500D01*
X0151900Y0152500D01*
X0151900Y0157000D01*
X0148322Y0157000D01*
X0147576Y0156882D01*
X0146857Y0156648D01*
X0146184Y0156305D01*
X0145573Y0155861D01*
X0145039Y0155327D01*
X0144595Y0154716D01*
X0144252Y0154043D01*
X0144018Y0153324D01*
X0143900Y0152578D01*
X0143900Y0152500D01*
X0151900Y0152500D01*
X0151900Y0151900D01*
X0143900Y0151900D01*
X0143900Y0151822D01*
X0144018Y0151076D01*
X0144252Y0150357D01*
X0144595Y0149684D01*
X0145039Y0149073D01*
X0145573Y0148539D01*
X0146184Y0148095D01*
X0147012Y0147701D02*
X0007000Y0147701D01*
X0007000Y0147103D02*
X0207601Y0147103D01*
X0207601Y0147701D02*
X0157388Y0147701D01*
X0157543Y0147752D02*
X0158216Y0148095D01*
X0158827Y0148539D01*
X0159361Y0149073D01*
X0159805Y0149684D01*
X0160148Y0150357D01*
X0160382Y0151076D01*
X0160500Y0151822D01*
X0160500Y0151900D01*
X0152500Y0151900D01*
X0152500Y0147400D01*
X0156078Y0147400D01*
X0156824Y0147518D01*
X0157543Y0147752D01*
X0158498Y0148300D02*
X0207601Y0148300D01*
X0207601Y0148898D02*
X0159187Y0148898D01*
X0159669Y0149497D02*
X0207601Y0149497D01*
X0207601Y0150095D02*
X0160015Y0150095D01*
X0160258Y0150694D02*
X0207601Y0150694D01*
X0207601Y0151292D02*
X0160416Y0151292D01*
X0160500Y0151891D02*
X0207601Y0151891D01*
X0207601Y0152489D02*
X0152500Y0152489D01*
X0152500Y0152500D02*
X0160500Y0152500D01*
X0160500Y0152578D01*
X0160382Y0153324D01*
X0160148Y0154043D01*
X0159805Y0154716D01*
X0159361Y0155327D01*
X0158827Y0155861D01*
X0158216Y0156305D01*
X0157543Y0156648D01*
X0156824Y0156882D01*
X0156078Y0157000D01*
X0152500Y0157000D01*
X0152500Y0152500D01*
X0152500Y0153088D02*
X0151900Y0153088D01*
X0151900Y0153686D02*
X0152500Y0153686D01*
X0152500Y0154285D02*
X0151900Y0154285D01*
X0151900Y0154883D02*
X0152500Y0154883D01*
X0152500Y0155482D02*
X0151900Y0155482D01*
X0151900Y0156080D02*
X0152500Y0156080D01*
X0152500Y0156679D02*
X0151900Y0156679D01*
X0151900Y0152489D02*
X0112500Y0152489D01*
X0112500Y0152500D02*
X0116075Y0152500D01*
X0116075Y0152582D01*
X0115926Y0153330D01*
X0115634Y0154035D01*
X0115210Y0154670D01*
X0114670Y0155210D01*
X0114035Y0155634D01*
X0113330Y0155926D01*
X0112582Y0156075D01*
X0112500Y0156075D01*
X0112500Y0152500D01*
X0111900Y0152500D01*
X0111900Y0156075D01*
X0111818Y0156075D01*
X0111070Y0155926D01*
X0110365Y0155634D01*
X0109730Y0155210D01*
X0109190Y0154670D01*
X0108766Y0154035D01*
X0108474Y0153330D01*
X0108325Y0152582D01*
X0108325Y0152500D01*
X0111900Y0152500D01*
X0111900Y0151900D01*
X0108325Y0151900D01*
X0108325Y0151818D01*
X0108474Y0151070D01*
X0108766Y0150365D01*
X0109190Y0149730D01*
X0109730Y0149190D01*
X0110365Y0148766D01*
X0111070Y0148474D01*
X0111818Y0148325D01*
X0111900Y0148325D01*
X0111900Y0151900D01*
X0112500Y0151900D01*
X0112500Y0152500D01*
X0112500Y0153088D02*
X0111900Y0153088D01*
X0111900Y0153686D02*
X0112500Y0153686D01*
X0112500Y0154285D02*
X0111900Y0154285D01*
X0111900Y0154883D02*
X0112500Y0154883D01*
X0112500Y0155482D02*
X0111900Y0155482D01*
X0110137Y0155482D02*
X0054398Y0155482D01*
X0054395Y0155485D02*
X0052971Y0156075D01*
X0051429Y0156075D01*
X0050005Y0155485D01*
X0048915Y0154395D01*
X0048325Y0152971D01*
X0048325Y0151429D01*
X0048915Y0150005D01*
X0050005Y0148915D01*
X0051429Y0148325D01*
X0052971Y0148325D01*
X0054395Y0148915D01*
X0055485Y0150005D01*
X0056075Y0151429D01*
X0056075Y0152971D01*
X0055485Y0154395D01*
X0054395Y0155485D01*
X0054996Y0154883D02*
X0109404Y0154883D01*
X0108933Y0154285D02*
X0055530Y0154285D01*
X0055778Y0153686D02*
X0108622Y0153686D01*
X0108426Y0153088D02*
X0056026Y0153088D01*
X0056075Y0152489D02*
X0111900Y0152489D01*
X0111900Y0151891D02*
X0112500Y0151891D01*
X0112500Y0151900D02*
X0112500Y0148325D01*
X0112582Y0148325D01*
X0113330Y0148474D01*
X0114035Y0148766D01*
X0114670Y0149190D01*
X0115210Y0149730D01*
X0115634Y0150365D01*
X0115926Y0151070D01*
X0116075Y0151818D01*
X0116075Y0151900D01*
X0112500Y0151900D01*
X0112500Y0151292D02*
X0111900Y0151292D01*
X0111900Y0150694D02*
X0112500Y0150694D01*
X0112500Y0150095D02*
X0111900Y0150095D01*
X0111900Y0149497D02*
X0112500Y0149497D01*
X0112500Y0148898D02*
X0111900Y0148898D01*
X0110167Y0148898D02*
X0054354Y0148898D01*
X0054977Y0149497D02*
X0109423Y0149497D01*
X0108946Y0150095D02*
X0055522Y0150095D01*
X0055770Y0150694D02*
X0108630Y0150694D01*
X0108430Y0151292D02*
X0056018Y0151292D01*
X0056075Y0151891D02*
X0108325Y0151891D01*
X0114233Y0148898D02*
X0145213Y0148898D01*
X0144731Y0149497D02*
X0114977Y0149497D01*
X0115454Y0150095D02*
X0144385Y0150095D01*
X0144142Y0150694D02*
X0115770Y0150694D01*
X0115970Y0151292D02*
X0143984Y0151292D01*
X0143900Y0151891D02*
X0116075Y0151891D01*
X0115974Y0153088D02*
X0143981Y0153088D01*
X0144136Y0153686D02*
X0115778Y0153686D01*
X0115467Y0154285D02*
X0144375Y0154285D01*
X0144717Y0154883D02*
X0114996Y0154883D01*
X0114263Y0155482D02*
X0145194Y0155482D01*
X0145875Y0156080D02*
X0037068Y0156080D01*
X0037999Y0155482D02*
X0050002Y0155482D01*
X0049404Y0154883D02*
X0038598Y0154883D01*
X0038991Y0154285D02*
X0048870Y0154285D01*
X0048622Y0153686D02*
X0039239Y0153686D01*
X0039487Y0153088D02*
X0048374Y0153088D01*
X0048325Y0152489D02*
X0039500Y0152489D01*
X0039500Y0151891D02*
X0048325Y0151891D01*
X0048382Y0151292D02*
X0039478Y0151292D01*
X0039230Y0150694D02*
X0048630Y0150694D01*
X0048878Y0150095D02*
X0038982Y0150095D01*
X0038578Y0149497D02*
X0049423Y0149497D01*
X0050046Y0148898D02*
X0037979Y0148898D01*
X0037442Y0158474D02*
X0051069Y0158474D01*
X0049847Y0159073D02*
X0038154Y0159073D01*
X0038753Y0159672D02*
X0049249Y0159672D01*
X0048805Y0160270D02*
X0039055Y0160270D01*
X0039303Y0160869D02*
X0048557Y0160869D01*
X0048325Y0161467D02*
X0039500Y0161467D01*
X0039500Y0162066D02*
X0048325Y0162066D01*
X0048325Y0162664D02*
X0039500Y0162664D01*
X0039414Y0163263D02*
X0048446Y0163263D01*
X0048694Y0163861D02*
X0039166Y0163861D01*
X0038918Y0164460D02*
X0048980Y0164460D01*
X0049578Y0165058D02*
X0038423Y0165058D01*
X0036345Y0168051D02*
X0049674Y0168051D01*
X0048963Y0168649D02*
X0037628Y0168649D01*
X0038329Y0169248D02*
X0048364Y0169248D01*
X0047979Y0169846D02*
X0038805Y0169846D01*
X0039132Y0170445D02*
X0047732Y0170445D01*
X0047484Y0171043D02*
X0039345Y0171043D01*
X0032500Y0171043D02*
X0031900Y0171043D01*
X0031900Y0170445D02*
X0032500Y0170445D01*
X0032500Y0169846D02*
X0031900Y0169846D01*
X0031900Y0169248D02*
X0032500Y0169248D01*
X0032500Y0168649D02*
X0031900Y0168649D01*
X0031900Y0168051D02*
X0032500Y0168051D01*
X0032500Y0172839D02*
X0031900Y0172839D01*
X0031900Y0173437D02*
X0032500Y0173437D01*
X0032500Y0174036D02*
X0031900Y0174036D01*
X0031900Y0174634D02*
X0032500Y0174634D01*
X0032500Y0175233D02*
X0031900Y0175233D01*
X0031900Y0175831D02*
X0032500Y0175831D01*
X0032500Y0176430D02*
X0031900Y0176430D01*
X0028419Y0176430D02*
X0007000Y0176430D01*
X0007000Y0177028D02*
X0207601Y0177028D01*
X0207601Y0176430D02*
X0158031Y0176430D01*
X0158857Y0175831D02*
X0207601Y0175831D01*
X0207601Y0175233D02*
X0159455Y0175233D01*
X0159887Y0174634D02*
X0207601Y0174634D01*
X0207601Y0174036D02*
X0160135Y0174036D01*
X0160383Y0173437D02*
X0207601Y0173437D01*
X0207601Y0172839D02*
X0160500Y0172839D01*
X0160500Y0172240D02*
X0207601Y0172240D01*
X0207601Y0171642D02*
X0160500Y0171642D01*
X0160416Y0171043D02*
X0207601Y0171043D01*
X0207601Y0170445D02*
X0160168Y0170445D01*
X0159920Y0169846D02*
X0207601Y0169846D01*
X0207601Y0169248D02*
X0159536Y0169248D01*
X0158937Y0168649D02*
X0207601Y0168649D01*
X0207601Y0168051D02*
X0158226Y0168051D01*
X0156781Y0167452D02*
X0207601Y0167452D01*
X0207601Y0166854D02*
X0157008Y0166854D01*
X0158433Y0166255D02*
X0207601Y0166255D01*
X0207601Y0165657D02*
X0159032Y0165657D01*
X0159630Y0165058D02*
X0207601Y0165058D01*
X0207601Y0164460D02*
X0159960Y0164460D01*
X0160207Y0163861D02*
X0207601Y0163861D01*
X0207601Y0163263D02*
X0160455Y0163263D01*
X0160500Y0162664D02*
X0207601Y0162664D01*
X0207601Y0162066D02*
X0160500Y0162066D01*
X0160500Y0161467D02*
X0207601Y0161467D01*
X0207601Y0160869D02*
X0160344Y0160869D01*
X0160096Y0160270D02*
X0207601Y0160270D01*
X0207601Y0159672D02*
X0159848Y0159672D01*
X0159361Y0159073D02*
X0207601Y0159073D01*
X0207601Y0158474D02*
X0158763Y0158474D01*
X0157804Y0157876D02*
X0207601Y0157876D01*
X0207601Y0157277D02*
X0007000Y0157277D01*
X0007000Y0156679D02*
X0146952Y0156679D01*
X0146596Y0157876D02*
X0007000Y0157876D01*
X0007000Y0172839D02*
X0024948Y0172839D01*
X0025081Y0173437D02*
X0007000Y0173437D01*
X0007000Y0174036D02*
X0025309Y0174036D01*
X0025654Y0174634D02*
X0007000Y0174634D01*
X0007000Y0175233D02*
X0026152Y0175233D01*
X0026883Y0175831D02*
X0007000Y0175831D01*
X0007000Y0177627D02*
X0207601Y0177627D01*
X0207601Y0178225D02*
X0007000Y0178225D01*
X0007000Y0178824D02*
X0207601Y0178824D01*
X0207601Y0178861D02*
X0207601Y0091880D01*
X0207136Y0092345D01*
X0205555Y0093000D01*
X0197845Y0093000D01*
X0196264Y0092345D01*
X0195055Y0091136D01*
X0194400Y0089555D01*
X0194400Y0087845D01*
X0195055Y0086264D01*
X0196264Y0085055D01*
X0197845Y0084400D01*
X0205555Y0084400D01*
X0207136Y0085055D01*
X0207601Y0085520D01*
X0207601Y0081880D01*
X0207136Y0082345D01*
X0205555Y0083000D01*
X0197845Y0083000D01*
X0196264Y0082345D01*
X0195055Y0081136D01*
X0194400Y0079555D01*
X0194400Y0077845D01*
X0195055Y0076264D01*
X0196264Y0075055D01*
X0197845Y0074400D01*
X0205555Y0074400D01*
X0207136Y0075055D01*
X0207601Y0075520D01*
X0207601Y0071880D01*
X0207501Y0071980D01*
X0206954Y0072378D01*
X0206351Y0072685D01*
X0205707Y0072894D01*
X0205038Y0073000D01*
X0202000Y0073000D01*
X0202000Y0069000D01*
X0201400Y0069000D01*
X0201400Y0073000D01*
X0198362Y0073000D01*
X0197693Y0072894D01*
X0197049Y0072685D01*
X0196446Y0072378D01*
X0195899Y0071980D01*
X0195420Y0071501D01*
X0195022Y0070954D01*
X0194715Y0070351D01*
X0194506Y0069707D01*
X0194400Y0069038D01*
X0194400Y0069000D01*
X0201400Y0069000D01*
X0201400Y0068400D01*
X0202000Y0068400D01*
X0202000Y0064400D01*
X0205038Y0064400D01*
X0205707Y0064506D01*
X0206351Y0064715D01*
X0206954Y0065022D01*
X0207501Y0065420D01*
X0207601Y0065520D01*
X0207601Y0061880D01*
X0207136Y0062345D01*
X0205555Y0063000D01*
X0197845Y0063000D01*
X0196264Y0062345D01*
X0195055Y0061136D01*
X0194400Y0059555D01*
X0194400Y0057845D01*
X0195055Y0056264D01*
X0196264Y0055055D01*
X0197845Y0054400D01*
X0205555Y0054400D01*
X0207136Y0055055D01*
X0207601Y0055520D01*
X0207601Y0006000D01*
X0007000Y0006000D01*
X0007000Y0178861D01*
X0207601Y0178861D01*
X0207601Y0156679D02*
X0157448Y0156679D01*
X0158525Y0156080D02*
X0207601Y0156080D01*
X0207601Y0155482D02*
X0159206Y0155482D01*
X0159683Y0154883D02*
X0207601Y0154883D01*
X0207601Y0154285D02*
X0160025Y0154285D01*
X0160264Y0153686D02*
X0207601Y0153686D01*
X0207601Y0153088D02*
X0160419Y0153088D01*
X0152500Y0151891D02*
X0151900Y0151891D01*
X0151900Y0151292D02*
X0152500Y0151292D01*
X0152500Y0150694D02*
X0151900Y0150694D01*
X0151900Y0150095D02*
X0152500Y0150095D01*
X0152500Y0149497D02*
X0151900Y0149497D01*
X0151900Y0148898D02*
X0152500Y0148898D01*
X0152500Y0148300D02*
X0151900Y0148300D01*
X0151900Y0147701D02*
X0152500Y0147701D01*
X0157852Y0146504D02*
X0207601Y0146504D01*
X0207601Y0145906D02*
X0158782Y0145906D01*
X0159381Y0145307D02*
X0207601Y0145307D01*
X0207601Y0144709D02*
X0159856Y0144709D01*
X0160104Y0144110D02*
X0207601Y0144110D01*
X0207601Y0143512D02*
X0160352Y0143512D01*
X0160500Y0142913D02*
X0207601Y0142913D01*
X0207601Y0142315D02*
X0160500Y0142315D01*
X0160500Y0141716D02*
X0207601Y0141716D01*
X0207601Y0141118D02*
X0160447Y0141118D01*
X0160199Y0140519D02*
X0207601Y0140519D01*
X0207601Y0139921D02*
X0159951Y0139921D01*
X0159610Y0139322D02*
X0207601Y0139322D01*
X0207601Y0138724D02*
X0159012Y0138724D01*
X0158405Y0138125D02*
X0207601Y0138125D01*
X0207601Y0137527D02*
X0156960Y0137527D01*
X0156655Y0137000D02*
X0158419Y0136269D01*
X0159769Y0134919D01*
X0160500Y0133155D01*
X0160500Y0131245D01*
X0159769Y0129481D01*
X0158419Y0128131D01*
X0156655Y0127400D01*
X0147745Y0127400D01*
X0145981Y0128131D01*
X0144631Y0129481D01*
X0143900Y0131245D01*
X0143900Y0133155D01*
X0144631Y0134919D01*
X0145981Y0136269D01*
X0147745Y0137000D01*
X0156655Y0137000D01*
X0156828Y0136928D02*
X0207601Y0136928D01*
X0207601Y0136330D02*
X0158273Y0136330D01*
X0158957Y0135731D02*
X0207601Y0135731D01*
X0207601Y0135133D02*
X0159556Y0135133D01*
X0159929Y0134534D02*
X0207601Y0134534D01*
X0207601Y0133936D02*
X0160177Y0133936D01*
X0160425Y0133337D02*
X0207601Y0133337D01*
X0207601Y0132739D02*
X0160500Y0132739D01*
X0160500Y0132140D02*
X0207601Y0132140D01*
X0207601Y0131541D02*
X0160500Y0131541D01*
X0160375Y0130943D02*
X0207601Y0130943D01*
X0207601Y0130344D02*
X0160127Y0130344D01*
X0159879Y0129746D02*
X0207601Y0129746D01*
X0207601Y0129147D02*
X0159436Y0129147D01*
X0158837Y0128549D02*
X0207601Y0128549D01*
X0207601Y0127950D02*
X0157984Y0127950D01*
X0157250Y0126753D02*
X0207601Y0126753D01*
X0207601Y0126155D02*
X0158533Y0126155D01*
X0158419Y0126269D02*
X0156655Y0127000D01*
X0147745Y0127000D01*
X0145981Y0126269D01*
X0144631Y0124919D01*
X0143900Y0123155D01*
X0143900Y0121245D01*
X0144631Y0119481D01*
X0145981Y0118131D01*
X0147745Y0117400D01*
X0156655Y0117400D01*
X0158419Y0118131D01*
X0159769Y0119481D01*
X0160500Y0121245D01*
X0160500Y0123155D01*
X0159769Y0124919D01*
X0158419Y0126269D01*
X0159132Y0125556D02*
X0207601Y0125556D01*
X0207601Y0124958D02*
X0159730Y0124958D01*
X0160001Y0124359D02*
X0207601Y0124359D01*
X0207601Y0123761D02*
X0160249Y0123761D01*
X0160497Y0123162D02*
X0207601Y0123162D01*
X0207601Y0122564D02*
X0160500Y0122564D01*
X0160500Y0121965D02*
X0207601Y0121965D01*
X0207601Y0121367D02*
X0160500Y0121367D01*
X0160302Y0120768D02*
X0207601Y0120768D01*
X0207601Y0120170D02*
X0160055Y0120170D01*
X0159807Y0119571D02*
X0207601Y0119571D01*
X0207601Y0118973D02*
X0159261Y0118973D01*
X0158662Y0118374D02*
X0207601Y0118374D01*
X0207601Y0117776D02*
X0157562Y0117776D01*
X0156655Y0117000D02*
X0158419Y0116269D01*
X0159769Y0114919D01*
X0160500Y0113155D01*
X0160500Y0111245D01*
X0159769Y0109481D01*
X0158419Y0108131D01*
X0156655Y0107400D01*
X0147745Y0107400D01*
X0145981Y0108131D01*
X0144631Y0109481D01*
X0143900Y0111245D01*
X0143900Y0113155D01*
X0144631Y0114919D01*
X0145981Y0116269D01*
X0147745Y0117000D01*
X0156655Y0117000D01*
X0157672Y0116579D02*
X0207601Y0116579D01*
X0207601Y0117177D02*
X0132049Y0117177D01*
X0132049Y0116579D02*
X0146728Y0116579D01*
X0145692Y0115980D02*
X0132049Y0115980D01*
X0132049Y0115382D02*
X0145093Y0115382D01*
X0144575Y0114783D02*
X0131722Y0114783D01*
X0132049Y0117776D02*
X0146838Y0117776D01*
X0145738Y0118374D02*
X0132049Y0118374D01*
X0132049Y0118973D02*
X0145139Y0118973D01*
X0144593Y0119571D02*
X0132049Y0119571D01*
X0132049Y0120170D02*
X0144345Y0120170D01*
X0144098Y0120768D02*
X0132049Y0120768D01*
X0132049Y0121367D02*
X0143900Y0121367D01*
X0143900Y0121965D02*
X0132049Y0121965D01*
X0131972Y0122564D02*
X0143900Y0122564D01*
X0143903Y0123162D02*
X0131373Y0123162D01*
X0129200Y0123761D02*
X0144151Y0123761D01*
X0144399Y0124359D02*
X0129200Y0124359D01*
X0129200Y0124958D02*
X0144670Y0124958D01*
X0145268Y0125556D02*
X0129200Y0125556D01*
X0129200Y0126155D02*
X0145867Y0126155D01*
X0147150Y0126753D02*
X0131389Y0126753D01*
X0131988Y0127352D02*
X0207601Y0127352D01*
X0207601Y0115980D02*
X0158708Y0115980D01*
X0159307Y0115382D02*
X0207601Y0115382D01*
X0207601Y0114783D02*
X0159825Y0114783D01*
X0160073Y0114185D02*
X0207601Y0114185D01*
X0207601Y0113586D02*
X0160321Y0113586D01*
X0160500Y0112988D02*
X0207601Y0112988D01*
X0207601Y0112389D02*
X0160500Y0112389D01*
X0160500Y0111791D02*
X0207601Y0111791D01*
X0207601Y0111192D02*
X0160478Y0111192D01*
X0160230Y0110594D02*
X0207601Y0110594D01*
X0207601Y0109995D02*
X0159982Y0109995D01*
X0159685Y0109397D02*
X0207601Y0109397D01*
X0207601Y0108798D02*
X0159086Y0108798D01*
X0158488Y0108200D02*
X0207601Y0108200D01*
X0207601Y0107601D02*
X0157140Y0107601D01*
X0156655Y0107000D02*
X0158419Y0106269D01*
X0159769Y0104919D01*
X0160500Y0103155D01*
X0160500Y0101245D01*
X0159769Y0099481D01*
X0158419Y0098131D01*
X0156655Y0097400D01*
X0147745Y0097400D01*
X0145981Y0098131D01*
X0144631Y0099481D01*
X0143900Y0101245D01*
X0143900Y0103155D01*
X0144631Y0104919D01*
X0145981Y0106269D01*
X0147745Y0107000D01*
X0156655Y0107000D01*
X0158094Y0106404D02*
X0207601Y0106404D01*
X0207601Y0105805D02*
X0158883Y0105805D01*
X0159481Y0105207D02*
X0207601Y0105207D01*
X0207601Y0104608D02*
X0159898Y0104608D01*
X0160146Y0104010D02*
X0207601Y0104010D01*
X0207601Y0103411D02*
X0160394Y0103411D01*
X0160500Y0102813D02*
X0207601Y0102813D01*
X0207601Y0102214D02*
X0160500Y0102214D01*
X0160500Y0101616D02*
X0207601Y0101616D01*
X0207601Y0101017D02*
X0160406Y0101017D01*
X0160158Y0100419D02*
X0207601Y0100419D01*
X0207601Y0099820D02*
X0159910Y0099820D01*
X0159510Y0099222D02*
X0207601Y0099222D01*
X0207601Y0098623D02*
X0158912Y0098623D01*
X0158163Y0098025D02*
X0207601Y0098025D01*
X0207601Y0097426D02*
X0156718Y0097426D01*
X0164522Y0093014D02*
X0164522Y0081937D01*
X0165284Y0081176D01*
X0180561Y0081176D01*
X0180561Y0087176D01*
X0181161Y0087176D01*
X0181161Y0081176D01*
X0186033Y0081176D01*
X0186363Y0081264D01*
X0186660Y0081435D01*
X0186902Y0081677D01*
X0187073Y0081974D01*
X0187161Y0082304D01*
X0187161Y0087176D01*
X0181161Y0087176D01*
X0181161Y0087776D01*
X0180561Y0087776D01*
X0180561Y0093776D01*
X0165284Y0093776D01*
X0164522Y0093014D01*
X0164745Y0093237D02*
X0142687Y0093237D01*
X0142909Y0093014D02*
X0142148Y0093776D01*
X0131071Y0093776D01*
X0121071Y0093776D01*
X0120309Y0093014D01*
X0120309Y0081937D01*
X0121071Y0081176D01*
X0142148Y0081176D01*
X0142909Y0081937D01*
X0142909Y0093014D01*
X0142909Y0092638D02*
X0164522Y0092638D01*
X0164522Y0092040D02*
X0142909Y0092040D01*
X0142909Y0091441D02*
X0164522Y0091441D01*
X0164522Y0090843D02*
X0142909Y0090843D01*
X0142909Y0090244D02*
X0164522Y0090244D01*
X0164522Y0089646D02*
X0142909Y0089646D01*
X0142909Y0089047D02*
X0164522Y0089047D01*
X0164522Y0088449D02*
X0142909Y0088449D01*
X0142909Y0087850D02*
X0164522Y0087850D01*
X0164522Y0087252D02*
X0142909Y0087252D01*
X0142909Y0086653D02*
X0164522Y0086653D01*
X0164522Y0086055D02*
X0142909Y0086055D01*
X0142909Y0085456D02*
X0164522Y0085456D01*
X0164522Y0084858D02*
X0142909Y0084858D01*
X0142909Y0084259D02*
X0164522Y0084259D01*
X0164522Y0083661D02*
X0142909Y0083661D01*
X0142909Y0083062D02*
X0164522Y0083062D01*
X0164522Y0082464D02*
X0142909Y0082464D01*
X0142837Y0081865D02*
X0164594Y0081865D01*
X0165193Y0081267D02*
X0142239Y0081267D01*
X0147682Y0097426D02*
X0122913Y0097426D01*
X0122315Y0096828D02*
X0207601Y0096828D01*
X0207601Y0096229D02*
X0121716Y0096229D01*
X0121118Y0095631D02*
X0207601Y0095631D01*
X0207601Y0095032D02*
X0120519Y0095032D01*
X0120400Y0094913D02*
X0128100Y0102613D01*
X0128100Y0103152D01*
X0131288Y0103152D01*
X0132049Y0103913D01*
X0132049Y0111290D01*
X0131288Y0112051D01*
X0123112Y0112051D01*
X0122351Y0111290D01*
X0122351Y0103913D01*
X0123112Y0103152D01*
X0123265Y0103152D01*
X0117713Y0097600D01*
X0116613Y0097600D01*
X0114446Y0095433D01*
X0114395Y0095485D01*
X0112971Y0096075D01*
X0111429Y0096075D01*
X0110005Y0095485D01*
X0108915Y0094395D01*
X0108325Y0092971D01*
X0108325Y0091429D01*
X0108915Y0090005D01*
X0110005Y0088915D01*
X0111429Y0088325D01*
X0112971Y0088325D01*
X0114395Y0088915D01*
X0115485Y0090005D01*
X0116075Y0091429D01*
X0116075Y0091688D01*
X0118187Y0093800D01*
X0119287Y0093800D01*
X0120400Y0094913D01*
X0119921Y0094434D02*
X0207601Y0094434D01*
X0207601Y0093835D02*
X0119322Y0093835D01*
X0120532Y0093237D02*
X0117624Y0093237D01*
X0117025Y0092638D02*
X0120309Y0092638D01*
X0120309Y0092040D02*
X0116427Y0092040D01*
X0116075Y0091441D02*
X0120309Y0091441D01*
X0120309Y0090843D02*
X0115832Y0090843D01*
X0115584Y0090244D02*
X0120309Y0090244D01*
X0120309Y0089646D02*
X0115125Y0089646D01*
X0114527Y0089047D02*
X0120309Y0089047D01*
X0120309Y0088449D02*
X0113269Y0088449D01*
X0111131Y0088449D02*
X0053269Y0088449D01*
X0052971Y0088325D02*
X0054395Y0088915D01*
X0055485Y0090005D01*
X0056075Y0091429D01*
X0056075Y0092971D01*
X0055485Y0094395D01*
X0054395Y0095485D01*
X0052971Y0096075D01*
X0051429Y0096075D01*
X0050005Y0095485D01*
X0048915Y0094395D01*
X0048325Y0092971D01*
X0048325Y0091429D01*
X0048915Y0090005D01*
X0050005Y0088915D01*
X0051429Y0088325D01*
X0052971Y0088325D01*
X0054527Y0089047D02*
X0109873Y0089047D01*
X0109274Y0089646D02*
X0055125Y0089646D01*
X0055584Y0090244D02*
X0108816Y0090244D01*
X0108568Y0090843D02*
X0055832Y0090843D01*
X0056075Y0091441D02*
X0108325Y0091441D01*
X0108325Y0092040D02*
X0056075Y0092040D01*
X0056075Y0092638D02*
X0108325Y0092638D01*
X0108435Y0093237D02*
X0055965Y0093237D01*
X0055717Y0093835D02*
X0108683Y0093835D01*
X0108954Y0094434D02*
X0055446Y0094434D01*
X0054847Y0095032D02*
X0109552Y0095032D01*
X0110357Y0095631D02*
X0054043Y0095631D01*
X0052971Y0098325D02*
X0051429Y0098325D01*
X0050005Y0098915D01*
X0048915Y0100005D01*
X0048325Y0101429D01*
X0048325Y0102971D01*
X0048915Y0104395D01*
X0050005Y0105485D01*
X0051429Y0106075D01*
X0052971Y0106075D01*
X0054395Y0105485D01*
X0055485Y0104395D01*
X0056075Y0102971D01*
X0056075Y0101429D01*
X0055485Y0100005D01*
X0054395Y0098915D01*
X0052971Y0098325D01*
X0053691Y0098623D02*
X0110709Y0098623D01*
X0109698Y0099222D02*
X0054702Y0099222D01*
X0055300Y0099820D02*
X0109100Y0099820D01*
X0108744Y0100419D02*
X0055656Y0100419D01*
X0055904Y0101017D02*
X0108496Y0101017D01*
X0108325Y0101616D02*
X0056075Y0101616D01*
X0056075Y0102214D02*
X0108325Y0102214D01*
X0108325Y0102813D02*
X0056075Y0102813D01*
X0055892Y0103411D02*
X0108102Y0103411D01*
X0107503Y0104010D02*
X0055644Y0104010D01*
X0055271Y0104608D02*
X0106905Y0104608D01*
X0106306Y0105207D02*
X0054673Y0105207D01*
X0053621Y0105805D02*
X0105707Y0105805D01*
X0105109Y0106404D02*
X0033287Y0106404D01*
X0033055Y0106500D02*
X0031345Y0106500D01*
X0029764Y0105845D01*
X0028555Y0104636D01*
X0027900Y0103055D01*
X0027900Y0101345D01*
X0028555Y0099764D01*
X0029764Y0098555D01*
X0031345Y0097900D01*
X0033055Y0097900D01*
X0034636Y0098555D01*
X0035845Y0099764D01*
X0036500Y0101345D01*
X0036500Y0103055D01*
X0035845Y0104636D01*
X0034636Y0105845D01*
X0033055Y0106500D01*
X0033055Y0107900D02*
X0031345Y0107900D01*
X0029764Y0108555D01*
X0028555Y0109764D01*
X0027900Y0111345D01*
X0027900Y0113055D01*
X0028555Y0114636D01*
X0029764Y0115845D01*
X0031345Y0116500D01*
X0033055Y0116500D01*
X0034636Y0115845D01*
X0035845Y0114636D01*
X0036500Y0113055D01*
X0036500Y0111345D01*
X0035845Y0109764D01*
X0034636Y0108555D01*
X0033055Y0107900D01*
X0033778Y0108200D02*
X0103400Y0108200D01*
X0103400Y0108798D02*
X0054112Y0108798D01*
X0054395Y0108915D02*
X0055485Y0110005D01*
X0056075Y0111429D01*
X0056075Y0112971D01*
X0055485Y0114395D01*
X0054395Y0115485D01*
X0052971Y0116075D01*
X0051429Y0116075D01*
X0050005Y0115485D01*
X0048915Y0114395D01*
X0048325Y0112971D01*
X0048325Y0111429D01*
X0048915Y0110005D01*
X0050005Y0108915D01*
X0051429Y0108325D01*
X0052971Y0108325D01*
X0054395Y0108915D01*
X0054876Y0109397D02*
X0103400Y0109397D01*
X0103400Y0109995D02*
X0055475Y0109995D01*
X0055729Y0110594D02*
X0103400Y0110594D01*
X0103400Y0111192D02*
X0055977Y0111192D01*
X0056075Y0111791D02*
X0103400Y0111791D01*
X0103400Y0112389D02*
X0056075Y0112389D01*
X0056068Y0112988D02*
X0103400Y0112988D01*
X0103400Y0113586D02*
X0055820Y0113586D01*
X0055572Y0114185D02*
X0103400Y0114185D01*
X0103400Y0114783D02*
X0055097Y0114783D01*
X0054498Y0115382D02*
X0103400Y0115382D01*
X0103400Y0115980D02*
X0053199Y0115980D01*
X0051201Y0115980D02*
X0034310Y0115980D01*
X0035099Y0115382D02*
X0049902Y0115382D01*
X0049303Y0114783D02*
X0035698Y0114783D01*
X0036032Y0114185D02*
X0048828Y0114185D01*
X0048580Y0113586D02*
X0036280Y0113586D01*
X0036500Y0112988D02*
X0048332Y0112988D01*
X0048325Y0112389D02*
X0036500Y0112389D01*
X0036500Y0111791D02*
X0048325Y0111791D01*
X0048423Y0111192D02*
X0036437Y0111192D01*
X0036189Y0110594D02*
X0048671Y0110594D01*
X0048925Y0109995D02*
X0035941Y0109995D01*
X0035478Y0109397D02*
X0049524Y0109397D01*
X0050288Y0108798D02*
X0034879Y0108798D01*
X0034676Y0105805D02*
X0050779Y0105805D01*
X0049727Y0105207D02*
X0035274Y0105207D01*
X0035857Y0104608D02*
X0049129Y0104608D01*
X0048756Y0104010D02*
X0036105Y0104010D01*
X0036352Y0103411D02*
X0048508Y0103411D01*
X0048325Y0102813D02*
X0036500Y0102813D01*
X0036500Y0102214D02*
X0048325Y0102214D01*
X0048325Y0101616D02*
X0036500Y0101616D01*
X0036364Y0101017D02*
X0048496Y0101017D01*
X0048744Y0100419D02*
X0036117Y0100419D01*
X0035869Y0099820D02*
X0049100Y0099820D01*
X0049698Y0099222D02*
X0035303Y0099222D01*
X0034704Y0098623D02*
X0050709Y0098623D01*
X0050357Y0095631D02*
X0034850Y0095631D01*
X0034636Y0095845D02*
X0033055Y0096500D01*
X0031345Y0096500D01*
X0029764Y0095845D01*
X0028555Y0094636D01*
X0027900Y0093055D01*
X0027900Y0091345D01*
X0028555Y0089764D01*
X0029764Y0088555D01*
X0031345Y0087900D01*
X0033055Y0087900D01*
X0034636Y0088555D01*
X0035845Y0089764D01*
X0036500Y0091345D01*
X0036500Y0093055D01*
X0035845Y0094636D01*
X0034636Y0095845D01*
X0033709Y0096229D02*
X0115242Y0096229D01*
X0114644Y0095631D02*
X0114043Y0095631D01*
X0115841Y0096828D02*
X0007000Y0096828D01*
X0007000Y0097426D02*
X0116439Y0097426D01*
X0118138Y0098025D02*
X0033357Y0098025D01*
X0031043Y0098025D02*
X0023357Y0098025D01*
X0023055Y0097900D02*
X0024636Y0098555D01*
X0025845Y0099764D01*
X0026500Y0101345D01*
X0026500Y0103055D01*
X0025845Y0104636D01*
X0024636Y0105845D01*
X0023055Y0106500D01*
X0021345Y0106500D01*
X0019764Y0105845D01*
X0018555Y0104636D01*
X0017900Y0103055D01*
X0017900Y0101345D01*
X0018555Y0099764D01*
X0019764Y0098555D01*
X0021345Y0097900D01*
X0023055Y0097900D01*
X0023055Y0096500D02*
X0021345Y0096500D01*
X0019764Y0095845D01*
X0018555Y0094636D01*
X0017900Y0093055D01*
X0017900Y0091345D01*
X0018555Y0089764D01*
X0019764Y0088555D01*
X0021345Y0087900D01*
X0023055Y0087900D01*
X0024636Y0088555D01*
X0025845Y0089764D01*
X0026500Y0091345D01*
X0026500Y0093055D01*
X0025845Y0094636D01*
X0024636Y0095845D01*
X0023055Y0096500D01*
X0023709Y0096229D02*
X0030691Y0096229D01*
X0029550Y0095631D02*
X0024850Y0095631D01*
X0025449Y0095032D02*
X0028951Y0095032D01*
X0028471Y0094434D02*
X0025929Y0094434D01*
X0026177Y0093835D02*
X0028223Y0093835D01*
X0027975Y0093237D02*
X0026425Y0093237D01*
X0026500Y0092638D02*
X0027900Y0092638D01*
X0027900Y0092040D02*
X0026500Y0092040D01*
X0026500Y0091441D02*
X0027900Y0091441D01*
X0028108Y0090843D02*
X0026292Y0090843D01*
X0026044Y0090244D02*
X0028356Y0090244D01*
X0028673Y0089646D02*
X0025727Y0089646D01*
X0025128Y0089047D02*
X0029272Y0089047D01*
X0030020Y0088449D02*
X0024380Y0088449D01*
X0026055Y0086500D02*
X0018345Y0086500D01*
X0016764Y0085845D01*
X0015555Y0084636D01*
X0014900Y0083055D01*
X0014900Y0081345D01*
X0015555Y0079764D01*
X0016764Y0078555D01*
X0018345Y0077900D01*
X0026055Y0077900D01*
X0027636Y0078555D01*
X0028845Y0079764D01*
X0029500Y0081345D01*
X0029500Y0083055D01*
X0028845Y0084636D01*
X0027636Y0085845D01*
X0026055Y0086500D01*
X0027131Y0086055D02*
X0051381Y0086055D01*
X0051429Y0086075D02*
X0050005Y0085485D01*
X0048915Y0084395D01*
X0048325Y0082971D01*
X0048325Y0081429D01*
X0048915Y0080005D01*
X0050005Y0078915D01*
X0051429Y0078325D01*
X0052971Y0078325D01*
X0054395Y0078915D01*
X0055485Y0080005D01*
X0056075Y0081429D01*
X0056075Y0082971D01*
X0055485Y0084395D01*
X0054395Y0085485D01*
X0052971Y0086075D01*
X0051429Y0086075D01*
X0049976Y0085456D02*
X0028025Y0085456D01*
X0028623Y0084858D02*
X0049378Y0084858D01*
X0048859Y0084259D02*
X0029001Y0084259D01*
X0029249Y0083661D02*
X0048611Y0083661D01*
X0048363Y0083062D02*
X0029497Y0083062D01*
X0029500Y0082464D02*
X0048325Y0082464D01*
X0048325Y0081865D02*
X0029500Y0081865D01*
X0029468Y0081267D02*
X0048393Y0081267D01*
X0048641Y0080668D02*
X0029220Y0080668D01*
X0028972Y0080070D02*
X0048888Y0080070D01*
X0049449Y0079471D02*
X0028552Y0079471D01*
X0027954Y0078872D02*
X0050108Y0078872D01*
X0051429Y0076075D02*
X0050005Y0075485D01*
X0048915Y0074395D01*
X0048325Y0072971D01*
X0048325Y0071429D01*
X0048915Y0070005D01*
X0050005Y0068915D01*
X0051429Y0068325D01*
X0052971Y0068325D01*
X0054395Y0068915D01*
X0055485Y0070005D01*
X0056075Y0071429D01*
X0056075Y0072971D01*
X0055485Y0074395D01*
X0054395Y0075485D01*
X0052971Y0076075D01*
X0051429Y0076075D01*
X0050959Y0075880D02*
X0027552Y0075880D01*
X0027636Y0075845D02*
X0026055Y0076500D01*
X0018345Y0076500D01*
X0016764Y0075845D01*
X0015555Y0074636D01*
X0014900Y0073055D01*
X0014900Y0071345D01*
X0015555Y0069764D01*
X0016764Y0068555D01*
X0018345Y0067900D01*
X0026055Y0067900D01*
X0027636Y0068555D01*
X0028845Y0069764D01*
X0029003Y0070146D01*
X0029749Y0069400D01*
X0030638Y0069400D01*
X0030638Y0069400D01*
X0031866Y0069400D01*
X0032951Y0070027D01*
X0033124Y0070327D01*
X0033527Y0069614D01*
X0034684Y0069292D01*
X0035730Y0069883D01*
X0036678Y0073294D01*
X0036833Y0073449D01*
X0036833Y0073852D01*
X0036941Y0074241D01*
X0036833Y0074431D01*
X0036833Y0074651D01*
X0036548Y0074936D01*
X0036350Y0075286D01*
X0036138Y0075345D01*
X0035983Y0075500D01*
X0035580Y0075500D01*
X0035192Y0075608D01*
X0035001Y0075500D01*
X0033004Y0075500D01*
X0032588Y0075083D01*
X0031866Y0075500D01*
X0029749Y0075500D01*
X0028900Y0074651D01*
X0028900Y0074504D01*
X0028845Y0074636D01*
X0027636Y0075845D01*
X0028200Y0075281D02*
X0029531Y0075281D01*
X0028932Y0074683D02*
X0028798Y0074683D01*
X0026107Y0076478D02*
X0194966Y0076478D01*
X0194718Y0077077D02*
X0007000Y0077077D01*
X0007000Y0077675D02*
X0194470Y0077675D01*
X0194400Y0078274D02*
X0026958Y0078274D01*
X0032244Y0075281D02*
X0032786Y0075281D01*
X0036352Y0075281D02*
X0049802Y0075281D01*
X0049203Y0074683D02*
X0036800Y0074683D01*
X0036897Y0074084D02*
X0048786Y0074084D01*
X0048539Y0073486D02*
X0036833Y0073486D01*
X0036565Y0072887D02*
X0048325Y0072887D01*
X0048325Y0072289D02*
X0036398Y0072289D01*
X0036232Y0071690D02*
X0048325Y0071690D01*
X0048465Y0071092D02*
X0036066Y0071092D01*
X0035900Y0070493D02*
X0048713Y0070493D01*
X0049025Y0069895D02*
X0035733Y0069895D01*
X0034692Y0069296D02*
X0049624Y0069296D01*
X0050530Y0068698D02*
X0027779Y0068698D01*
X0028377Y0069296D02*
X0034670Y0069296D01*
X0033368Y0069895D02*
X0032723Y0069895D01*
X0032951Y0070027D02*
X0032951Y0070027D01*
X0032951Y0070027D01*
X0029255Y0069895D02*
X0028899Y0069895D01*
X0026536Y0068099D02*
X0194442Y0068099D01*
X0194400Y0068362D02*
X0194506Y0067693D01*
X0194715Y0067049D01*
X0195022Y0066446D01*
X0195420Y0065899D01*
X0195899Y0065420D01*
X0196446Y0065022D01*
X0197049Y0064715D01*
X0197693Y0064506D01*
X0198362Y0064400D01*
X0201400Y0064400D01*
X0201400Y0068400D01*
X0194400Y0068400D01*
X0194400Y0068362D01*
X0194568Y0067501D02*
X0007000Y0067501D01*
X0007000Y0068099D02*
X0017864Y0068099D01*
X0016621Y0068698D02*
X0007000Y0068698D01*
X0007000Y0069296D02*
X0016023Y0069296D01*
X0015501Y0069895D02*
X0007000Y0069895D01*
X0007000Y0070493D02*
X0015253Y0070493D01*
X0015005Y0071092D02*
X0007000Y0071092D01*
X0007000Y0071690D02*
X0014900Y0071690D01*
X0014900Y0072289D02*
X0007000Y0072289D01*
X0007000Y0072887D02*
X0014900Y0072887D01*
X0015078Y0073486D02*
X0007000Y0073486D01*
X0007000Y0074084D02*
X0015326Y0074084D01*
X0015602Y0074683D02*
X0007000Y0074683D01*
X0007000Y0075281D02*
X0016200Y0075281D01*
X0016848Y0075880D02*
X0007000Y0075880D01*
X0007000Y0076478D02*
X0018293Y0076478D01*
X0017442Y0078274D02*
X0007000Y0078274D01*
X0007000Y0078872D02*
X0016446Y0078872D01*
X0015848Y0079471D02*
X0007000Y0079471D01*
X0007000Y0080070D02*
X0015428Y0080070D01*
X0015180Y0080668D02*
X0007000Y0080668D01*
X0007000Y0081267D02*
X0014932Y0081267D01*
X0014900Y0081865D02*
X0007000Y0081865D01*
X0007000Y0082464D02*
X0014900Y0082464D01*
X0014903Y0083062D02*
X0007000Y0083062D01*
X0007000Y0083661D02*
X0015151Y0083661D01*
X0015399Y0084259D02*
X0007000Y0084259D01*
X0007000Y0084858D02*
X0015776Y0084858D01*
X0016375Y0085456D02*
X0007000Y0085456D01*
X0007000Y0086055D02*
X0017269Y0086055D01*
X0020020Y0088449D02*
X0014309Y0088449D01*
X0014454Y0088522D02*
X0013851Y0088215D01*
X0013207Y0088006D01*
X0012538Y0087900D01*
X0012500Y0087900D01*
X0012500Y0091900D01*
X0012500Y0092500D01*
X0011900Y0092500D01*
X0011900Y0096500D01*
X0011862Y0096500D01*
X0011193Y0096394D01*
X0010549Y0096185D01*
X0009946Y0095878D01*
X0009399Y0095480D01*
X0008920Y0095001D01*
X0008522Y0094454D01*
X0008215Y0093851D01*
X0008006Y0093207D01*
X0007900Y0092538D01*
X0007900Y0092500D01*
X0011900Y0092500D01*
X0011900Y0091900D01*
X0007900Y0091900D01*
X0007900Y0091862D01*
X0008006Y0091193D01*
X0008215Y0090549D01*
X0008522Y0089946D01*
X0008920Y0089399D01*
X0009399Y0088920D01*
X0009946Y0088522D01*
X0010549Y0088215D01*
X0011193Y0088006D01*
X0011862Y0087900D01*
X0011900Y0087900D01*
X0011900Y0091900D01*
X0012500Y0091900D01*
X0016500Y0091900D01*
X0016500Y0091862D01*
X0016394Y0091193D01*
X0016185Y0090549D01*
X0015878Y0089946D01*
X0015480Y0089399D01*
X0015001Y0088920D01*
X0014454Y0088522D01*
X0015128Y0089047D02*
X0019272Y0089047D01*
X0018673Y0089646D02*
X0015659Y0089646D01*
X0016029Y0090244D02*
X0018356Y0090244D01*
X0018108Y0090843D02*
X0016280Y0090843D01*
X0016433Y0091441D02*
X0017900Y0091441D01*
X0017900Y0092040D02*
X0012500Y0092040D01*
X0012500Y0092500D02*
X0016500Y0092500D01*
X0016500Y0092538D01*
X0016394Y0093207D01*
X0016185Y0093851D01*
X0015878Y0094454D01*
X0015480Y0095001D01*
X0015001Y0095480D01*
X0014454Y0095878D01*
X0013851Y0096185D01*
X0013207Y0096394D01*
X0012538Y0096500D01*
X0012500Y0096500D01*
X0012500Y0092500D01*
X0012500Y0092638D02*
X0011900Y0092638D01*
X0011900Y0092040D02*
X0007000Y0092040D01*
X0007000Y0092638D02*
X0007916Y0092638D01*
X0008016Y0093237D02*
X0007000Y0093237D01*
X0007000Y0093835D02*
X0008210Y0093835D01*
X0008512Y0094434D02*
X0007000Y0094434D01*
X0007000Y0095032D02*
X0008951Y0095032D01*
X0009607Y0095631D02*
X0007000Y0095631D01*
X0007000Y0096229D02*
X0010686Y0096229D01*
X0011900Y0096229D02*
X0012500Y0096229D01*
X0012500Y0095631D02*
X0011900Y0095631D01*
X0011900Y0095032D02*
X0012500Y0095032D01*
X0012500Y0094434D02*
X0011900Y0094434D01*
X0011900Y0093835D02*
X0012500Y0093835D01*
X0012500Y0093237D02*
X0011900Y0093237D01*
X0011900Y0091441D02*
X0012500Y0091441D01*
X0012500Y0090843D02*
X0011900Y0090843D01*
X0011900Y0090244D02*
X0012500Y0090244D01*
X0012500Y0089646D02*
X0011900Y0089646D01*
X0011900Y0089047D02*
X0012500Y0089047D01*
X0012500Y0088449D02*
X0011900Y0088449D01*
X0010091Y0088449D02*
X0007000Y0088449D01*
X0007000Y0089047D02*
X0009272Y0089047D01*
X0008741Y0089646D02*
X0007000Y0089646D01*
X0007000Y0090244D02*
X0008371Y0090244D01*
X0008120Y0090843D02*
X0007000Y0090843D01*
X0007000Y0091441D02*
X0007967Y0091441D01*
X0007000Y0087850D02*
X0120309Y0087850D01*
X0120309Y0087252D02*
X0007000Y0087252D01*
X0007000Y0086653D02*
X0120309Y0086653D01*
X0120309Y0086055D02*
X0113019Y0086055D01*
X0112971Y0086075D02*
X0111429Y0086075D01*
X0110005Y0085485D01*
X0108915Y0084395D01*
X0108325Y0082971D01*
X0108325Y0081429D01*
X0108915Y0080005D01*
X0110005Y0078915D01*
X0111429Y0078325D01*
X0112971Y0078325D01*
X0114395Y0078915D01*
X0115485Y0080005D01*
X0116075Y0081429D01*
X0116075Y0082971D01*
X0115485Y0084395D01*
X0114395Y0085485D01*
X0112971Y0086075D01*
X0114424Y0085456D02*
X0120309Y0085456D01*
X0120309Y0084858D02*
X0115022Y0084858D01*
X0115541Y0084259D02*
X0120309Y0084259D01*
X0120309Y0083661D02*
X0115789Y0083661D01*
X0116037Y0083062D02*
X0120309Y0083062D01*
X0120309Y0082464D02*
X0116075Y0082464D01*
X0116075Y0081865D02*
X0120382Y0081865D01*
X0120980Y0081267D02*
X0116007Y0081267D01*
X0115759Y0080668D02*
X0194861Y0080668D01*
X0194613Y0080070D02*
X0115512Y0080070D01*
X0114951Y0079471D02*
X0194400Y0079471D01*
X0194400Y0078872D02*
X0114292Y0078872D01*
X0112971Y0076075D02*
X0111429Y0076075D01*
X0110005Y0075485D01*
X0108915Y0074395D01*
X0108325Y0072971D01*
X0108325Y0071429D01*
X0108915Y0070005D01*
X0110005Y0068915D01*
X0111429Y0068325D01*
X0112971Y0068325D01*
X0114395Y0068915D01*
X0115485Y0070005D01*
X0116075Y0071429D01*
X0116075Y0072971D01*
X0115485Y0074395D01*
X0114395Y0075485D01*
X0112971Y0076075D01*
X0113441Y0075880D02*
X0195439Y0075880D01*
X0196037Y0075281D02*
X0114598Y0075281D01*
X0115197Y0074683D02*
X0197162Y0074683D01*
X0197672Y0072887D02*
X0116075Y0072887D01*
X0116075Y0072289D02*
X0196324Y0072289D01*
X0195609Y0071690D02*
X0116075Y0071690D01*
X0115935Y0071092D02*
X0195123Y0071092D01*
X0194788Y0070493D02*
X0115687Y0070493D01*
X0115375Y0069895D02*
X0194567Y0069895D01*
X0194441Y0069296D02*
X0114776Y0069296D01*
X0113870Y0068698D02*
X0201400Y0068698D01*
X0201400Y0069296D02*
X0202000Y0069296D01*
X0202000Y0069895D02*
X0201400Y0069895D01*
X0201400Y0070493D02*
X0202000Y0070493D01*
X0202000Y0071092D02*
X0201400Y0071092D01*
X0201400Y0071690D02*
X0202000Y0071690D01*
X0202000Y0072289D02*
X0201400Y0072289D01*
X0201400Y0072887D02*
X0202000Y0072887D01*
X0205728Y0072887D02*
X0207601Y0072887D01*
X0207601Y0072289D02*
X0207076Y0072289D01*
X0207601Y0073486D02*
X0115861Y0073486D01*
X0115614Y0074084D02*
X0207601Y0074084D01*
X0207601Y0074683D02*
X0206238Y0074683D01*
X0207363Y0075281D02*
X0207601Y0075281D01*
X0207601Y0082464D02*
X0206850Y0082464D01*
X0207601Y0083062D02*
X0187161Y0083062D01*
X0187161Y0082464D02*
X0196550Y0082464D01*
X0195784Y0081865D02*
X0187010Y0081865D01*
X0186367Y0081267D02*
X0195185Y0081267D01*
X0196740Y0084858D02*
X0187161Y0084858D01*
X0187161Y0085456D02*
X0195863Y0085456D01*
X0195264Y0086055D02*
X0187161Y0086055D01*
X0187161Y0086653D02*
X0194894Y0086653D01*
X0194646Y0087252D02*
X0181161Y0087252D01*
X0181161Y0087776D02*
X0187161Y0087776D01*
X0187161Y0092647D01*
X0187073Y0092977D01*
X0186902Y0093274D01*
X0186660Y0093516D01*
X0186363Y0093687D01*
X0186033Y0093776D01*
X0181161Y0093776D01*
X0181161Y0087776D01*
X0181161Y0087850D02*
X0180561Y0087850D01*
X0180561Y0088449D02*
X0181161Y0088449D01*
X0181161Y0089047D02*
X0180561Y0089047D01*
X0180561Y0089646D02*
X0181161Y0089646D01*
X0181161Y0090244D02*
X0180561Y0090244D01*
X0180561Y0090843D02*
X0181161Y0090843D01*
X0181161Y0091441D02*
X0180561Y0091441D01*
X0180561Y0092040D02*
X0181161Y0092040D01*
X0181161Y0092638D02*
X0180561Y0092638D01*
X0180561Y0093237D02*
X0181161Y0093237D01*
X0186923Y0093237D02*
X0207601Y0093237D01*
X0207601Y0092638D02*
X0206429Y0092638D01*
X0207441Y0092040D02*
X0207601Y0092040D01*
X0207537Y0085456D02*
X0207601Y0085456D01*
X0207601Y0084858D02*
X0206660Y0084858D01*
X0207601Y0084259D02*
X0187161Y0084259D01*
X0187161Y0083661D02*
X0207601Y0083661D01*
X0196971Y0092638D02*
X0187161Y0092638D01*
X0187161Y0092040D02*
X0195959Y0092040D01*
X0195360Y0091441D02*
X0187161Y0091441D01*
X0187161Y0090843D02*
X0194933Y0090843D01*
X0194685Y0090244D02*
X0187161Y0090244D01*
X0187161Y0089646D02*
X0194437Y0089646D01*
X0194400Y0089047D02*
X0187161Y0089047D01*
X0187161Y0088449D02*
X0194400Y0088449D01*
X0194400Y0087850D02*
X0187161Y0087850D01*
X0181161Y0086653D02*
X0180561Y0086653D01*
X0180561Y0086055D02*
X0181161Y0086055D01*
X0181161Y0085456D02*
X0180561Y0085456D01*
X0180561Y0084858D02*
X0181161Y0084858D01*
X0181161Y0084259D02*
X0180561Y0084259D01*
X0180561Y0083661D02*
X0181161Y0083661D01*
X0181161Y0083062D02*
X0180561Y0083062D01*
X0180561Y0082464D02*
X0181161Y0082464D01*
X0181161Y0081865D02*
X0180561Y0081865D01*
X0180561Y0081267D02*
X0181161Y0081267D01*
X0194790Y0066902D02*
X0007000Y0066902D01*
X0007000Y0066304D02*
X0017871Y0066304D01*
X0018345Y0066500D02*
X0016764Y0065845D01*
X0015555Y0064636D01*
X0014900Y0063055D01*
X0014900Y0061345D01*
X0015555Y0059764D01*
X0016764Y0058555D01*
X0018345Y0057900D01*
X0026055Y0057900D01*
X0027636Y0058555D01*
X0028845Y0059764D01*
X0029003Y0060146D01*
X0029749Y0059400D01*
X0030638Y0059400D01*
X0030638Y0059400D01*
X0031866Y0059400D01*
X0032878Y0059984D01*
X0033048Y0059749D01*
X0033048Y0059749D01*
X0033048Y0059749D01*
X0034494Y0059280D01*
X0035939Y0059749D01*
X0035939Y0059749D01*
X0036833Y0060979D01*
X0036833Y0062339D01*
X0036833Y0062339D01*
X0036833Y0062499D01*
X0036655Y0062743D01*
X0036655Y0063939D01*
X0036655Y0063939D01*
X0036655Y0064041D01*
X0035829Y0065177D01*
X0034494Y0065611D01*
X0034494Y0065611D01*
X0033158Y0065177D01*
X0032941Y0064879D01*
X0031866Y0065500D01*
X0029749Y0065500D01*
X0028900Y0064651D01*
X0028900Y0064504D01*
X0028845Y0064636D01*
X0027636Y0065845D01*
X0026055Y0066500D01*
X0018345Y0066500D01*
X0016624Y0065705D02*
X0007000Y0065705D01*
X0007000Y0065107D02*
X0016026Y0065107D01*
X0015502Y0064508D02*
X0007000Y0064508D01*
X0007000Y0063910D02*
X0015254Y0063910D01*
X0015006Y0063311D02*
X0007000Y0063311D01*
X0007000Y0062713D02*
X0014900Y0062713D01*
X0014900Y0062114D02*
X0007000Y0062114D01*
X0007000Y0061516D02*
X0014900Y0061516D01*
X0015077Y0060917D02*
X0007000Y0060917D01*
X0007000Y0060319D02*
X0015325Y0060319D01*
X0015599Y0059720D02*
X0007000Y0059720D01*
X0007000Y0059122D02*
X0016197Y0059122D01*
X0016840Y0058523D02*
X0007000Y0058523D01*
X0007000Y0057925D02*
X0018285Y0057925D01*
X0018193Y0056394D02*
X0017549Y0056185D01*
X0016946Y0055878D01*
X0016399Y0055480D01*
X0015920Y0055001D01*
X0015522Y0054454D01*
X0015215Y0053851D01*
X0015006Y0053207D01*
X0014900Y0052538D01*
X0007000Y0052538D01*
X0007000Y0053137D02*
X0014995Y0053137D01*
X0014900Y0052538D02*
X0014900Y0052500D01*
X0021900Y0052500D01*
X0021900Y0056500D01*
X0018862Y0056500D01*
X0018193Y0056394D01*
X0017440Y0056129D02*
X0007000Y0056129D01*
X0007000Y0055531D02*
X0016469Y0055531D01*
X0015870Y0054932D02*
X0007000Y0054932D01*
X0007000Y0054334D02*
X0015461Y0054334D01*
X0015177Y0053735D02*
X0007000Y0053735D01*
X0007000Y0051939D02*
X0021900Y0051939D01*
X0021900Y0051900D02*
X0014900Y0051900D01*
X0014900Y0051862D01*
X0015006Y0051193D01*
X0015215Y0050549D01*
X0015522Y0049946D01*
X0015920Y0049399D01*
X0016399Y0048920D01*
X0016946Y0048522D01*
X0017549Y0048215D01*
X0018193Y0048006D01*
X0018862Y0047900D01*
X0021900Y0047900D01*
X0021900Y0051900D01*
X0022500Y0051900D01*
X0022500Y0052500D01*
X0021900Y0052500D01*
X0021900Y0051900D01*
X0021900Y0051341D02*
X0022500Y0051341D01*
X0022500Y0051900D02*
X0022500Y0047900D01*
X0025538Y0047900D01*
X0026207Y0048006D01*
X0026851Y0048215D01*
X0027454Y0048522D01*
X0028001Y0048920D01*
X0028480Y0049399D01*
X0028878Y0049946D01*
X0029185Y0050549D01*
X0029394Y0051193D01*
X0029500Y0051862D01*
X0029500Y0051900D01*
X0022500Y0051900D01*
X0022500Y0051939D02*
X0048325Y0051939D01*
X0048325Y0051429D02*
X0048325Y0052971D01*
X0048915Y0054395D01*
X0050005Y0055485D01*
X0051429Y0056075D01*
X0052971Y0056075D01*
X0054395Y0055485D01*
X0055485Y0054395D01*
X0056075Y0052971D01*
X0056075Y0051429D01*
X0055485Y0050005D01*
X0054395Y0048915D01*
X0052971Y0048325D01*
X0051429Y0048325D01*
X0050005Y0048915D01*
X0048915Y0050005D01*
X0048325Y0051429D01*
X0048362Y0051341D02*
X0029418Y0051341D01*
X0029248Y0050742D02*
X0048610Y0050742D01*
X0048858Y0050144D02*
X0028978Y0050144D01*
X0028586Y0049545D02*
X0049375Y0049545D01*
X0049973Y0048947D02*
X0028028Y0048947D01*
X0027112Y0048348D02*
X0051373Y0048348D01*
X0053027Y0048348D02*
X0111373Y0048348D01*
X0111429Y0048325D02*
X0112971Y0048325D01*
X0114395Y0048915D01*
X0115485Y0050005D01*
X0116075Y0051429D01*
X0116075Y0052971D01*
X0115485Y0054395D01*
X0114395Y0055485D01*
X0112971Y0056075D01*
X0111429Y0056075D01*
X0110005Y0055485D01*
X0108915Y0054395D01*
X0108325Y0052971D01*
X0108325Y0051429D01*
X0108915Y0050005D01*
X0110005Y0048915D01*
X0111429Y0048325D01*
X0109973Y0048947D02*
X0054427Y0048947D01*
X0055025Y0049545D02*
X0109375Y0049545D01*
X0108858Y0050144D02*
X0055542Y0050144D01*
X0055790Y0050742D02*
X0108610Y0050742D01*
X0108362Y0051341D02*
X0056038Y0051341D01*
X0056075Y0051939D02*
X0108325Y0051939D01*
X0108325Y0052538D02*
X0056075Y0052538D01*
X0056006Y0053137D02*
X0108394Y0053137D01*
X0108642Y0053735D02*
X0055758Y0053735D01*
X0055510Y0054334D02*
X0108890Y0054334D01*
X0109452Y0054932D02*
X0054948Y0054932D01*
X0054285Y0055531D02*
X0110115Y0055531D01*
X0111429Y0058325D02*
X0112971Y0058325D01*
X0114395Y0058915D01*
X0115485Y0060005D01*
X0116075Y0061429D01*
X0116075Y0062971D01*
X0115485Y0064395D01*
X0114395Y0065485D01*
X0112971Y0066075D01*
X0111429Y0066075D01*
X0110005Y0065485D01*
X0108915Y0064395D01*
X0108325Y0062971D01*
X0108325Y0061429D01*
X0108915Y0060005D01*
X0110005Y0058915D01*
X0111429Y0058325D01*
X0110951Y0058523D02*
X0053449Y0058523D01*
X0052971Y0058325D02*
X0054395Y0058915D01*
X0055485Y0060005D01*
X0056075Y0061429D01*
X0056075Y0062971D01*
X0055485Y0064395D01*
X0054395Y0065485D01*
X0052971Y0066075D01*
X0051429Y0066075D01*
X0050005Y0065485D01*
X0048915Y0064395D01*
X0048325Y0062971D01*
X0048325Y0061429D01*
X0048915Y0060005D01*
X0050005Y0058915D01*
X0051429Y0058325D01*
X0052971Y0058325D01*
X0054601Y0059122D02*
X0109799Y0059122D01*
X0109200Y0059720D02*
X0055200Y0059720D01*
X0055615Y0060319D02*
X0108785Y0060319D01*
X0108537Y0060917D02*
X0055863Y0060917D01*
X0056075Y0061516D02*
X0108325Y0061516D01*
X0108325Y0062114D02*
X0056075Y0062114D01*
X0056075Y0062713D02*
X0108325Y0062713D01*
X0108466Y0063311D02*
X0055934Y0063311D01*
X0055686Y0063910D02*
X0108714Y0063910D01*
X0109028Y0064508D02*
X0055372Y0064508D01*
X0054773Y0065107D02*
X0109627Y0065107D01*
X0110537Y0065705D02*
X0053863Y0065705D01*
X0053870Y0068698D02*
X0110530Y0068698D01*
X0109624Y0069296D02*
X0054776Y0069296D01*
X0055375Y0069895D02*
X0109025Y0069895D01*
X0108713Y0070493D02*
X0055687Y0070493D01*
X0055935Y0071092D02*
X0108465Y0071092D01*
X0108325Y0071690D02*
X0056075Y0071690D01*
X0056075Y0072289D02*
X0108325Y0072289D01*
X0108325Y0072887D02*
X0056075Y0072887D01*
X0055861Y0073486D02*
X0108539Y0073486D01*
X0108786Y0074084D02*
X0055614Y0074084D01*
X0055197Y0074683D02*
X0109203Y0074683D01*
X0109802Y0075281D02*
X0054598Y0075281D01*
X0053441Y0075880D02*
X0110959Y0075880D01*
X0110108Y0078872D02*
X0054292Y0078872D01*
X0054951Y0079471D02*
X0109449Y0079471D01*
X0108888Y0080070D02*
X0055512Y0080070D01*
X0055759Y0080668D02*
X0108641Y0080668D01*
X0108393Y0081267D02*
X0056007Y0081267D01*
X0056075Y0081865D02*
X0108325Y0081865D01*
X0108325Y0082464D02*
X0056075Y0082464D01*
X0056037Y0083062D02*
X0108363Y0083062D01*
X0108611Y0083661D02*
X0055789Y0083661D01*
X0055541Y0084259D02*
X0108859Y0084259D01*
X0109378Y0084858D02*
X0055022Y0084858D01*
X0054424Y0085456D02*
X0109976Y0085456D01*
X0111381Y0086055D02*
X0053019Y0086055D01*
X0051131Y0088449D02*
X0034380Y0088449D01*
X0035128Y0089047D02*
X0049873Y0089047D01*
X0049274Y0089646D02*
X0035727Y0089646D01*
X0036044Y0090244D02*
X0048816Y0090244D01*
X0048568Y0090843D02*
X0036292Y0090843D01*
X0036500Y0091441D02*
X0048325Y0091441D01*
X0048325Y0092040D02*
X0036500Y0092040D01*
X0036500Y0092638D02*
X0048325Y0092638D01*
X0048435Y0093237D02*
X0036425Y0093237D01*
X0036177Y0093835D02*
X0048683Y0093835D01*
X0048954Y0094434D02*
X0035929Y0094434D01*
X0035449Y0095032D02*
X0049552Y0095032D01*
X0031113Y0106404D02*
X0023287Y0106404D01*
X0024676Y0105805D02*
X0029724Y0105805D01*
X0029126Y0105207D02*
X0025274Y0105207D01*
X0025857Y0104608D02*
X0028543Y0104608D01*
X0028295Y0104010D02*
X0026105Y0104010D01*
X0026352Y0103411D02*
X0028048Y0103411D01*
X0027900Y0102813D02*
X0026500Y0102813D01*
X0026500Y0102214D02*
X0027900Y0102214D01*
X0027900Y0101616D02*
X0026500Y0101616D01*
X0026364Y0101017D02*
X0028036Y0101017D01*
X0028283Y0100419D02*
X0026117Y0100419D01*
X0025869Y0099820D02*
X0028531Y0099820D01*
X0029097Y0099222D02*
X0025303Y0099222D01*
X0024704Y0098623D02*
X0029696Y0098623D01*
X0021043Y0098025D02*
X0013265Y0098025D01*
X0013207Y0098006D02*
X0013851Y0098215D01*
X0014454Y0098522D01*
X0015001Y0098920D01*
X0015480Y0099399D01*
X0015878Y0099946D01*
X0016185Y0100549D01*
X0016394Y0101193D01*
X0016500Y0101862D01*
X0016500Y0101900D01*
X0012500Y0101900D01*
X0012500Y0102500D01*
X0011900Y0102500D01*
X0011900Y0106500D01*
X0011862Y0106500D01*
X0011193Y0106394D01*
X0010549Y0106185D01*
X0009946Y0105878D01*
X0009399Y0105480D01*
X0008920Y0105001D01*
X0008522Y0104454D01*
X0008215Y0103851D01*
X0008006Y0103207D01*
X0007900Y0102538D01*
X0007900Y0102500D01*
X0011900Y0102500D01*
X0011900Y0101900D01*
X0007900Y0101900D01*
X0007900Y0101862D01*
X0008006Y0101193D01*
X0008215Y0100549D01*
X0008522Y0099946D01*
X0008920Y0099399D01*
X0009399Y0098920D01*
X0009946Y0098522D01*
X0010549Y0098215D01*
X0011193Y0098006D01*
X0011862Y0097900D01*
X0011900Y0097900D01*
X0011900Y0101900D01*
X0012500Y0101900D01*
X0012500Y0097900D01*
X0012538Y0097900D01*
X0013207Y0098006D01*
X0012500Y0098025D02*
X0011900Y0098025D01*
X0011900Y0098623D02*
X0012500Y0098623D01*
X0012500Y0099222D02*
X0011900Y0099222D01*
X0011900Y0099820D02*
X0012500Y0099820D01*
X0012500Y0100419D02*
X0011900Y0100419D01*
X0011900Y0101017D02*
X0012500Y0101017D01*
X0012500Y0101616D02*
X0011900Y0101616D01*
X0011900Y0102214D02*
X0007000Y0102214D01*
X0007000Y0101616D02*
X0007939Y0101616D01*
X0008063Y0101017D02*
X0007000Y0101017D01*
X0007000Y0100419D02*
X0008282Y0100419D01*
X0008614Y0099820D02*
X0007000Y0099820D01*
X0007000Y0099222D02*
X0009097Y0099222D01*
X0009807Y0098623D02*
X0007000Y0098623D01*
X0007000Y0098025D02*
X0011135Y0098025D01*
X0013714Y0096229D02*
X0020691Y0096229D01*
X0019550Y0095631D02*
X0014793Y0095631D01*
X0015449Y0095032D02*
X0018951Y0095032D01*
X0018471Y0094434D02*
X0015888Y0094434D01*
X0016190Y0093835D02*
X0018223Y0093835D01*
X0017975Y0093237D02*
X0016384Y0093237D01*
X0016484Y0092638D02*
X0017900Y0092638D01*
X0019696Y0098623D02*
X0014593Y0098623D01*
X0015303Y0099222D02*
X0019097Y0099222D01*
X0018531Y0099820D02*
X0015786Y0099820D01*
X0016118Y0100419D02*
X0018283Y0100419D01*
X0018036Y0101017D02*
X0016337Y0101017D01*
X0016461Y0101616D02*
X0017900Y0101616D01*
X0017900Y0102214D02*
X0012500Y0102214D01*
X0012500Y0102500D02*
X0016500Y0102500D01*
X0016500Y0102538D01*
X0016394Y0103207D01*
X0016185Y0103851D01*
X0015878Y0104454D01*
X0015480Y0105001D01*
X0015001Y0105480D01*
X0014454Y0105878D01*
X0013851Y0106185D01*
X0013207Y0106394D01*
X0012538Y0106500D01*
X0012500Y0106500D01*
X0012500Y0102500D01*
X0012500Y0102813D02*
X0011900Y0102813D01*
X0011900Y0103411D02*
X0012500Y0103411D01*
X0012500Y0104010D02*
X0011900Y0104010D01*
X0011900Y0104608D02*
X0012500Y0104608D01*
X0012500Y0105207D02*
X0011900Y0105207D01*
X0011900Y0105805D02*
X0012500Y0105805D01*
X0012500Y0106404D02*
X0011900Y0106404D01*
X0011256Y0106404D02*
X0007000Y0106404D01*
X0007000Y0105805D02*
X0009847Y0105805D01*
X0009126Y0105207D02*
X0007000Y0105207D01*
X0007000Y0104608D02*
X0008635Y0104608D01*
X0008296Y0104010D02*
X0007000Y0104010D01*
X0007000Y0103411D02*
X0008072Y0103411D01*
X0007943Y0102813D02*
X0007000Y0102813D01*
X0007000Y0107003D02*
X0104510Y0107003D01*
X0103912Y0107601D02*
X0007000Y0107601D01*
X0007000Y0108200D02*
X0010597Y0108200D01*
X0010549Y0108215D02*
X0011193Y0108006D01*
X0011862Y0107900D01*
X0011900Y0107900D01*
X0011900Y0111900D01*
X0007900Y0111900D01*
X0007900Y0111862D01*
X0008006Y0111193D01*
X0008215Y0110549D01*
X0008522Y0109946D01*
X0008920Y0109399D01*
X0009399Y0108920D01*
X0009946Y0108522D01*
X0010549Y0108215D01*
X0009567Y0108798D02*
X0007000Y0108798D01*
X0007000Y0109397D02*
X0008922Y0109397D01*
X0008497Y0109995D02*
X0007000Y0109995D01*
X0007000Y0110594D02*
X0008201Y0110594D01*
X0008006Y0111192D02*
X0007000Y0111192D01*
X0007000Y0111791D02*
X0007911Y0111791D01*
X0007900Y0112500D02*
X0011900Y0112500D01*
X0011900Y0116500D01*
X0011862Y0116500D01*
X0011193Y0116394D01*
X0010549Y0116185D01*
X0009946Y0115878D01*
X0009399Y0115480D01*
X0008920Y0115001D01*
X0008522Y0114454D01*
X0008215Y0113851D01*
X0008006Y0113207D01*
X0007900Y0112538D01*
X0007900Y0112500D01*
X0007971Y0112988D02*
X0007000Y0112988D01*
X0007000Y0113586D02*
X0008129Y0113586D01*
X0008385Y0114185D02*
X0007000Y0114185D01*
X0007000Y0114783D02*
X0008762Y0114783D01*
X0009301Y0115382D02*
X0007000Y0115382D01*
X0007000Y0115980D02*
X0010148Y0115980D01*
X0011900Y0115980D02*
X0012500Y0115980D01*
X0012500Y0116500D02*
X0012500Y0112500D01*
X0011900Y0112500D01*
X0011900Y0111900D01*
X0012500Y0111900D01*
X0012500Y0112500D01*
X0016500Y0112500D01*
X0016500Y0112538D01*
X0016394Y0113207D01*
X0016185Y0113851D01*
X0015878Y0114454D01*
X0015480Y0115001D01*
X0015001Y0115480D01*
X0014454Y0115878D01*
X0013851Y0116185D01*
X0013207Y0116394D01*
X0012538Y0116500D01*
X0012500Y0116500D01*
X0012500Y0115382D02*
X0011900Y0115382D01*
X0011900Y0114783D02*
X0012500Y0114783D01*
X0012500Y0114185D02*
X0011900Y0114185D01*
X0011900Y0113586D02*
X0012500Y0113586D01*
X0012500Y0112988D02*
X0011900Y0112988D01*
X0011900Y0112389D02*
X0007000Y0112389D01*
X0011900Y0111791D02*
X0012500Y0111791D01*
X0012500Y0111900D02*
X0012500Y0107900D01*
X0012538Y0107900D01*
X0013207Y0108006D01*
X0013851Y0108215D01*
X0014454Y0108522D01*
X0015001Y0108920D01*
X0015480Y0109399D01*
X0015878Y0109946D01*
X0016185Y0110549D01*
X0016394Y0111193D01*
X0016500Y0111862D01*
X0016500Y0111900D01*
X0012500Y0111900D01*
X0012500Y0112389D02*
X0017900Y0112389D01*
X0017900Y0111791D02*
X0016489Y0111791D01*
X0016394Y0111192D02*
X0017963Y0111192D01*
X0017900Y0111345D02*
X0018555Y0109764D01*
X0019764Y0108555D01*
X0021345Y0107900D01*
X0023055Y0107900D01*
X0024636Y0108555D01*
X0025845Y0109764D01*
X0026500Y0111345D01*
X0026500Y0113055D01*
X0025845Y0114636D01*
X0024636Y0115845D01*
X0023055Y0116500D01*
X0021345Y0116500D01*
X0019764Y0115845D01*
X0018555Y0114636D01*
X0017900Y0113055D01*
X0017900Y0111345D01*
X0018211Y0110594D02*
X0016199Y0110594D01*
X0015903Y0109995D02*
X0018459Y0109995D01*
X0018922Y0109397D02*
X0015478Y0109397D01*
X0014833Y0108798D02*
X0019521Y0108798D01*
X0020622Y0108200D02*
X0013803Y0108200D01*
X0012500Y0108200D02*
X0011900Y0108200D01*
X0011900Y0108798D02*
X0012500Y0108798D01*
X0012500Y0109397D02*
X0011900Y0109397D01*
X0011900Y0109995D02*
X0012500Y0109995D01*
X0012500Y0110594D02*
X0011900Y0110594D01*
X0011900Y0111192D02*
X0012500Y0111192D01*
X0016429Y0112988D02*
X0017900Y0112988D01*
X0018120Y0113586D02*
X0016271Y0113586D01*
X0016015Y0114185D02*
X0018368Y0114185D01*
X0018702Y0114783D02*
X0015638Y0114783D01*
X0015099Y0115382D02*
X0019301Y0115382D01*
X0020090Y0115980D02*
X0014252Y0115980D01*
X0007000Y0116579D02*
X0103400Y0116579D01*
X0103400Y0117177D02*
X0007000Y0117177D01*
X0007000Y0117776D02*
X0103400Y0117776D01*
X0103400Y0118374D02*
X0053089Y0118374D01*
X0052971Y0118325D02*
X0054395Y0118915D01*
X0055485Y0120005D01*
X0056075Y0121429D01*
X0056075Y0122971D01*
X0055485Y0124395D01*
X0054395Y0125485D01*
X0052971Y0126075D01*
X0051429Y0126075D01*
X0050005Y0125485D01*
X0048915Y0124395D01*
X0048325Y0122971D01*
X0048325Y0121429D01*
X0048915Y0120005D01*
X0050005Y0118915D01*
X0051429Y0118325D01*
X0052971Y0118325D01*
X0054453Y0118973D02*
X0103400Y0118973D01*
X0103400Y0119571D02*
X0055051Y0119571D01*
X0055553Y0120170D02*
X0103400Y0120170D01*
X0103400Y0120768D02*
X0055801Y0120768D01*
X0056049Y0121367D02*
X0103400Y0121367D01*
X0103400Y0121965D02*
X0056075Y0121965D01*
X0056075Y0122564D02*
X0103400Y0122564D01*
X0103400Y0123162D02*
X0055995Y0123162D01*
X0055748Y0123761D02*
X0103400Y0123761D01*
X0103400Y0124359D02*
X0055500Y0124359D01*
X0054922Y0124958D02*
X0103400Y0124958D01*
X0103400Y0125556D02*
X0054222Y0125556D01*
X0053330Y0128474D02*
X0054035Y0128766D01*
X0054670Y0129190D01*
X0055210Y0129730D01*
X0055634Y0130365D01*
X0055926Y0131070D01*
X0056075Y0131818D01*
X0056075Y0131900D01*
X0052500Y0131900D01*
X0052500Y0132500D01*
X0051900Y0132500D01*
X0051900Y0136075D01*
X0051818Y0136075D01*
X0051070Y0135926D01*
X0050365Y0135634D01*
X0049730Y0135210D01*
X0049190Y0134670D01*
X0048766Y0134035D01*
X0048474Y0133330D01*
X0048325Y0132582D01*
X0048325Y0132500D01*
X0051900Y0132500D01*
X0051900Y0131900D01*
X0048325Y0131900D01*
X0048325Y0131818D01*
X0048474Y0131070D01*
X0048766Y0130365D01*
X0049190Y0129730D01*
X0049730Y0129190D01*
X0050365Y0128766D01*
X0051070Y0128474D01*
X0051818Y0128325D01*
X0051900Y0128325D01*
X0051900Y0131900D01*
X0052500Y0131900D01*
X0052500Y0128325D01*
X0052582Y0128325D01*
X0053330Y0128474D01*
X0053511Y0128549D02*
X0103400Y0128549D01*
X0103400Y0129147D02*
X0054606Y0129147D01*
X0055220Y0129746D02*
X0103400Y0129746D01*
X0103400Y0130344D02*
X0055620Y0130344D01*
X0055873Y0130943D02*
X0103400Y0130943D01*
X0103400Y0131541D02*
X0056020Y0131541D01*
X0056075Y0132500D02*
X0056075Y0132582D01*
X0055926Y0133330D01*
X0055634Y0134035D01*
X0055210Y0134670D01*
X0054670Y0135210D01*
X0054035Y0135634D01*
X0053330Y0135926D01*
X0052582Y0136075D01*
X0052500Y0136075D01*
X0052500Y0132500D01*
X0056075Y0132500D01*
X0056044Y0132739D02*
X0103400Y0132739D01*
X0103400Y0133337D02*
X0055923Y0133337D01*
X0055675Y0133936D02*
X0103400Y0133936D01*
X0103400Y0134534D02*
X0055301Y0134534D01*
X0054747Y0135133D02*
X0103546Y0135133D01*
X0104144Y0135731D02*
X0053801Y0135731D01*
X0052500Y0135731D02*
X0051900Y0135731D01*
X0051900Y0135133D02*
X0052500Y0135133D01*
X0052500Y0134534D02*
X0051900Y0134534D01*
X0051900Y0133936D02*
X0052500Y0133936D01*
X0052500Y0133337D02*
X0051900Y0133337D01*
X0051900Y0132739D02*
X0052500Y0132739D01*
X0052500Y0132140D02*
X0103400Y0132140D01*
X0107200Y0132140D02*
X0108325Y0132140D01*
X0108325Y0132739D02*
X0107200Y0132739D01*
X0107200Y0133337D02*
X0108477Y0133337D01*
X0108725Y0133936D02*
X0107723Y0133936D01*
X0107200Y0131541D02*
X0108325Y0131541D01*
X0108527Y0130943D02*
X0107200Y0130943D01*
X0107200Y0130344D02*
X0108775Y0130344D01*
X0109174Y0129746D02*
X0107200Y0129746D01*
X0107200Y0129147D02*
X0109773Y0129147D01*
X0110889Y0128549D02*
X0107200Y0128549D01*
X0107200Y0127950D02*
X0122351Y0127950D01*
X0122351Y0128549D02*
X0113511Y0128549D01*
X0114627Y0129147D02*
X0121966Y0129147D01*
X0121367Y0129746D02*
X0115226Y0129746D01*
X0117331Y0130344D02*
X0120769Y0130344D01*
X0120170Y0130943D02*
X0117930Y0130943D01*
X0121953Y0134534D02*
X0122351Y0134534D01*
X0122694Y0135133D02*
X0118820Y0135133D01*
X0119418Y0135731D02*
X0145443Y0135731D01*
X0144844Y0135133D02*
X0131706Y0135133D01*
X0132049Y0134534D02*
X0144471Y0134534D01*
X0144223Y0133936D02*
X0132049Y0133936D01*
X0132049Y0133337D02*
X0143975Y0133337D01*
X0143900Y0132739D02*
X0132049Y0132739D01*
X0132049Y0132140D02*
X0143900Y0132140D01*
X0143900Y0131541D02*
X0132049Y0131541D01*
X0132049Y0130943D02*
X0144025Y0130943D01*
X0144273Y0130344D02*
X0132049Y0130344D01*
X0132049Y0129746D02*
X0144521Y0129746D01*
X0144964Y0129147D02*
X0132049Y0129147D01*
X0132049Y0128549D02*
X0145563Y0128549D01*
X0146416Y0127950D02*
X0132049Y0127950D01*
X0125400Y0126155D02*
X0107200Y0126155D01*
X0107200Y0126753D02*
X0123011Y0126753D01*
X0122412Y0127352D02*
X0107200Y0127352D01*
X0107200Y0125556D02*
X0110178Y0125556D01*
X0110005Y0125485D02*
X0108915Y0124395D01*
X0108325Y0122971D01*
X0108325Y0121429D01*
X0108915Y0120005D01*
X0110005Y0118915D01*
X0111429Y0118325D01*
X0112971Y0118325D01*
X0114395Y0118915D01*
X0115485Y0120005D01*
X0116075Y0121429D01*
X0116075Y0122971D01*
X0115485Y0124395D01*
X0114395Y0125485D01*
X0112971Y0126075D01*
X0111429Y0126075D01*
X0110005Y0125485D01*
X0109478Y0124958D02*
X0107200Y0124958D01*
X0107200Y0124359D02*
X0108900Y0124359D01*
X0108652Y0123761D02*
X0107200Y0123761D01*
X0107200Y0123162D02*
X0108405Y0123162D01*
X0108325Y0122564D02*
X0107200Y0122564D01*
X0107200Y0121965D02*
X0108325Y0121965D01*
X0108351Y0121367D02*
X0107200Y0121367D01*
X0107200Y0120768D02*
X0108599Y0120768D01*
X0108847Y0120170D02*
X0107200Y0120170D01*
X0107200Y0119571D02*
X0109349Y0119571D01*
X0109947Y0118973D02*
X0107200Y0118973D01*
X0107200Y0118374D02*
X0111311Y0118374D01*
X0113089Y0118374D02*
X0122351Y0118374D01*
X0122351Y0117776D02*
X0107200Y0117776D01*
X0107200Y0117177D02*
X0122351Y0117177D01*
X0122351Y0116579D02*
X0107200Y0116579D01*
X0107200Y0115980D02*
X0111201Y0115980D01*
X0111429Y0116075D02*
X0110005Y0115485D01*
X0108915Y0114395D01*
X0108325Y0112971D01*
X0108325Y0111429D01*
X0108915Y0110005D01*
X0110005Y0108915D01*
X0111429Y0108325D01*
X0112971Y0108325D01*
X0114395Y0108915D01*
X0115485Y0110005D01*
X0116075Y0111429D01*
X0116075Y0112971D01*
X0115485Y0114395D01*
X0114395Y0115485D01*
X0112971Y0116075D01*
X0111429Y0116075D01*
X0109902Y0115382D02*
X0107200Y0115382D01*
X0107200Y0114783D02*
X0109303Y0114783D01*
X0108828Y0114185D02*
X0107200Y0114185D01*
X0107200Y0113586D02*
X0108580Y0113586D01*
X0108332Y0112988D02*
X0107200Y0112988D01*
X0107200Y0112389D02*
X0108325Y0112389D01*
X0108325Y0111791D02*
X0107200Y0111791D01*
X0107200Y0111192D02*
X0108423Y0111192D01*
X0108671Y0110594D02*
X0107200Y0110594D01*
X0107200Y0109995D02*
X0108925Y0109995D01*
X0109524Y0109397D02*
X0107490Y0109397D01*
X0108089Y0108798D02*
X0110288Y0108798D01*
X0109286Y0107601D02*
X0122351Y0107601D01*
X0122351Y0107003D02*
X0109884Y0107003D01*
X0110483Y0106404D02*
X0122351Y0106404D01*
X0122351Y0105805D02*
X0113621Y0105805D01*
X0114673Y0105207D02*
X0122351Y0105207D01*
X0122351Y0104608D02*
X0115271Y0104608D01*
X0115644Y0104010D02*
X0122351Y0104010D01*
X0122853Y0103411D02*
X0115892Y0103411D01*
X0116075Y0102813D02*
X0122926Y0102813D01*
X0122327Y0102214D02*
X0116075Y0102214D01*
X0116075Y0101616D02*
X0121729Y0101616D01*
X0121130Y0101017D02*
X0115904Y0101017D01*
X0115656Y0100419D02*
X0120532Y0100419D01*
X0119933Y0099820D02*
X0115300Y0099820D01*
X0114702Y0099222D02*
X0119335Y0099222D01*
X0118736Y0098623D02*
X0113691Y0098623D01*
X0123512Y0098025D02*
X0146237Y0098025D01*
X0145488Y0098623D02*
X0124110Y0098623D01*
X0124709Y0099222D02*
X0144890Y0099222D01*
X0144490Y0099820D02*
X0125307Y0099820D01*
X0125906Y0100419D02*
X0144242Y0100419D01*
X0143994Y0101017D02*
X0126504Y0101017D01*
X0127103Y0101616D02*
X0143900Y0101616D01*
X0143900Y0102214D02*
X0127701Y0102214D01*
X0128100Y0102813D02*
X0143900Y0102813D01*
X0144006Y0103411D02*
X0131547Y0103411D01*
X0132049Y0104010D02*
X0144254Y0104010D01*
X0144502Y0104608D02*
X0132049Y0104608D01*
X0132049Y0105207D02*
X0144919Y0105207D01*
X0145517Y0105805D02*
X0132049Y0105805D01*
X0132049Y0106404D02*
X0146306Y0106404D01*
X0147260Y0107601D02*
X0132049Y0107601D01*
X0132049Y0107003D02*
X0207601Y0107003D01*
X0202000Y0068099D02*
X0201400Y0068099D01*
X0201400Y0067501D02*
X0202000Y0067501D01*
X0202000Y0066902D02*
X0201400Y0066902D01*
X0201400Y0066304D02*
X0202000Y0066304D01*
X0202000Y0065705D02*
X0201400Y0065705D01*
X0201400Y0065107D02*
X0202000Y0065107D01*
X0202000Y0064508D02*
X0201400Y0064508D01*
X0197686Y0064508D02*
X0115372Y0064508D01*
X0115686Y0063910D02*
X0207601Y0063910D01*
X0207601Y0064508D02*
X0205714Y0064508D01*
X0207070Y0065107D02*
X0207601Y0065107D01*
X0207601Y0063311D02*
X0115934Y0063311D01*
X0116075Y0062713D02*
X0197151Y0062713D01*
X0196033Y0062114D02*
X0116075Y0062114D01*
X0116075Y0061516D02*
X0195435Y0061516D01*
X0194964Y0060917D02*
X0115863Y0060917D01*
X0115615Y0060319D02*
X0194716Y0060319D01*
X0194468Y0059720D02*
X0115200Y0059720D01*
X0114601Y0059122D02*
X0194400Y0059122D01*
X0194400Y0058523D02*
X0113449Y0058523D01*
X0114285Y0055531D02*
X0195788Y0055531D01*
X0195190Y0056129D02*
X0026960Y0056129D01*
X0026851Y0056185D02*
X0026207Y0056394D01*
X0025538Y0056500D01*
X0022500Y0056500D01*
X0022500Y0052500D01*
X0029500Y0052500D01*
X0029500Y0052538D01*
X0048325Y0052538D01*
X0048394Y0053137D02*
X0029405Y0053137D01*
X0029394Y0053207D02*
X0029185Y0053851D01*
X0028878Y0054454D01*
X0028480Y0055001D01*
X0028001Y0055480D01*
X0027454Y0055878D01*
X0026851Y0056185D01*
X0027931Y0055531D02*
X0050115Y0055531D01*
X0049452Y0054932D02*
X0028530Y0054932D01*
X0028939Y0054334D02*
X0048890Y0054334D01*
X0048642Y0053735D02*
X0029223Y0053735D01*
X0029394Y0053207D02*
X0029500Y0052538D01*
X0027560Y0058523D02*
X0050951Y0058523D01*
X0049799Y0059122D02*
X0028203Y0059122D01*
X0028801Y0059720D02*
X0029429Y0059720D01*
X0026115Y0057925D02*
X0194400Y0057925D01*
X0194615Y0057326D02*
X0007000Y0057326D01*
X0007000Y0056728D02*
X0194863Y0056728D01*
X0196560Y0054932D02*
X0114948Y0054932D01*
X0115510Y0054334D02*
X0207601Y0054334D01*
X0207601Y0054932D02*
X0206840Y0054932D01*
X0207601Y0053735D02*
X0115758Y0053735D01*
X0116006Y0053137D02*
X0207601Y0053137D01*
X0207601Y0052538D02*
X0116075Y0052538D01*
X0116075Y0051939D02*
X0207601Y0051939D01*
X0207601Y0051341D02*
X0116038Y0051341D01*
X0115790Y0050742D02*
X0200030Y0050742D01*
X0200088Y0050800D02*
X0197100Y0047812D01*
X0197100Y0043588D01*
X0200088Y0040600D01*
X0204312Y0040600D01*
X0207300Y0043588D01*
X0207300Y0047812D01*
X0204312Y0050800D01*
X0200088Y0050800D01*
X0199431Y0050144D02*
X0115542Y0050144D01*
X0115025Y0049545D02*
X0198833Y0049545D01*
X0198234Y0048947D02*
X0114427Y0048947D01*
X0113027Y0048348D02*
X0197636Y0048348D01*
X0197100Y0047750D02*
X0007000Y0047750D01*
X0007000Y0048348D02*
X0017288Y0048348D01*
X0016372Y0048947D02*
X0007000Y0048947D01*
X0007000Y0049545D02*
X0015814Y0049545D01*
X0015422Y0050144D02*
X0007000Y0050144D01*
X0007000Y0050742D02*
X0015152Y0050742D01*
X0014982Y0051341D02*
X0007000Y0051341D01*
X0007000Y0047151D02*
X0197100Y0047151D01*
X0197100Y0046553D02*
X0007000Y0046553D01*
X0007000Y0045954D02*
X0010097Y0045954D01*
X0009946Y0045878D02*
X0009399Y0045480D01*
X0008920Y0045001D01*
X0008522Y0044454D01*
X0008215Y0043851D01*
X0008006Y0043207D01*
X0007900Y0042538D01*
X0007900Y0042500D01*
X0011900Y0042500D01*
X0011900Y0046500D01*
X0011862Y0046500D01*
X0011193Y0046394D01*
X0010549Y0046185D01*
X0009946Y0045878D01*
X0009275Y0045356D02*
X0007000Y0045356D01*
X0007000Y0044757D02*
X0008743Y0044757D01*
X0008372Y0044159D02*
X0007000Y0044159D01*
X0007000Y0043560D02*
X0008121Y0043560D01*
X0007967Y0042962D02*
X0007000Y0042962D01*
X0007000Y0042363D02*
X0011900Y0042363D01*
X0011900Y0042500D02*
X0011900Y0041900D01*
X0007900Y0041900D01*
X0007900Y0041862D01*
X0008006Y0041193D01*
X0008215Y0040549D01*
X0008522Y0039946D01*
X0008920Y0039399D01*
X0009399Y0038920D01*
X0009946Y0038522D01*
X0010549Y0038215D01*
X0011193Y0038006D01*
X0011862Y0037900D01*
X0011900Y0037900D01*
X0011900Y0041900D01*
X0012500Y0041900D01*
X0012500Y0042500D01*
X0011900Y0042500D01*
X0011900Y0042962D02*
X0012500Y0042962D01*
X0012500Y0042500D02*
X0012500Y0046500D01*
X0012538Y0046500D01*
X0013207Y0046394D01*
X0013851Y0046185D01*
X0014454Y0045878D01*
X0015001Y0045480D01*
X0015480Y0045001D01*
X0015878Y0044454D01*
X0016185Y0043851D01*
X0016394Y0043207D01*
X0016500Y0042538D01*
X0016500Y0042500D01*
X0012500Y0042500D01*
X0012500Y0042363D02*
X0017900Y0042363D01*
X0017900Y0041765D02*
X0016485Y0041765D01*
X0016500Y0041862D02*
X0016500Y0041900D01*
X0012500Y0041900D01*
X0012500Y0037900D01*
X0012538Y0037900D01*
X0013207Y0038006D01*
X0013851Y0038215D01*
X0014454Y0038522D01*
X0015001Y0038920D01*
X0015480Y0039399D01*
X0015878Y0039946D01*
X0016185Y0040549D01*
X0016394Y0041193D01*
X0016500Y0041862D01*
X0016385Y0041166D02*
X0017974Y0041166D01*
X0017900Y0041345D02*
X0018555Y0039764D01*
X0019764Y0038555D01*
X0021345Y0037900D01*
X0023055Y0037900D01*
X0024636Y0038555D01*
X0025845Y0039764D01*
X0026500Y0041345D01*
X0026500Y0043055D01*
X0025845Y0044636D01*
X0024636Y0045845D01*
X0023055Y0046500D01*
X0021345Y0046500D01*
X0019764Y0045845D01*
X0018555Y0044636D01*
X0017900Y0043055D01*
X0017900Y0041345D01*
X0018222Y0040568D02*
X0016191Y0040568D01*
X0015889Y0039969D02*
X0018470Y0039969D01*
X0018948Y0039371D02*
X0015452Y0039371D01*
X0014798Y0038772D02*
X0019547Y0038772D01*
X0020684Y0038174D02*
X0013723Y0038174D01*
X0012500Y0038174D02*
X0011900Y0038174D01*
X0011900Y0038772D02*
X0012500Y0038772D01*
X0012500Y0039371D02*
X0011900Y0039371D01*
X0011900Y0039969D02*
X0012500Y0039969D01*
X0012500Y0040568D02*
X0011900Y0040568D01*
X0011900Y0041166D02*
X0012500Y0041166D01*
X0012500Y0041765D02*
X0011900Y0041765D01*
X0011900Y0043560D02*
X0012500Y0043560D01*
X0012500Y0044159D02*
X0011900Y0044159D01*
X0011900Y0044757D02*
X0012500Y0044757D01*
X0012500Y0045356D02*
X0011900Y0045356D01*
X0011900Y0045954D02*
X0012500Y0045954D01*
X0014303Y0045954D02*
X0020027Y0045954D01*
X0019275Y0045356D02*
X0015125Y0045356D01*
X0015657Y0044757D02*
X0018676Y0044757D01*
X0018357Y0044159D02*
X0016028Y0044159D01*
X0016279Y0043560D02*
X0018109Y0043560D01*
X0017900Y0042962D02*
X0016433Y0042962D01*
X0010677Y0038174D02*
X0007000Y0038174D01*
X0007000Y0038772D02*
X0009602Y0038772D01*
X0008948Y0039371D02*
X0007000Y0039371D01*
X0007000Y0039969D02*
X0008511Y0039969D01*
X0008209Y0040568D02*
X0007000Y0040568D01*
X0007000Y0041166D02*
X0008015Y0041166D01*
X0007915Y0041765D02*
X0007000Y0041765D01*
X0007000Y0037575D02*
X0207601Y0037575D01*
X0207601Y0036977D02*
X0007000Y0036977D01*
X0007000Y0036378D02*
X0011144Y0036378D01*
X0011193Y0036394D02*
X0010549Y0036185D01*
X0009946Y0035878D01*
X0009399Y0035480D01*
X0008920Y0035001D01*
X0008522Y0034454D01*
X0008215Y0033851D01*
X0008006Y0033207D01*
X0007900Y0032538D01*
X0007900Y0032500D01*
X0011900Y0032500D01*
X0011900Y0036500D01*
X0011862Y0036500D01*
X0011193Y0036394D01*
X0011900Y0036378D02*
X0012500Y0036378D01*
X0012500Y0036500D02*
X0012500Y0032500D01*
X0011900Y0032500D01*
X0011900Y0031900D01*
X0007900Y0031900D01*
X0007900Y0031862D01*
X0008006Y0031193D01*
X0008215Y0030549D01*
X0008522Y0029946D01*
X0008920Y0029399D01*
X0009399Y0028920D01*
X0009946Y0028522D01*
X0010549Y0028215D01*
X0011193Y0028006D01*
X0011862Y0027900D01*
X0011900Y0027900D01*
X0011900Y0031900D01*
X0012500Y0031900D01*
X0012500Y0032500D01*
X0016500Y0032500D01*
X0016500Y0032538D01*
X0016394Y0033207D01*
X0016185Y0033851D01*
X0015878Y0034454D01*
X0015480Y0035001D01*
X0015001Y0035480D01*
X0014454Y0035878D01*
X0013851Y0036185D01*
X0013207Y0036394D01*
X0012538Y0036500D01*
X0012500Y0036500D01*
X0012500Y0035780D02*
X0011900Y0035780D01*
X0011900Y0035181D02*
X0012500Y0035181D01*
X0012500Y0034583D02*
X0011900Y0034583D01*
X0011900Y0033984D02*
X0012500Y0033984D01*
X0012500Y0033386D02*
X0011900Y0033386D01*
X0011900Y0032787D02*
X0012500Y0032787D01*
X0012500Y0032189D02*
X0017900Y0032189D01*
X0017900Y0032787D02*
X0016461Y0032787D01*
X0016336Y0033386D02*
X0018037Y0033386D01*
X0017900Y0033055D02*
X0018555Y0034636D01*
X0019764Y0035845D01*
X0021345Y0036500D01*
X0023055Y0036500D01*
X0024636Y0035845D01*
X0025845Y0034636D01*
X0026500Y0033055D01*
X0026500Y0031345D01*
X0025845Y0029764D01*
X0024636Y0028555D01*
X0023055Y0027900D01*
X0021345Y0027900D01*
X0019764Y0028555D01*
X0018555Y0029764D01*
X0017900Y0031345D01*
X0017900Y0033055D01*
X0018285Y0033984D02*
X0016117Y0033984D01*
X0015784Y0034583D02*
X0018533Y0034583D01*
X0019100Y0035181D02*
X0015300Y0035181D01*
X0014589Y0035780D02*
X0019699Y0035780D01*
X0021051Y0036378D02*
X0013256Y0036378D01*
X0009811Y0035780D02*
X0007000Y0035780D01*
X0007000Y0035181D02*
X0009100Y0035181D01*
X0008616Y0034583D02*
X0007000Y0034583D01*
X0007000Y0033984D02*
X0008283Y0033984D01*
X0008064Y0033386D02*
X0007000Y0033386D01*
X0007000Y0032787D02*
X0007939Y0032787D01*
X0007000Y0032189D02*
X0011900Y0032189D01*
X0011900Y0031590D02*
X0012500Y0031590D01*
X0012500Y0031900D02*
X0012500Y0027900D01*
X0012538Y0027900D01*
X0013207Y0028006D01*
X0013851Y0028215D01*
X0014454Y0028522D01*
X0015001Y0028920D01*
X0015480Y0029399D01*
X0015878Y0029946D01*
X0016185Y0030549D01*
X0016394Y0031193D01*
X0016500Y0031862D01*
X0016500Y0031900D01*
X0012500Y0031900D01*
X0012500Y0030992D02*
X0011900Y0030992D01*
X0011900Y0030393D02*
X0012500Y0030393D01*
X0012500Y0029795D02*
X0011900Y0029795D01*
X0011900Y0029196D02*
X0012500Y0029196D01*
X0012500Y0028598D02*
X0011900Y0028598D01*
X0011900Y0027999D02*
X0012500Y0027999D01*
X0013164Y0027999D02*
X0021106Y0027999D01*
X0019721Y0028598D02*
X0014557Y0028598D01*
X0015277Y0029196D02*
X0019123Y0029196D01*
X0018542Y0029795D02*
X0015767Y0029795D01*
X0016105Y0030393D02*
X0018294Y0030393D01*
X0018046Y0030992D02*
X0016329Y0030992D01*
X0016457Y0031590D02*
X0017900Y0031590D01*
X0023294Y0027999D02*
X0031106Y0027999D01*
X0031345Y0027900D02*
X0033055Y0027900D01*
X0034636Y0028555D01*
X0035845Y0029764D01*
X0036500Y0031345D01*
X0036500Y0033055D01*
X0035845Y0034636D01*
X0034636Y0035845D01*
X0033055Y0036500D01*
X0031345Y0036500D01*
X0029764Y0035845D01*
X0028555Y0034636D01*
X0027900Y0033055D01*
X0027900Y0031345D01*
X0028555Y0029764D01*
X0029764Y0028555D01*
X0031345Y0027900D01*
X0031345Y0026500D02*
X0029764Y0025845D01*
X0028555Y0024636D01*
X0027900Y0023055D01*
X0027900Y0021345D01*
X0028555Y0019764D01*
X0029764Y0018555D01*
X0031345Y0017900D01*
X0033055Y0017900D01*
X0034636Y0018555D01*
X0035845Y0019764D01*
X0036500Y0021345D01*
X0036500Y0023055D01*
X0035845Y0024636D01*
X0034636Y0025845D01*
X0033055Y0026500D01*
X0031345Y0026500D01*
X0030629Y0026203D02*
X0023771Y0026203D01*
X0023055Y0026500D02*
X0024636Y0025845D01*
X0025845Y0024636D01*
X0026500Y0023055D01*
X0026500Y0021345D01*
X0025845Y0019764D01*
X0024636Y0018555D01*
X0023055Y0017900D01*
X0021345Y0017900D01*
X0019764Y0018555D01*
X0018555Y0019764D01*
X0017900Y0021345D01*
X0017900Y0023055D01*
X0018555Y0024636D01*
X0019764Y0025845D01*
X0021345Y0026500D01*
X0023055Y0026500D01*
X0024876Y0025605D02*
X0029524Y0025605D01*
X0028925Y0025006D02*
X0025475Y0025006D01*
X0025940Y0024408D02*
X0028460Y0024408D01*
X0028212Y0023809D02*
X0026188Y0023809D01*
X0026436Y0023211D02*
X0027964Y0023211D01*
X0027900Y0022612D02*
X0026500Y0022612D01*
X0026500Y0022014D02*
X0027900Y0022014D01*
X0027900Y0021415D02*
X0026500Y0021415D01*
X0026281Y0020817D02*
X0028119Y0020817D01*
X0028367Y0020218D02*
X0026033Y0020218D01*
X0025701Y0019620D02*
X0028699Y0019620D01*
X0029298Y0019021D02*
X0025102Y0019021D01*
X0024318Y0018423D02*
X0030082Y0018423D01*
X0034318Y0018423D02*
X0051193Y0018423D01*
X0051429Y0018325D02*
X0052971Y0018325D01*
X0054395Y0018915D01*
X0055485Y0020005D01*
X0056075Y0021429D01*
X0056075Y0022971D01*
X0055485Y0024395D01*
X0054395Y0025485D01*
X0052971Y0026075D01*
X0051429Y0026075D01*
X0050005Y0025485D01*
X0048915Y0024395D01*
X0048325Y0022971D01*
X0048325Y0021429D01*
X0048915Y0020005D01*
X0050005Y0018915D01*
X0051429Y0018325D01*
X0051245Y0017000D02*
X0049481Y0016269D01*
X0048131Y0014919D01*
X0047400Y0013155D01*
X0047400Y0011245D01*
X0048131Y0009481D01*
X0049481Y0008131D01*
X0051245Y0007400D01*
X0053155Y0007400D01*
X0054919Y0008131D01*
X0056269Y0009481D01*
X0057000Y0011245D01*
X0057000Y0013155D01*
X0056269Y0014919D01*
X0054919Y0016269D01*
X0053155Y0017000D01*
X0051245Y0017000D01*
X0050346Y0016627D02*
X0007000Y0016627D01*
X0007000Y0016029D02*
X0049241Y0016029D01*
X0048642Y0015430D02*
X0007000Y0015430D01*
X0007000Y0014832D02*
X0048095Y0014832D01*
X0047847Y0014233D02*
X0007000Y0014233D01*
X0007000Y0013635D02*
X0047599Y0013635D01*
X0047400Y0013036D02*
X0007000Y0013036D01*
X0007000Y0012438D02*
X0047400Y0012438D01*
X0047400Y0011839D02*
X0007000Y0011839D01*
X0007000Y0011241D02*
X0047402Y0011241D01*
X0047650Y0010642D02*
X0007000Y0010642D01*
X0007000Y0010044D02*
X0047898Y0010044D01*
X0048167Y0009445D02*
X0007000Y0009445D01*
X0007000Y0008847D02*
X0048765Y0008847D01*
X0049364Y0008248D02*
X0007000Y0008248D01*
X0007000Y0007650D02*
X0050643Y0007650D01*
X0053757Y0007650D02*
X0110643Y0007650D01*
X0111245Y0007400D02*
X0113155Y0007400D01*
X0114919Y0008131D01*
X0116269Y0009481D01*
X0117000Y0011245D01*
X0117000Y0013155D01*
X0116269Y0014919D01*
X0114919Y0016269D01*
X0113155Y0017000D01*
X0111245Y0017000D01*
X0109481Y0016269D01*
X0108131Y0014919D01*
X0107400Y0013155D01*
X0107400Y0011245D01*
X0108131Y0009481D01*
X0109481Y0008131D01*
X0111245Y0007400D01*
X0109364Y0008248D02*
X0055036Y0008248D01*
X0055635Y0008847D02*
X0108765Y0008847D01*
X0108167Y0009445D02*
X0056233Y0009445D01*
X0056502Y0010044D02*
X0107898Y0010044D01*
X0107650Y0010642D02*
X0056750Y0010642D01*
X0056998Y0011241D02*
X0107402Y0011241D01*
X0107400Y0011839D02*
X0057000Y0011839D01*
X0057000Y0012438D02*
X0107400Y0012438D01*
X0107400Y0013036D02*
X0057000Y0013036D01*
X0056801Y0013635D02*
X0107599Y0013635D01*
X0107847Y0014233D02*
X0056553Y0014233D01*
X0056305Y0014832D02*
X0108095Y0014832D01*
X0108642Y0015430D02*
X0055758Y0015430D01*
X0055159Y0016029D02*
X0109241Y0016029D01*
X0110346Y0016627D02*
X0054054Y0016627D01*
X0053206Y0018423D02*
X0108989Y0018423D01*
X0109087Y0018325D02*
X0115313Y0018325D01*
X0116075Y0019087D01*
X0116075Y0025313D01*
X0115313Y0026075D01*
X0109087Y0026075D01*
X0108325Y0025313D01*
X0108325Y0019087D01*
X0109087Y0018325D01*
X0108391Y0019021D02*
X0054501Y0019021D01*
X0055100Y0019620D02*
X0108325Y0019620D01*
X0108325Y0020218D02*
X0055573Y0020218D01*
X0055821Y0020817D02*
X0108325Y0020817D01*
X0108325Y0021415D02*
X0056069Y0021415D01*
X0056075Y0022014D02*
X0108325Y0022014D01*
X0108325Y0022612D02*
X0056075Y0022612D01*
X0055975Y0023211D02*
X0108325Y0023211D01*
X0108325Y0023809D02*
X0055727Y0023809D01*
X0055472Y0024408D02*
X0108325Y0024408D01*
X0108325Y0025006D02*
X0054873Y0025006D01*
X0054105Y0025605D02*
X0108617Y0025605D01*
X0110005Y0028915D02*
X0111429Y0028325D01*
X0112971Y0028325D01*
X0114395Y0028915D01*
X0115485Y0030005D01*
X0116075Y0031429D01*
X0116075Y0032971D01*
X0115485Y0034395D01*
X0114395Y0035485D01*
X0112971Y0036075D01*
X0111429Y0036075D01*
X0110005Y0035485D01*
X0108915Y0034395D01*
X0108325Y0032971D01*
X0108325Y0031429D01*
X0108915Y0030005D01*
X0110005Y0028915D01*
X0109724Y0029196D02*
X0054676Y0029196D01*
X0054395Y0028915D02*
X0055485Y0030005D01*
X0056075Y0031429D01*
X0056075Y0032971D01*
X0055485Y0034395D01*
X0054395Y0035485D01*
X0052971Y0036075D01*
X0051429Y0036075D01*
X0050005Y0035485D01*
X0048915Y0034395D01*
X0048325Y0032971D01*
X0048325Y0031429D01*
X0048915Y0030005D01*
X0050005Y0028915D01*
X0051429Y0028325D01*
X0052971Y0028325D01*
X0054395Y0028915D01*
X0053628Y0028598D02*
X0110772Y0028598D01*
X0109126Y0029795D02*
X0055274Y0029795D01*
X0055646Y0030393D02*
X0108754Y0030393D01*
X0108506Y0030992D02*
X0055894Y0030992D01*
X0056075Y0031590D02*
X0108325Y0031590D01*
X0108325Y0032189D02*
X0056075Y0032189D01*
X0056075Y0032787D02*
X0108325Y0032787D01*
X0108497Y0033386D02*
X0055903Y0033386D01*
X0055655Y0033984D02*
X0108745Y0033984D01*
X0109103Y0034583D02*
X0055297Y0034583D01*
X0054699Y0035181D02*
X0109701Y0035181D01*
X0110717Y0035780D02*
X0053683Y0035780D01*
X0052971Y0038325D02*
X0054395Y0038915D01*
X0055485Y0040005D01*
X0056075Y0041429D01*
X0056075Y0042971D01*
X0055485Y0044395D01*
X0054395Y0045485D01*
X0052971Y0046075D01*
X0051429Y0046075D01*
X0050005Y0045485D01*
X0048915Y0044395D01*
X0048325Y0042971D01*
X0048325Y0041429D01*
X0048915Y0040005D01*
X0050005Y0038915D01*
X0051429Y0038325D01*
X0052971Y0038325D01*
X0054050Y0038772D02*
X0110350Y0038772D01*
X0110005Y0038915D02*
X0111429Y0038325D01*
X0112971Y0038325D01*
X0114395Y0038915D01*
X0115485Y0040005D01*
X0116075Y0041429D01*
X0116075Y0042971D01*
X0115485Y0044395D01*
X0114395Y0045485D01*
X0112971Y0046075D01*
X0111429Y0046075D01*
X0110005Y0045485D01*
X0108915Y0044395D01*
X0108325Y0042971D01*
X0108325Y0041429D01*
X0108915Y0040005D01*
X0110005Y0038915D01*
X0109549Y0039371D02*
X0054851Y0039371D01*
X0055449Y0039969D02*
X0108951Y0039969D01*
X0108682Y0040568D02*
X0055718Y0040568D01*
X0055966Y0041166D02*
X0108434Y0041166D01*
X0108325Y0041765D02*
X0056075Y0041765D01*
X0056075Y0042363D02*
X0108325Y0042363D01*
X0108325Y0042962D02*
X0056075Y0042962D01*
X0055831Y0043560D02*
X0108569Y0043560D01*
X0108817Y0044159D02*
X0055583Y0044159D01*
X0055122Y0044757D02*
X0109278Y0044757D01*
X0109876Y0045356D02*
X0054524Y0045356D01*
X0053261Y0045954D02*
X0111139Y0045954D01*
X0113261Y0045954D02*
X0197100Y0045954D01*
X0197100Y0045356D02*
X0114524Y0045356D01*
X0115122Y0044757D02*
X0197100Y0044757D01*
X0197100Y0044159D02*
X0115583Y0044159D01*
X0115831Y0043560D02*
X0197127Y0043560D01*
X0197726Y0042962D02*
X0116075Y0042962D01*
X0116075Y0042363D02*
X0198324Y0042363D01*
X0198923Y0041765D02*
X0116075Y0041765D01*
X0115966Y0041166D02*
X0199521Y0041166D01*
X0204879Y0041166D02*
X0207601Y0041166D01*
X0207601Y0040568D02*
X0115718Y0040568D01*
X0115449Y0039969D02*
X0207601Y0039969D01*
X0207601Y0039371D02*
X0114851Y0039371D01*
X0114050Y0038772D02*
X0207601Y0038772D01*
X0207601Y0038174D02*
X0033716Y0038174D01*
X0033055Y0037900D02*
X0034636Y0038555D01*
X0035845Y0039764D01*
X0036500Y0041345D01*
X0036500Y0043055D01*
X0035845Y0044636D01*
X0034636Y0045845D01*
X0033055Y0046500D01*
X0031345Y0046500D01*
X0029764Y0045845D01*
X0028555Y0044636D01*
X0027900Y0043055D01*
X0027900Y0041345D01*
X0028555Y0039764D01*
X0029764Y0038555D01*
X0031345Y0037900D01*
X0033055Y0037900D01*
X0033349Y0036378D02*
X0201051Y0036378D01*
X0201345Y0036500D02*
X0199764Y0035845D01*
X0198555Y0034636D01*
X0197900Y0033055D01*
X0197900Y0031345D01*
X0198555Y0029764D01*
X0199764Y0028555D01*
X0201345Y0027900D01*
X0203055Y0027900D01*
X0204636Y0028555D01*
X0205845Y0029764D01*
X0206500Y0031345D01*
X0206500Y0033055D01*
X0205845Y0034636D01*
X0204636Y0035845D01*
X0203055Y0036500D01*
X0201345Y0036500D01*
X0199699Y0035780D02*
X0113683Y0035780D01*
X0114699Y0035181D02*
X0199100Y0035181D01*
X0198533Y0034583D02*
X0115297Y0034583D01*
X0115655Y0033984D02*
X0198285Y0033984D01*
X0198037Y0033386D02*
X0115903Y0033386D01*
X0116075Y0032787D02*
X0197900Y0032787D01*
X0197900Y0032189D02*
X0116075Y0032189D01*
X0116075Y0031590D02*
X0197900Y0031590D01*
X0198046Y0030992D02*
X0115894Y0030992D01*
X0115646Y0030393D02*
X0198294Y0030393D01*
X0198542Y0029795D02*
X0115274Y0029795D01*
X0114676Y0029196D02*
X0199123Y0029196D01*
X0199721Y0028598D02*
X0113628Y0028598D01*
X0115783Y0025605D02*
X0199524Y0025605D01*
X0199764Y0025845D02*
X0198555Y0024636D01*
X0197900Y0023055D01*
X0197900Y0021345D01*
X0198555Y0019764D01*
X0199764Y0018555D01*
X0201345Y0017900D01*
X0203055Y0017900D01*
X0204636Y0018555D01*
X0205845Y0019764D01*
X0206500Y0021345D01*
X0206500Y0023055D01*
X0205845Y0024636D01*
X0204636Y0025845D01*
X0203055Y0026500D01*
X0201345Y0026500D01*
X0199764Y0025845D01*
X0200629Y0026203D02*
X0033771Y0026203D01*
X0034876Y0025605D02*
X0050295Y0025605D01*
X0049527Y0025006D02*
X0035475Y0025006D01*
X0035940Y0024408D02*
X0048928Y0024408D01*
X0048673Y0023809D02*
X0036188Y0023809D01*
X0036436Y0023211D02*
X0048425Y0023211D01*
X0048325Y0022612D02*
X0036500Y0022612D01*
X0036500Y0022014D02*
X0048325Y0022014D01*
X0048331Y0021415D02*
X0036500Y0021415D01*
X0036281Y0020817D02*
X0048579Y0020817D01*
X0048827Y0020218D02*
X0036033Y0020218D01*
X0035701Y0019620D02*
X0049300Y0019620D01*
X0049899Y0019021D02*
X0035102Y0019021D01*
X0033294Y0027999D02*
X0201106Y0027999D01*
X0203294Y0027999D02*
X0207601Y0027999D01*
X0207601Y0027401D02*
X0007000Y0027401D01*
X0007000Y0027999D02*
X0011236Y0027999D01*
X0009843Y0028598D02*
X0007000Y0028598D01*
X0007000Y0029196D02*
X0009123Y0029196D01*
X0008633Y0029795D02*
X0007000Y0029795D01*
X0007000Y0030393D02*
X0008295Y0030393D01*
X0008071Y0030992D02*
X0007000Y0030992D01*
X0007000Y0031590D02*
X0007943Y0031590D01*
X0007000Y0026802D02*
X0207601Y0026802D01*
X0207601Y0026203D02*
X0203771Y0026203D01*
X0204876Y0025605D02*
X0207601Y0025605D01*
X0207601Y0025006D02*
X0205475Y0025006D01*
X0205940Y0024408D02*
X0207601Y0024408D01*
X0207601Y0023809D02*
X0206188Y0023809D01*
X0206436Y0023211D02*
X0207601Y0023211D01*
X0207601Y0022612D02*
X0206500Y0022612D01*
X0206500Y0022014D02*
X0207601Y0022014D01*
X0207601Y0021415D02*
X0206500Y0021415D01*
X0206281Y0020817D02*
X0207601Y0020817D01*
X0207601Y0020218D02*
X0206033Y0020218D01*
X0205701Y0019620D02*
X0207601Y0019620D01*
X0207601Y0019021D02*
X0205102Y0019021D01*
X0204318Y0018423D02*
X0207601Y0018423D01*
X0207601Y0017824D02*
X0187161Y0017824D01*
X0187161Y0017226D02*
X0207601Y0017226D01*
X0207601Y0016627D02*
X0187161Y0016627D01*
X0187161Y0016029D02*
X0200207Y0016029D01*
X0199764Y0015845D02*
X0198555Y0014636D01*
X0197900Y0013055D01*
X0197900Y0011345D01*
X0198555Y0009764D01*
X0199764Y0008555D01*
X0201345Y0007900D01*
X0203055Y0007900D01*
X0204636Y0008555D01*
X0205845Y0009764D01*
X0206500Y0011345D01*
X0206500Y0013055D01*
X0205845Y0014636D01*
X0204636Y0015845D01*
X0203055Y0016500D01*
X0201345Y0016500D01*
X0199764Y0015845D01*
X0199349Y0015430D02*
X0187161Y0015430D01*
X0187161Y0014832D02*
X0198751Y0014832D01*
X0198388Y0014233D02*
X0187161Y0014233D01*
X0187161Y0013635D02*
X0198140Y0013635D01*
X0197900Y0013036D02*
X0187161Y0013036D01*
X0187161Y0012438D02*
X0197900Y0012438D01*
X0197900Y0011839D02*
X0187161Y0011839D01*
X0187161Y0011241D02*
X0197943Y0011241D01*
X0198191Y0010642D02*
X0187161Y0010642D01*
X0187161Y0010044D02*
X0198439Y0010044D01*
X0198874Y0009445D02*
X0187161Y0009445D01*
X0187161Y0008847D02*
X0199472Y0008847D01*
X0200504Y0008248D02*
X0187161Y0008248D01*
X0187161Y0008000D02*
X0187161Y0019077D01*
X0186400Y0019839D01*
X0165446Y0019839D01*
X0164684Y0019077D01*
X0164684Y0008000D01*
X0165446Y0007239D01*
X0186400Y0007239D01*
X0187161Y0008000D01*
X0186811Y0007650D02*
X0207601Y0007650D01*
X0207601Y0008248D02*
X0203896Y0008248D01*
X0204928Y0008847D02*
X0207601Y0008847D01*
X0207601Y0009445D02*
X0205526Y0009445D01*
X0205961Y0010044D02*
X0207601Y0010044D01*
X0207601Y0010642D02*
X0206209Y0010642D01*
X0206457Y0011241D02*
X0207601Y0011241D01*
X0207601Y0011839D02*
X0206500Y0011839D01*
X0206500Y0012438D02*
X0207601Y0012438D01*
X0207601Y0013036D02*
X0206500Y0013036D01*
X0206260Y0013635D02*
X0207601Y0013635D01*
X0207601Y0014233D02*
X0206012Y0014233D01*
X0205649Y0014832D02*
X0207601Y0014832D01*
X0207601Y0015430D02*
X0205051Y0015430D01*
X0204193Y0016029D02*
X0207601Y0016029D01*
X0200082Y0018423D02*
X0187161Y0018423D01*
X0187161Y0019021D02*
X0199298Y0019021D01*
X0198699Y0019620D02*
X0186619Y0019620D01*
X0197900Y0021415D02*
X0116075Y0021415D01*
X0116075Y0020817D02*
X0198119Y0020817D01*
X0198367Y0020218D02*
X0116075Y0020218D01*
X0116075Y0019620D02*
X0120852Y0019620D01*
X0121071Y0019839D02*
X0131071Y0019839D01*
X0142148Y0019839D01*
X0142909Y0019077D01*
X0142909Y0008000D01*
X0142148Y0007239D01*
X0121071Y0007239D01*
X0120309Y0008000D01*
X0120309Y0019077D01*
X0121071Y0019839D01*
X0120309Y0019021D02*
X0116009Y0019021D01*
X0115411Y0018423D02*
X0120309Y0018423D01*
X0120309Y0017824D02*
X0007000Y0017824D01*
X0007000Y0017226D02*
X0120309Y0017226D01*
X0120309Y0016627D02*
X0114054Y0016627D01*
X0115159Y0016029D02*
X0120309Y0016029D01*
X0120309Y0015430D02*
X0115758Y0015430D01*
X0116305Y0014832D02*
X0120309Y0014832D01*
X0120309Y0014233D02*
X0116553Y0014233D01*
X0116801Y0013635D02*
X0120309Y0013635D01*
X0120309Y0013036D02*
X0117000Y0013036D01*
X0117000Y0012438D02*
X0120309Y0012438D01*
X0120309Y0011839D02*
X0117000Y0011839D01*
X0116998Y0011241D02*
X0120309Y0011241D01*
X0120309Y0010642D02*
X0116750Y0010642D01*
X0116502Y0010044D02*
X0120309Y0010044D01*
X0120309Y0009445D02*
X0116233Y0009445D01*
X0115635Y0008847D02*
X0120309Y0008847D01*
X0120309Y0008248D02*
X0115036Y0008248D01*
X0113757Y0007650D02*
X0120660Y0007650D01*
X0116075Y0022014D02*
X0197900Y0022014D01*
X0197900Y0022612D02*
X0116075Y0022612D01*
X0116075Y0023211D02*
X0197964Y0023211D01*
X0198212Y0023809D02*
X0116075Y0023809D01*
X0116075Y0024408D02*
X0198460Y0024408D01*
X0198925Y0025006D02*
X0116075Y0025006D01*
X0142367Y0019620D02*
X0165227Y0019620D01*
X0164684Y0019021D02*
X0142909Y0019021D01*
X0142909Y0018423D02*
X0164684Y0018423D01*
X0164684Y0017824D02*
X0142909Y0017824D01*
X0142909Y0017226D02*
X0164684Y0017226D01*
X0164684Y0016627D02*
X0142909Y0016627D01*
X0142909Y0016029D02*
X0164684Y0016029D01*
X0164684Y0015430D02*
X0142909Y0015430D01*
X0142909Y0014832D02*
X0164684Y0014832D01*
X0164684Y0014233D02*
X0142909Y0014233D01*
X0142909Y0013635D02*
X0164684Y0013635D01*
X0164684Y0013036D02*
X0142909Y0013036D01*
X0142909Y0012438D02*
X0164684Y0012438D01*
X0164684Y0011839D02*
X0142909Y0011839D01*
X0142909Y0011241D02*
X0164684Y0011241D01*
X0164684Y0010642D02*
X0142909Y0010642D01*
X0142909Y0010044D02*
X0164684Y0010044D01*
X0164684Y0009445D02*
X0142909Y0009445D01*
X0142909Y0008847D02*
X0164684Y0008847D01*
X0164684Y0008248D02*
X0142909Y0008248D01*
X0142559Y0007650D02*
X0165035Y0007650D01*
X0203349Y0036378D02*
X0207601Y0036378D01*
X0207601Y0035780D02*
X0204701Y0035780D01*
X0205300Y0035181D02*
X0207601Y0035181D01*
X0207601Y0034583D02*
X0205867Y0034583D01*
X0206115Y0033984D02*
X0207601Y0033984D01*
X0207601Y0033386D02*
X0206363Y0033386D01*
X0206500Y0032787D02*
X0207601Y0032787D01*
X0207601Y0032189D02*
X0206500Y0032189D01*
X0206500Y0031590D02*
X0207601Y0031590D01*
X0207601Y0030992D02*
X0206354Y0030992D01*
X0206106Y0030393D02*
X0207601Y0030393D01*
X0207601Y0029795D02*
X0205858Y0029795D01*
X0205277Y0029196D02*
X0207601Y0029196D01*
X0207601Y0028598D02*
X0204679Y0028598D01*
X0205477Y0041765D02*
X0207601Y0041765D01*
X0207601Y0042363D02*
X0206076Y0042363D01*
X0206674Y0042962D02*
X0207601Y0042962D01*
X0207601Y0043560D02*
X0207273Y0043560D01*
X0207300Y0044159D02*
X0207601Y0044159D01*
X0207601Y0044757D02*
X0207300Y0044757D01*
X0207300Y0045356D02*
X0207601Y0045356D01*
X0207601Y0045954D02*
X0207300Y0045954D01*
X0207300Y0046553D02*
X0207601Y0046553D01*
X0207601Y0047151D02*
X0207300Y0047151D01*
X0207300Y0047750D02*
X0207601Y0047750D01*
X0207601Y0048348D02*
X0206764Y0048348D01*
X0206166Y0048947D02*
X0207601Y0048947D01*
X0207601Y0049545D02*
X0205567Y0049545D01*
X0204969Y0050144D02*
X0207601Y0050144D01*
X0207601Y0050742D02*
X0204370Y0050742D01*
X0207367Y0062114D02*
X0207601Y0062114D01*
X0207601Y0062713D02*
X0206249Y0062713D01*
X0196330Y0065107D02*
X0114773Y0065107D01*
X0113863Y0065705D02*
X0195614Y0065705D01*
X0195126Y0066304D02*
X0026529Y0066304D01*
X0027776Y0065705D02*
X0050537Y0065705D01*
X0049627Y0065107D02*
X0035881Y0065107D01*
X0035829Y0065177D02*
X0035829Y0065177D01*
X0035829Y0065177D01*
X0036316Y0064508D02*
X0049028Y0064508D01*
X0048714Y0063910D02*
X0036655Y0063910D01*
X0036655Y0063311D02*
X0048466Y0063311D01*
X0048325Y0062713D02*
X0036677Y0062713D01*
X0036833Y0062114D02*
X0048325Y0062114D01*
X0048325Y0061516D02*
X0036833Y0061516D01*
X0036788Y0060917D02*
X0048537Y0060917D01*
X0048785Y0060319D02*
X0036353Y0060319D01*
X0035850Y0059720D02*
X0049200Y0059720D01*
X0034494Y0059280D02*
X0034494Y0059280D01*
X0033138Y0059720D02*
X0032420Y0059720D01*
X0028900Y0064508D02*
X0028898Y0064508D01*
X0029356Y0065107D02*
X0028374Y0065107D01*
X0032547Y0065107D02*
X0033107Y0065107D01*
X0033158Y0065177D02*
X0033158Y0065177D01*
X0022500Y0056129D02*
X0021900Y0056129D01*
X0021900Y0055531D02*
X0022500Y0055531D01*
X0022500Y0054932D02*
X0021900Y0054932D01*
X0021900Y0054334D02*
X0022500Y0054334D01*
X0022500Y0053735D02*
X0021900Y0053735D01*
X0021900Y0053137D02*
X0022500Y0053137D01*
X0022500Y0052538D02*
X0021900Y0052538D01*
X0021900Y0050742D02*
X0022500Y0050742D01*
X0022500Y0050144D02*
X0021900Y0050144D01*
X0021900Y0049545D02*
X0022500Y0049545D01*
X0022500Y0048947D02*
X0021900Y0048947D01*
X0021900Y0048348D02*
X0022500Y0048348D01*
X0024373Y0045954D02*
X0030027Y0045954D01*
X0029275Y0045356D02*
X0025125Y0045356D01*
X0025724Y0044757D02*
X0028676Y0044757D01*
X0028357Y0044159D02*
X0026043Y0044159D01*
X0026291Y0043560D02*
X0028109Y0043560D01*
X0027900Y0042962D02*
X0026500Y0042962D01*
X0026500Y0042363D02*
X0027900Y0042363D01*
X0027900Y0041765D02*
X0026500Y0041765D01*
X0026426Y0041166D02*
X0027974Y0041166D01*
X0028222Y0040568D02*
X0026178Y0040568D01*
X0025930Y0039969D02*
X0028470Y0039969D01*
X0028948Y0039371D02*
X0025452Y0039371D01*
X0024853Y0038772D02*
X0029547Y0038772D01*
X0030684Y0038174D02*
X0023716Y0038174D01*
X0023349Y0036378D02*
X0031051Y0036378D01*
X0029699Y0035780D02*
X0024701Y0035780D01*
X0025300Y0035181D02*
X0029100Y0035181D01*
X0028533Y0034583D02*
X0025867Y0034583D01*
X0026115Y0033984D02*
X0028285Y0033984D01*
X0028037Y0033386D02*
X0026363Y0033386D01*
X0026500Y0032787D02*
X0027900Y0032787D01*
X0027900Y0032189D02*
X0026500Y0032189D01*
X0026500Y0031590D02*
X0027900Y0031590D01*
X0028046Y0030992D02*
X0026354Y0030992D01*
X0026106Y0030393D02*
X0028294Y0030393D01*
X0028542Y0029795D02*
X0025858Y0029795D01*
X0025277Y0029196D02*
X0029123Y0029196D01*
X0029721Y0028598D02*
X0024679Y0028598D01*
X0020629Y0026203D02*
X0013794Y0026203D01*
X0013851Y0026185D02*
X0013207Y0026394D01*
X0012538Y0026500D01*
X0012500Y0026500D01*
X0012500Y0022500D01*
X0011900Y0022500D01*
X0011900Y0026500D01*
X0011862Y0026500D01*
X0011193Y0026394D01*
X0010549Y0026185D01*
X0009946Y0025878D01*
X0009399Y0025480D01*
X0008920Y0025001D01*
X0008522Y0024454D01*
X0008215Y0023851D01*
X0008006Y0023207D01*
X0007900Y0022538D01*
X0007900Y0022500D01*
X0011900Y0022500D01*
X0011900Y0021900D01*
X0007900Y0021900D01*
X0007900Y0021862D01*
X0008006Y0021193D01*
X0008215Y0020549D01*
X0008522Y0019946D01*
X0008920Y0019399D01*
X0009399Y0018920D01*
X0009946Y0018522D01*
X0010549Y0018215D01*
X0011193Y0018006D01*
X0011862Y0017900D01*
X0011900Y0017900D01*
X0011900Y0021900D01*
X0012500Y0021900D01*
X0012500Y0022500D01*
X0016500Y0022500D01*
X0016500Y0022538D01*
X0016394Y0023207D01*
X0016185Y0023851D01*
X0015878Y0024454D01*
X0015480Y0025001D01*
X0015001Y0025480D01*
X0014454Y0025878D01*
X0013851Y0026185D01*
X0014829Y0025605D02*
X0019524Y0025605D01*
X0018925Y0025006D02*
X0015475Y0025006D01*
X0015901Y0024408D02*
X0018460Y0024408D01*
X0018212Y0023809D02*
X0016198Y0023809D01*
X0016393Y0023211D02*
X0017964Y0023211D01*
X0017900Y0022612D02*
X0016488Y0022612D01*
X0016500Y0021900D02*
X0012500Y0021900D01*
X0012500Y0017900D01*
X0012538Y0017900D01*
X0013207Y0018006D01*
X0013851Y0018215D01*
X0014454Y0018522D01*
X0015001Y0018920D01*
X0015480Y0019399D01*
X0015878Y0019946D01*
X0016185Y0020549D01*
X0016394Y0021193D01*
X0016500Y0021862D01*
X0016500Y0021900D01*
X0016429Y0021415D02*
X0017900Y0021415D01*
X0017900Y0022014D02*
X0012500Y0022014D01*
X0012500Y0022612D02*
X0011900Y0022612D01*
X0011900Y0022014D02*
X0007000Y0022014D01*
X0007000Y0022612D02*
X0007912Y0022612D01*
X0008007Y0023211D02*
X0007000Y0023211D01*
X0007000Y0023809D02*
X0008202Y0023809D01*
X0008499Y0024408D02*
X0007000Y0024408D01*
X0007000Y0025006D02*
X0008925Y0025006D01*
X0009571Y0025605D02*
X0007000Y0025605D01*
X0007000Y0026203D02*
X0010606Y0026203D01*
X0011900Y0026203D02*
X0012500Y0026203D01*
X0012500Y0025605D02*
X0011900Y0025605D01*
X0011900Y0025006D02*
X0012500Y0025006D01*
X0012500Y0024408D02*
X0011900Y0024408D01*
X0011900Y0023809D02*
X0012500Y0023809D01*
X0012500Y0023211D02*
X0011900Y0023211D01*
X0011900Y0021415D02*
X0012500Y0021415D01*
X0012500Y0020817D02*
X0011900Y0020817D01*
X0011900Y0020218D02*
X0012500Y0020218D01*
X0012500Y0019620D02*
X0011900Y0019620D01*
X0011900Y0019021D02*
X0012500Y0019021D01*
X0012500Y0018423D02*
X0011900Y0018423D01*
X0010141Y0018423D02*
X0007000Y0018423D01*
X0007000Y0019021D02*
X0009298Y0019021D01*
X0008759Y0019620D02*
X0007000Y0019620D01*
X0007000Y0020218D02*
X0008384Y0020218D01*
X0008128Y0020817D02*
X0007000Y0020817D01*
X0007000Y0021415D02*
X0007971Y0021415D01*
X0014258Y0018423D02*
X0020082Y0018423D01*
X0019298Y0019021D02*
X0015102Y0019021D01*
X0015641Y0019620D02*
X0018699Y0019620D01*
X0018367Y0020218D02*
X0016016Y0020218D01*
X0016272Y0020817D02*
X0018119Y0020817D01*
X0007000Y0007051D02*
X0207601Y0007051D01*
X0207601Y0006453D02*
X0007000Y0006453D01*
X0034679Y0028598D02*
X0050772Y0028598D01*
X0049724Y0029196D02*
X0035277Y0029196D01*
X0035858Y0029795D02*
X0049126Y0029795D01*
X0048754Y0030393D02*
X0036106Y0030393D01*
X0036354Y0030992D02*
X0048506Y0030992D01*
X0048325Y0031590D02*
X0036500Y0031590D01*
X0036500Y0032189D02*
X0048325Y0032189D01*
X0048325Y0032787D02*
X0036500Y0032787D01*
X0036363Y0033386D02*
X0048497Y0033386D01*
X0048745Y0033984D02*
X0036115Y0033984D01*
X0035867Y0034583D02*
X0049103Y0034583D01*
X0049701Y0035181D02*
X0035300Y0035181D01*
X0034701Y0035780D02*
X0050717Y0035780D01*
X0050350Y0038772D02*
X0034853Y0038772D01*
X0035452Y0039371D02*
X0049549Y0039371D01*
X0048951Y0039969D02*
X0035930Y0039969D01*
X0036178Y0040568D02*
X0048682Y0040568D01*
X0048434Y0041166D02*
X0036426Y0041166D01*
X0036500Y0041765D02*
X0048325Y0041765D01*
X0048325Y0042363D02*
X0036500Y0042363D01*
X0036500Y0042962D02*
X0048325Y0042962D01*
X0048569Y0043560D02*
X0036291Y0043560D01*
X0036043Y0044159D02*
X0048817Y0044159D01*
X0049278Y0044757D02*
X0035724Y0044757D01*
X0035125Y0045356D02*
X0049876Y0045356D01*
X0051139Y0045954D02*
X0034373Y0045954D01*
X0017900Y0102813D02*
X0016457Y0102813D01*
X0016328Y0103411D02*
X0018048Y0103411D01*
X0018295Y0104010D02*
X0016104Y0104010D01*
X0015765Y0104608D02*
X0018543Y0104608D01*
X0019126Y0105207D02*
X0015274Y0105207D01*
X0014553Y0105805D02*
X0019724Y0105805D01*
X0021113Y0106404D02*
X0013144Y0106404D01*
X0023778Y0108200D02*
X0030622Y0108200D01*
X0029521Y0108798D02*
X0024879Y0108798D01*
X0025478Y0109397D02*
X0028922Y0109397D01*
X0028459Y0109995D02*
X0025941Y0109995D01*
X0026189Y0110594D02*
X0028211Y0110594D01*
X0027963Y0111192D02*
X0026437Y0111192D01*
X0026500Y0111791D02*
X0027900Y0111791D01*
X0027900Y0112389D02*
X0026500Y0112389D01*
X0026500Y0112988D02*
X0027900Y0112988D01*
X0028120Y0113586D02*
X0026280Y0113586D01*
X0026032Y0114185D02*
X0028368Y0114185D01*
X0028702Y0114783D02*
X0025698Y0114783D01*
X0025099Y0115382D02*
X0029301Y0115382D01*
X0030090Y0115980D02*
X0024310Y0115980D01*
X0007000Y0118374D02*
X0051311Y0118374D01*
X0049947Y0118973D02*
X0007000Y0118973D01*
X0007000Y0119571D02*
X0049349Y0119571D01*
X0048847Y0120170D02*
X0007000Y0120170D01*
X0007000Y0120768D02*
X0048599Y0120768D01*
X0048351Y0121367D02*
X0007000Y0121367D01*
X0007000Y0121965D02*
X0048325Y0121965D01*
X0048325Y0122564D02*
X0007000Y0122564D01*
X0007000Y0123162D02*
X0048405Y0123162D01*
X0048652Y0123761D02*
X0007000Y0123761D01*
X0007000Y0124359D02*
X0048900Y0124359D01*
X0049478Y0124958D02*
X0007000Y0124958D01*
X0007000Y0125556D02*
X0050178Y0125556D01*
X0050889Y0128549D02*
X0007000Y0128549D01*
X0007000Y0129147D02*
X0049794Y0129147D01*
X0049180Y0129746D02*
X0007000Y0129746D01*
X0007000Y0130344D02*
X0048780Y0130344D01*
X0048527Y0130943D02*
X0007000Y0130943D01*
X0007000Y0131541D02*
X0048380Y0131541D01*
X0048356Y0132739D02*
X0007000Y0132739D01*
X0007000Y0133337D02*
X0048477Y0133337D01*
X0048725Y0133936D02*
X0007000Y0133936D01*
X0007000Y0134534D02*
X0049099Y0134534D01*
X0049653Y0135133D02*
X0007000Y0135133D01*
X0007000Y0135731D02*
X0050599Y0135731D01*
X0051900Y0132140D02*
X0007000Y0132140D01*
X0007000Y0127950D02*
X0103400Y0127950D01*
X0103400Y0127352D02*
X0007000Y0127352D01*
X0007000Y0126753D02*
X0103400Y0126753D01*
X0103400Y0126155D02*
X0007000Y0126155D01*
X0007000Y0136330D02*
X0104743Y0136330D01*
X0105341Y0136928D02*
X0007000Y0136928D01*
X0051900Y0131541D02*
X0052500Y0131541D01*
X0052500Y0130943D02*
X0051900Y0130943D01*
X0051900Y0130344D02*
X0052500Y0130344D01*
X0052500Y0129746D02*
X0051900Y0129746D01*
X0051900Y0129147D02*
X0052500Y0129147D01*
X0052500Y0128549D02*
X0051900Y0128549D01*
X0108687Y0108200D02*
X0122351Y0108200D01*
X0122351Y0108798D02*
X0114112Y0108798D01*
X0114876Y0109397D02*
X0122351Y0109397D01*
X0122351Y0109995D02*
X0115475Y0109995D01*
X0115729Y0110594D02*
X0122351Y0110594D01*
X0122351Y0111192D02*
X0115977Y0111192D01*
X0116075Y0111791D02*
X0122852Y0111791D01*
X0122678Y0114783D02*
X0115097Y0114783D01*
X0115572Y0114185D02*
X0144327Y0114185D01*
X0144079Y0113586D02*
X0115820Y0113586D01*
X0116068Y0112988D02*
X0143900Y0112988D01*
X0143900Y0112389D02*
X0116075Y0112389D01*
X0114498Y0115382D02*
X0122351Y0115382D01*
X0122351Y0115980D02*
X0113199Y0115980D01*
X0114453Y0118973D02*
X0122351Y0118973D01*
X0122351Y0119571D02*
X0115051Y0119571D01*
X0115553Y0120170D02*
X0122351Y0120170D01*
X0122351Y0120768D02*
X0115801Y0120768D01*
X0116049Y0121367D02*
X0122351Y0121367D01*
X0122351Y0121965D02*
X0116075Y0121965D01*
X0116075Y0122564D02*
X0122428Y0122564D01*
X0123027Y0123162D02*
X0115995Y0123162D01*
X0115748Y0123761D02*
X0125400Y0123761D01*
X0125400Y0124359D02*
X0115500Y0124359D01*
X0114922Y0124958D02*
X0125400Y0124958D01*
X0125400Y0125556D02*
X0114222Y0125556D01*
X0120017Y0136330D02*
X0146127Y0136330D01*
X0147572Y0136928D02*
X0120615Y0136928D01*
X0121214Y0137527D02*
X0147440Y0137527D01*
X0145995Y0138125D02*
X0131564Y0138125D01*
X0132049Y0138724D02*
X0145388Y0138724D01*
X0144790Y0139322D02*
X0132049Y0139322D01*
X0132049Y0139921D02*
X0144449Y0139921D01*
X0143323Y0144110D02*
X0132049Y0144110D01*
X0132049Y0144709D02*
X0143922Y0144709D01*
X0145019Y0145307D02*
X0132049Y0145307D01*
X0132049Y0145906D02*
X0145618Y0145906D01*
X0146548Y0146504D02*
X0131531Y0146504D01*
X0122836Y0138125D02*
X0121812Y0138125D01*
X0131548Y0111791D02*
X0143900Y0111791D01*
X0143922Y0111192D02*
X0132049Y0111192D01*
X0132049Y0110594D02*
X0144170Y0110594D01*
X0144418Y0109995D02*
X0132049Y0109995D01*
X0132049Y0109397D02*
X0144715Y0109397D01*
X0145314Y0108798D02*
X0132049Y0108798D01*
X0132049Y0108200D02*
X0145912Y0108200D01*
D21*
X0127200Y0107602D02*
X0126200Y0106700D01*
X0126200Y0103400D01*
X0118500Y0095700D01*
X0117400Y0095700D01*
X0113000Y0091300D01*
X0112200Y0092200D01*
X0112200Y0102200D02*
X0111900Y0102300D01*
X0105300Y0108900D01*
X0105300Y0134200D01*
X0107500Y0136400D01*
X0117400Y0136400D01*
X0124000Y0143000D01*
X0126200Y0143000D01*
X0127200Y0142298D01*
X0127300Y0141900D01*
X0143800Y0141900D01*
X0144900Y0143000D01*
X0151500Y0143000D01*
X0152200Y0142200D01*
X0127300Y0130900D02*
X0127200Y0131102D01*
X0127300Y0129800D01*
X0124000Y0129800D01*
X0120700Y0133100D01*
X0117400Y0133100D01*
X0116300Y0132000D01*
X0113000Y0132000D01*
X0112200Y0132200D01*
X0127300Y0130900D02*
X0127300Y0129800D01*
X0127300Y0118800D01*
X0127200Y0118798D01*
M02*
