G75*
%MOIN*%
%OFA0B0*%
%FSLAX25Y25*%
%IPPOS*%
%LPD*%
%AMOC8*
5,1,8,0,0,1.08239X$1,22.5*
%
%ADD10OC8,0.08400*%
%ADD11C,0.07800*%
%ADD12R,0.05950X0.05950*%
%ADD13C,0.05950*%
%ADD14C,0.06800*%
%ADD15R,0.07898X0.07099*%
%ADD16C,0.06800*%
%ADD17R,0.10800X0.10800*%
%ADD18C,0.07800*%
D10*
X0202200Y0045700D03*
D11*
X0112200Y0012200D03*
X0052200Y0012200D03*
X0052200Y0172200D03*
X0112200Y0172200D03*
D12*
X0112200Y0022200D03*
D13*
X0112200Y0032200D03*
X0112200Y0042200D03*
X0112200Y0052200D03*
X0112200Y0062200D03*
X0112200Y0072200D03*
X0112200Y0082200D03*
X0112200Y0092200D03*
X0112200Y0102200D03*
X0112200Y0112200D03*
X0112200Y0122200D03*
X0112200Y0132200D03*
X0112200Y0142200D03*
X0112200Y0152200D03*
X0112200Y0162200D03*
X0052200Y0162200D03*
X0052200Y0152200D03*
X0052200Y0142200D03*
X0052200Y0132200D03*
X0052200Y0122200D03*
X0052200Y0112200D03*
X0052200Y0102200D03*
X0052200Y0092200D03*
X0052200Y0082200D03*
X0052200Y0072200D03*
X0052200Y0062200D03*
X0052200Y0052200D03*
X0052200Y0042200D03*
X0052200Y0032200D03*
X0052200Y0022200D03*
D14*
X0012200Y0022200D03*
X0012200Y0032200D03*
X0012200Y0042200D03*
X0022200Y0042200D03*
X0022200Y0032200D03*
X0022200Y0022200D03*
X0032200Y0022200D03*
X0032200Y0032200D03*
X0032200Y0042200D03*
X0032200Y0092200D03*
X0032200Y0102200D03*
X0032200Y0112200D03*
X0022200Y0112200D03*
X0022200Y0102200D03*
X0022200Y0092200D03*
X0012200Y0092200D03*
X0012200Y0102200D03*
X0012200Y0112200D03*
X0202200Y0032200D03*
X0202200Y0022200D03*
X0202200Y0012200D03*
D15*
X0127200Y0107602D03*
X0127200Y0118798D03*
X0127200Y0131102D03*
X0127200Y0142298D03*
D16*
X0198700Y0088700D02*
X0204700Y0088700D01*
X0204700Y0078700D02*
X0198700Y0078700D01*
X0198700Y0068700D02*
X0204700Y0068700D01*
X0204700Y0058700D02*
X0198700Y0058700D01*
X0035200Y0142200D02*
X0029200Y0142200D01*
X0029200Y0152200D02*
X0035200Y0152200D01*
X0035200Y0162200D02*
X0029200Y0162200D01*
X0029200Y0172200D02*
X0035200Y0172200D01*
X0025200Y0082200D02*
X0019200Y0082200D01*
X0019200Y0072200D02*
X0025200Y0072200D01*
X0025200Y0062200D02*
X0019200Y0062200D01*
X0019200Y0052200D02*
X0025200Y0052200D01*
D17*
X0126609Y0087476D03*
X0136609Y0087476D03*
X0170822Y0087476D03*
X0180861Y0087476D03*
X0180861Y0013539D03*
X0170984Y0013539D03*
X0136609Y0013539D03*
X0126609Y0013539D03*
D18*
X0148700Y0102200D02*
X0155700Y0102200D01*
X0155700Y0112200D02*
X0148700Y0112200D01*
X0148700Y0122200D02*
X0155700Y0122200D01*
X0155700Y0132200D02*
X0148700Y0132200D01*
X0148700Y0142200D02*
X0155700Y0142200D01*
X0155700Y0152200D02*
X0148700Y0152200D01*
X0148700Y0162200D02*
X0155700Y0162200D01*
X0155700Y0172200D02*
X0148700Y0172200D01*
M02*
